<svg xmlns="http://www.w3.org/2000/svg" viewBox="0 0 503.1 613.61"><defs><style>.cls-1{font-size:37.88px;fill:#231815;font-family:jf-openhuninn-1.1;}.cls-2{fill:#d99a4b;}.cls-3,.cls-5{fill:#040000;}.cls-3{stroke:#69927f;}.cls-4{fill:#fff;}</style></defs><title>資產 3</title><g id="圖層_2" data-name="圖層 2"><g id="圖層_1-2" data-name="圖層 1"><text class="cls-1" transform="translate(53.23 206.96) rotate(-49.46)">T</text><text class="cls-1" transform="translate(67.34 190.41) rotate(-44.49)">h</text><text class="cls-1" transform="matrix(0.76, -0.66, 0.66, 0.76, 83.27, 175.03)">i</text><text class="cls-1" transform="matrix(0.79, -0.61, 0.61, 0.79, 89.91, 169.11)">s</text><text class="cls-1" transform="matrix(0.82, -0.57, 0.57, 0.82, 103.66, 158.5)"> </text><text class="cls-1" transform="matrix(0.85, -0.52, 0.52, 0.85, 112.41, 152.28)">c</text><text class="cls-1" transform="translate(128.82 142.27) rotate(-26.74)">a</text><text class="cls-1" transform="translate(146.67 133.38) rotate(-22.99)">t</text><text class="cls-1" transform="translate(159.36 127.99) rotate(-19.93)"> </text><text class="cls-1" transform="translate(169.23 123.98) rotate(-15.81)">w</text><text class="cls-1" transform="matrix(0.98, -0.2, 0.2, 0.98, 197.06, 116.47)">i</text><text class="cls-1" transform="translate(205.87 114.67) rotate(-9.47)">l</text><text class="cls-1" transform="matrix(0.99, -0.13, 0.13, 0.99, 214.73, 113.19)">l</text><text class="cls-1" transform="translate(223.6 112.01) rotate(-5.14)"> </text><text class="cls-1" transform="translate(234.29 110.95) rotate(-1.91)">s</text><text class="cls-1" transform="matrix(1, 0.04, -0.04, 1, 251.56, 110.29)">e</text><text class="cls-1" transform="matrix(0.99, 0.1, -0.1, 0.99, 272.09, 111.32)">l</text><text class="cls-1" transform="translate(281.04 112.22) rotate(7.83)">l</text><text class="cls-1" transform="matrix(0.98, 0.18, -0.18, 0.98, 289.91, 113.42)"> </text><text class="cls-1" transform="matrix(0.97, 0.23, -0.23, 0.97, 300.51, 115.2)">s</text><text class="cls-1" transform="matrix(0.95, 0.3, -0.3, 0.95, 317.34, 119.06)">o</text><text class="cls-1" transform="translate(338.26 125.39) rotate(23.99)">m</text><text class="cls-1" transform="matrix(0.87, 0.5, -0.5, 0.87, 368.54, 139.2)">e</text><text class="cls-1" transform="translate(386.24 149.55) rotate(33.93)">t</text><text class="cls-1" transform="matrix(0.79, 0.62, -0.62, 0.79, 397.7, 157.07)">h</text><text class="cls-1" transform="matrix(0.75, 0.66, -0.66, 0.75, 415.03, 170.85)">i</text><text class="cls-1" transform="matrix(0.71, 0.71, -0.71, 0.71, 421.78, 176.53)">n</text><text class="cls-1" transform="translate(437.33 192.06) rotate(50.2)">g</text><circle class="cls-2" cx="251.55" cy="362.06" r="239"/><path class="cls-3" d="M354.65,362.73c0,30.43-12.82,53.47-33.57,68.91S271.62,455,239.85,455s-60.47-7.88-81.23-23.34-33.57-38.48-33.57-68.91,12.83-53.91,33.57-69.79,49.47-24.18,81.23-24.18,60.47,8.3,81.23,24.18S354.65,332.29,354.65,362.73Z"/><ellipse class="cls-4" cx="187.96" cy="313.75" rx="19.69" ry="19.73"/><ellipse class="cls-5" cx="187.96" cy="313.75" rx="13.55" ry="13.57"/><ellipse class="cls-4" cx="245.4" cy="313.75" rx="19.69" ry="19.73"/><ellipse class="cls-5" cx="245.4" cy="313.75" rx="13.55" ry="13.57"/><rect class="cls-5" x="231.71" y="420.26" width="185.17" height="35.21" rx="17.61"/><path class="cls-5" d="M169.15,264.89a7,7,0,0,1,10.5-5.44l19,11.07a7,7,0,0,1-.32,12.27l-20.88,10.83a7,7,0,0,1-10.18-6.83Z"/><path class="cls-5" d="M248.8,252.48a7,7,0,0,1,11.61,2.26l8,20.46a7,7,0,0,1-7.85,9.43l-23.08-4.49a7,7,0,0,1-3.76-11.67Z"/></g></g></svg>