<svg xmlns="http://www.w3.org/2000/svg" viewBox="0 0 636.69 700.5"><defs><style>.cls-1{fill:#0d382a;}.cls-2{fill:#365941;}.cls-3{fill:#69927f;}.cls-4{fill:#d99a4b;}.cls-5{fill:#d9d1b5;}.cls-6{fill:#d99b4b;}.cls-7{fill:#6e4f24;}.cls-8{fill:#473216;}.cls-9{fill:#d99b4c;}.cls-10{fill:#91966e;}.cls-11{fill:#a99762;}.cls-12{fill:#6a927f;}.cls-13{fill:#73937c;}.cls-14{fill:#6f927d;}.cls-15{fill:#d89b4c;}</style></defs><title>資產 1</title><g id="圖層_2" data-name="圖層 2"><g id="圖層_1-2" data-name="圖層 1"><path class="cls-1" d="M50.69,0H160.94a0,0,0,0,1,0,0V175.13a0,0,0,0,1,0,0H2.36a0,0,0,0,1,0,0V48.34A48.34,48.34,0,0,1,50.69,0Z"/><path class="cls-1" d="M50.69,525.38H160.94a0,0,0,0,1,0,0V700.5a0,0,0,0,1,0,0H2.36a0,0,0,0,1,0,0V573.71A48.33,48.33,0,0,1,50.69,525.38Z" transform="translate(163.3 1225.88) rotate(180)"/><rect class="cls-2" x="160.94" width="158.58" height="175.13"/><rect class="cls-3" x="319.52" width="158.58" height="175.13"/><path class="cls-4" d="M478.11,0H600.86a35.82,35.82,0,0,1,35.82,35.82v139.3a0,0,0,0,1,0,0H478.11a0,0,0,0,1,0,0V0A0,0,0,0,1,478.11,0Z"/><rect class="cls-2" x="2.36" y="175.13" width="158.58" height="175.13"/><rect class="cls-1" x="160.94" y="175.13" width="158.58" height="175.13"/><rect class="cls-5" x="319.52" y="175.13" width="158.58" height="175.13"/><rect class="cls-3" x="478.11" y="175.13" width="158.58" height="175.13"/><rect class="cls-3" x="2.36" y="350.25" width="158.58" height="175.13"/><rect class="cls-5" x="160.94" y="350.25" width="158.58" height="175.13"/><rect class="cls-1" x="319.52" y="350.25" width="158.58" height="175.13"/><path class="cls-2" d="M478.11,350.25H636.69a0,0,0,0,1,0,0V473.6a51.77,51.77,0,0,1-51.77,51.77H478.11a0,0,0,0,1,0,0V350.25A0,0,0,0,1,478.11,350.25Z"/><rect class="cls-4" x="160.94" y="525.38" width="158.58" height="175.13"/><rect class="cls-3" x="319.52" y="525.38" width="158.58" height="175.13"/><path class="cls-4" d="M562.39,700.5H478.11V525.38H557.4L606,632.81C620.4,664.54,597.21,700.5,562.39,700.5Z"/><path class="cls-6" d="M319.42,173.84,28.32,175c-.28-2.06,1.48-2,2.49-2.52,6.11-2.76,9.6-7.64,10.83-14.47,1.44-8-2.61-16.59-9.43-20.39-1.8-1-4.11-1-5.4-3a2.39,2.39,0,0,1,.73-2c2-1,4.24-1.62,6.1-3.09a18.79,18.79,0,0,0,7.48-17c-.69-7.94-4.53-13.82-11.83-16.76-1.32-.53-3.38-.51-3.5-2.38-.13-2.17,2.09-2.11,3.44-2.73,6.37-2.91,10.26-7.94,10.93-15.27.74-8.07-1.79-14.72-8.66-19A24.36,24.36,0,0,0,26.24,54c-.75-.26-1.58-.5-1.69-1.5-.12-1.19.8-1.56,1.61-1.86a20.22,20.22,0,0,0,8.3-5c8.41-9,6.25-24.52-4.3-30.54A19.69,19.69,0,0,1,27,13.15c-.56-.49-1-1.17,0-1.76.26,0,.52,0,.79-.05q143.14-.57,286.29-1.16c1,.35.81,1,.38,1.73a3,3,0,0,1-1.51,1c-7.71,3.44-11,11.72-10.49,18.49.62,8.39,4.78,14.26,12.32,17.28,1.25.5,3.16.46,3.2,2.3.05,2.07-2,2-3.31,2.45-9.05,3.38-13.89,14.87-10.31,24.56,2.08,5.66,5.71,9.62,11.18,11.59.33.12.67.23,1,.38.94.43,2.16.67,2.2,2s-1.25,1.6-2.21,1.93a17.91,17.91,0,0,0-11.26,11.11c-3.72,9.61.64,20.86,9.72,24.91,1,.43,2,.76,2.89,1.28,1.59.9,1.55,2.4,0,3.35a14.77,14.77,0,0,1-1.68.74c-7.48,3.16-11.08,9.29-11.46,17.55a19,19,0,0,0,11,18c1,.45,2,.75,2.9,1.27C319.19,172.49,319.77,172.91,319.42,173.84Z"/><path class="cls-7" d="M317.7,9.88A8.17,8.17,0,0,1,314.55,11c-.79-.87-1.81-.5-2.72-.5Q170.64,11,29.44,11.63c-.92,0-1.93-.32-2.75.48a2.66,2.66,0,0,1-2.18-1Z"/><path class="cls-3" d="M173.28,165.58l-120.16.49c-3.33,0-3.28,0-2.52-3.25,2.3-9.78.55-18.69-5.39-26.56-1.27-1.68-1.32-2.68-.07-4.42a30.75,30.75,0,0,0-.59-36.42C43.31,93.81,43,92.81,44.33,91a30.64,30.64,0,0,0-.82-36.85c-1.2-1.55-1.16-2.4-.06-3.92C49.34,42.1,50.64,33,48,23.27,47.09,20,47,20,50.29,20l196.45-.8c15-.07,30-.08,44.93-.23,2.37,0,3,.38,2.25,3.05-2.7,10-.66,19.17,5.47,27.27.91,1.21,1.34,2,.25,3.49-8.42,11.82-8.22,25.84.55,37.48,1.11,1.48,1,2.31,0,3.71a30.54,30.54,0,0,0,.35,36.62c1.4,1.86,1.38,3,0,4.87-5.73,8.12-6.84,17.2-4,26.77.75,2.55.21,2.87-2,2.87Q233.89,165.28,173.28,165.58Z"/><path class="cls-8" d="M27.27,134.53,26,134.42c.42-1.08,1.34-.84,2.14-.92Z"/><path class="cls-9" d="M172.59,146.77l-64.27.27c-26.42.1-47.73-18.81-52.34-46.44C51,70.4,72.33,41.22,101.2,38.94c2.68-.22,5.38-.33,8.08-.34q62.83-.29,125.67-.52c15.84,0,29.39,5.91,39.84,18.59,13.08,15.88,16.92,34.31,10.32,54.21-6.69,20.16-20.7,31.78-40.69,35.16a41.5,41.5,0,0,1-6.77.47Z"/><path class="cls-3" d="M172.43,144.57l-64.51.26c-25,.09-45.62-18.28-49.91-44.45-4.74-28.85,15.22-56.53,42.71-59.21,2.51-.24,5-.37,7.56-.39q63.47-.28,127-.53c25.13-.09,45.86,18.34,50.16,44.56,5,30.5-17.4,59.17-46.61,59.46C216.67,144.49,194.55,144.48,172.43,144.57Z"/><path class="cls-6" d="M218.3,120.44c-2.59.32-5.18.66-7.78,1-1.38.15-2.06.63-2.2,2.35-.63,7.6-6.26,11-12.88,7.87a2.58,2.58,0,0,0-2.64,0c-6.53,3.34-13-.87-13.15-8.6s-.36-15.31-.48-23a3.13,3.13,0,0,0-1.9-3c-3.14-1.92-6-3.4-9.43-.82-1.33,1-4.15-.81-4.67,1.12-.68,2.55-.26,5.48-.09,8.23.08,1.4,1.14.65,1.82.47,3.88-1,7.3-.39,9.78,3.22,3.74,5.45.75,19.36-5.13,21.83a22.4,22.4,0,0,1-18.06-.14c-4.63-2-5.73-6.83-5.89-11.78-.37-.3.11-1.43-.93-1.07a31.1,31.1,0,0,1-14.38,13.57c-6,2.81-12.07-1-12.25-8-.06-2.33-.69-2.65-2.57-2a40.79,40.79,0,0,1-5.28,1.53,8.85,8.85,0,0,1-10.47-6.81,9.32,9.32,0,0,1,5.77-11.24c1.08-.41,2.78-.09,3-1.72a26.75,26.75,0,0,0-.09-5.51c-.08-.91-1-.81-1.67-1-4.08-1.61-6.24-4.67-6.27-8.89s1.94-7.2,6.18-8.88c1-.38,1.69-.69,1.67-2s-.9-1.5-1.87-1.77C101.45,74,98.53,70,99,65.21c.48-5,4.11-8.37,9.47-8.28,6.85.11,13.72-.73,20.58.48,2,.36,4.12-1.22,6.34-1.21,8.45,0,16.89-.14,25.34-.06,6.21.06,10.09,4.07,9.9,9.92-.15,4.67-3.49,8.59-7.92,8.67-9.66.19-19.33.28-29,0a21.5,21.5,0,0,0-6.6.57c-1.27.36-1.45,1.07-1.36,2.19.1,1.3,1,1.49,1.88,1.26,5.59-1.49,11.27-.6,16.9-.76,6.79-.2,13.59-.07,20.38-.14,2.43,0,4.76.34,6.57,2.15,1.26,1.25,1.9.86,2.81-.43A83.34,83.34,0,0,0,184.78,59c2.92-8.33,10.72-9.7,16.06-2.8.89,1.15,1.49,1.12,2.57.49a17.58,17.58,0,0,1,9.32-2.24c3.39,0,6.79-.08,10.19,0,15,.3,24.08,17.36,16.52,31.1-1,1.74-1.12,2.43.87,3.33,3.33,1.5,5,4.48,5.09,8.33.19,7.48.4,14.95.46,22.42.06,8.13-3.31,12.11-10.94,12.93a46.65,46.65,0,0,1-7.57.15c-5.34-.29-8.36-5.13-7.37-11.59C219.81,119.74,219,120.28,218.3,120.44Z"/><path class="cls-10" d="M144.67,118.1c.12-.42.35-1.08.7-.84.64.42.25,1.24.23,1.91Z"/><path class="cls-11" d="M218.3,120.44c.68-.14,1.73-1.34,1.68.65Z"/><path class="cls-3" d="M234.44,110.21c0-2.95-.05-5.9,0-8.86,0-1.4-.51-2-1.85-2-3.48.06-7,.05-10.45.06a.55.55,0,0,0-.26,0c-3.51,1.91-.89,5.18-1.44,7.75-.4,1.89,1.16,1.58,2.28,1.44a14.15,14.15,0,0,1,1.82-.23c2,0,2.2-.79,1.21-2.45-.68-1.13-1.23-2.49.23-3.37s2.16.46,2.78,1.58a73.41,73.41,0,0,1,4.34,9.45c.48,1.24.6,2.44-.76,3s-2.32-.27-2.59-1.52c-.58-2.72-2.19-2.74-4.29-2.42-5.08.77-10.18,1.38-15.27,2a9.3,9.3,0,0,1-1,.15c-1.77.07-4.07.76-4.32-2.07s2.07-2.6,3.87-2.83c8.78-1.14,6.69,1,6.94-8.11.06-2.24-1-2.6-2.75-2.41-5.82.62-10.68,6-10.84,12.22-.09,3.5,0,7,.07,10.52,0,1.85-.1,3.75-2.37,3.83s-2.59-1.79-2.63-3.64c-.1-4.34-.29-8.68-.16-13,.24-8.54,6.68-14.74,15.22-14.89,3.41-.06,3.49-.28,3.14-3.76-.18-1.88-1.21-1.85-2.5-2-7.14-.58-11.94-5-13.1-12-1.21-7.31,3.5-14.44,10.47-15.6A53.45,53.45,0,0,1,223.72,61c7.31.66,12.44,7,12.19,14.63a13.39,13.39,0,0,1-13,13.14c-2.95.17-3.2.57-2.9,3.62.17,1.68.91,2.12,2.38,2.1,4.53-.06,9.06,0,13.58,0,2.23,0,3.17,1.08,3.22,3.33.15,7.47.37,14.94.46,22.41,0,3.65-1.13,5.12-4.49,5.56a61.11,61.11,0,0,1-7,.27,1.93,1.93,0,0,1-2.12-2.21,2.1,2.1,0,0,1,2.15-2.28c.35,0,.7,0,1,0,6-.06,5.53.54,5.43-5.81,0-1.85,0-3.69,0-5.54Z"/><path class="cls-3" d="M148.93,84.43c4.79,0,9.58-.05,14.37-.05a18.93,18.93,0,0,1,2.61.11,2.57,2.57,0,0,1,2.54,2.89,2.39,2.39,0,0,1-2.68,2.4c-2.26,0-4.53.12-6.79,0-1.72-.06-2.53.44-2.47,2.48.26,8.57.42,17.16.56,25.74,0,1.9.79,2.69,2.53,2.58a15.36,15.36,0,0,1,2.35,0c2.1.16,3.08-.84,3.1-3a20.22,20.22,0,0,1,.27-3.3,2.37,2.37,0,0,1,2.73-2c1.48.08,1.79,1.24,1.77,2.56,0,1,0,2-.11,3-.41,6.56-1.82,8-8,8-1.31,0-2.61,0-3.92,0-4.17-.11-5.68-1.58-5.81-6-.26-9-.48-17.9-.54-26.85,0-2.39-.65-3.48-3-3.09a4.06,4.06,0,0,1-.78,0c-4.76,0-4-.16-4.22,4.27-.33,6.09-.86,12.16-3.05,17.89a23.93,23.93,0,0,1-12.49,13.47c-1.33.65-2.61.75-3.34-.86a2.53,2.53,0,0,1,1-3.57c9.31-4.78,11.9-13.57,12.61-23.51,0-.46.06-.92.08-1.38.25-6.11.25-6.14-5.58-6.23-1.83,0-3.48-.4-3.47-2.72s1.79-2.7,3.53-2.72c5.4,0,10.8,0,16.2-.08Z"/><path class="cls-3" d="M116.72,63.46c2.79,0,5.57-.06,8.36,0,1.74,0,3.18.66,3.14,2.83s-1.42,2.48-3.07,2.57c-5.81.31-5.81.33-5.7,6.63,0,2.22.15,4.43.08,6.65-.08,2.39.62,3.73,3.14,3.32a14.43,14.43,0,0,1,2.08,0c1.62,0,2.81.7,2.89,2.48s-1.06,2.6-2.68,2.66l-.53,0c-4.56.25-4.56.25-4.52,5,0,3.23.13,6.46.09,9.69,0,2,.51,2.77,2.46,2.06A41.94,41.94,0,0,1,127,106c1.56-.37,2.87.06,3.25,1.86s-.69,2.56-2.08,3q-9.39,2.92-18.8,5.8c-1.68.52-3,0-3.54-1.77s.51-3,2.15-3.46,3.51-1.07,5.29-1.52a2,2,0,0,0,1.67-2.37c-.09-4.89-.19-9.79-.18-14.68,0-1.7-.62-2.31-2.16-2.24a25.51,25.51,0,0,1-3.91-.12,2.52,2.52,0,0,1,0-4.94,14.56,14.56,0,0,1,2.09-.1c3.87,0,3.89,0,3.8-4-.07-3.41-.26-6.82-.29-10.24,0-1.78-.68-2.52-2.36-2.35-1,.1-1.91,0-2.87,0-1.89,0-3.76-.25-3.74-2.73s2-2.66,3.81-2.68c2.53,0,5,0,7.58,0Z"/><path class="cls-3" d="M184.65,85.83c-.72,1-1.46,2-2.16,3-1.14,1.64-2.46,2.74-4.39,1.43-1.57-1.06-1.59-3,0-5a83.9,83.9,0,0,0,10.68-18.93c.76-1.86,1.46-3.75,2.12-5.65s1.75-2.61,3.44-2,2.07,2.09,1.41,3.82c-.9,2.4-1.53,5-2.81,7.13-2.93,4.89-3,10.15-2.82,15.65.4,12.54.54,25.08.78,37.61,0,1.78-.53,3.19-2.43,3.22-2.1,0-2.5-1.58-2.53-3.41L185.28,89c0-1,0-2,0-3Z"/><path class="cls-12" d="M148.21,68.22c-4.34,0-8.69,0-13,.06-1.77,0-3.22-.49-3.25-2.65s1.5-2.77,3.19-2.78q12.91-.1,25.83-.11c1.8,0,3.43.56,3.38,2.89s-1.6,2.55-3.32,2.55C156.74,68.17,152.48,68.2,148.21,68.22Z"/><path class="cls-13" d="M196.69,86.88c1.1,1.09,2,2,3,3s.85,1.52-.16,2.15c-.8.5-1.45,1.77-2.35,1.46-1.06-.38-.48-1.77-.62-2.69A7.22,7.22,0,0,1,196.69,86.88Z"/><path class="cls-14" d="M129.58,96.42c1.09.2,2.35-.12,2.29,1.62s-1.08,1.77-2.3,1.35c-.08,0-.18,0-.25,0-1-.48-2.92.74-2.89-1.14S128.53,96.92,129.58,96.42Z"/><path class="cls-15" d="M224.41,84.12h-.52c-3.75,0-5.39-2.5-4.1-6.23.31-.92,1-1,1.66-1,2,0,4-.11,6,0a3.33,3.33,0,0,1,3.4,3.69c0,2.39-1.44,3.39-3.56,3.45-.95,0-1.9,0-2.85,0Z"/><path class="cls-15" d="M224.42,65.55a27.06,27.06,0,0,1,3.12,0,3.22,3.22,0,0,1,3.11,3.4,3.17,3.17,0,0,1-2.91,3.58,64,64,0,0,1-6.5.15c-1.06,0-1.59-.54-1.56-1.69a12.38,12.38,0,0,0-.06-1.93c-.39-2.71.53-4,3.24-3.61a9,9,0,0,0,1.56,0Z"/><path class="cls-15" d="M210.76,72.84a30.82,30.82,0,0,1-3.61-.28c-1.9-.36-2.82-1.73-2.73-3.74a3,3,0,0,1,3-3.19c1.21-.12,2.42-.1,3.64-.1,3.92,0,3.83,0,4,4.2.09,2.21-.46,3.34-2.7,3a11.6,11.6,0,0,0-1.56,0Z"/><path class="cls-15" d="M210.42,84.14c-.87,0-1.74.06-2.6,0a3.22,3.22,0,0,1-3.24-3.28,3.25,3.25,0,0,1,3-3.77,54.67,54.67,0,0,1,5.73-.14c1.2,0,1.63.59,1.75,1.84C215.62,83.91,215.43,84.16,210.42,84.14Z"/><polygon class="cls-5" points="545.29 206.82 545.29 248.79 503.33 248.79 503.33 255.51 552.02 255.51 552.02 255.51 552.02 255.51 552.02 206.82 545.29 206.82"/><polygon class="cls-5" points="570.91 318.33 570.91 276.37 612.87 276.37 612.87 269.64 564.18 269.64 564.18 269.64 564.18 269.64 564.18 318.33 570.91 318.33"/><path class="cls-1" d="M141.37,358c9.45-7.22,25-7.22,34.43,0h0c7,5.32,17.56,6.89,26.7,4l7.92-2.54c10.36-3.33,22.27.94,25.31,9.07h0c2.42,6.44,10.59,10.7,19.5,10.15l12.59-.77c10.18-.63,18,6.62,15.05,13.95h0c-2.43,6,2.44,12.3,10.6,13.71l8.2,1.41c10.34,1.79,14,11.42,6.43,17h0c-6.13,4.53-5.08,12.15,2.15,15.65l.53.26c9.46,4.58,8.16,15.23-2.25,18.45l-3.54,1.1c-7.77,2.4-10.79,9.46-6.34,14.81h0c5.42,6.52-.36,15-10.59,15.56l-11.48.61c-8.54.45-15.13,5.81-15,12.22h0c.12,7.9-9.74,13.77-20,11.9l-11.27-2.05c-9.17-1.67-18.73,1.33-23.57,7.4h0c-6.33,7.91-20.2,10.25-30.44,5.14l-3.51-1.75a32.88,32.88,0,0,0-28.34,0l-3.5,1.75c-10.24,5.11-24.12,2.77-30.44-5.14h0c-4.85-6.07-14.4-9.07-23.58-7.4l-11.27,2.05c-10.25,1.87-20.11-4-20-11.9h0c.09-6.41-6.49-11.77-15-12.22l-11.49-.61c-10.23-.54-16-9-10.58-15.56h0c4.45-5.35,1.43-12.41-6.35-14.81l-3.54-1.1C-1.78,455-3.07,444.39,6.39,439.81l.52-.26c7.24-3.5,8.29-11.12,2.16-15.65h0c-7.56-5.59-3.92-15.22,6.43-17l8.19-1.41c8.17-1.41,13-7.71,10.61-13.71h0c-3-7.33,4.86-14.58,15-13.95l12.6.77c8.9.55,17.08-3.71,19.49-10.15h0c3-8.13,14.95-12.4,25.32-9.07l7.91,2.54c9.14,2.93,19.75,1.36,26.71-4Z"/><path class="cls-4" d="M185,510.53a11.24,11.24,0,0,1-5-1.13l-3.1-1.55a42.22,42.22,0,0,0-36.59,0l-3.11,1.55a11.53,11.53,0,0,1-6.92,1,9.24,9.24,0,0,1-5.71-3.09c-6.66-8.35-19.6-12.41-32.21-10.11l-14.24,2.6L77,493.29c-1.51-8.65-11-15.39-22.7-16L43,476.69l2.35-6.8c2.38-6.91-1.55-14.42-9.55-18.26L28.22,448l5.8-5.09c5.68-5,6.89-12.28,3-18.16l-4.14-6.29,9-1.91c10.38-2.2,17.45-9.64,16.8-17.69l-.54-6.73,13.53.84c12.41.76,23.79-4.88,27.69-13.73l2.67-6,13.38,4.3c11.93,3.83,26,1.74,35.12-5.21a13.25,13.25,0,0,1,8-2.52h0a13.22,13.22,0,0,1,8,2.52c9.08,6.95,23.2,9,35.12,5.21h0l13.38-4.3,2.67,6c3.9,8.85,15.29,14.49,27.7,13.73l13.52-.84-.53,6.73c-.65,8.05,6.42,15.49,16.79,17.69l9,1.91-4.15,6.29c-3.86,5.88-2.65,13.18,3,18.16L289,448l-7.53,3.62c-8,3.84-11.94,11.35-9.55,18.26l2.34,6.8-11.32.6c-11.64.61-21.19,7.35-22.69,16l-1.13,6.47-14.25-2.6c-12.6-2.3-25.55,1.76-32.2,10.11a9.29,9.29,0,0,1-5.71,3.09A11.58,11.58,0,0,1,185,510.53Zm-85.53-25.7c13.31,0,26,4.43,34.52,12.21a62.62,62.62,0,0,1,49.26,0c10.49-9.53,27.09-14,43.55-11.53,4.6-9.56,15.48-16.86,28.8-19.18-.25-7.78,3.79-15.3,11.18-20.78a22.18,22.18,0,0,1-3.45-20.09c-10.5-4.23-17.91-11.95-19.93-20.73h-.17c-15.38,0-29.35-6.19-36.82-16-16.14,4.7-34.67,2.3-47.79-6-13.11,8.34-31.65,10.74-47.79,6-7.46,9.84-21.44,16-36.82,16H73.8c-2,8.78-9.43,16.5-19.92,20.73a22.16,22.16,0,0,1-3.46,20.09c7.39,5.48,11.43,13,11.19,20.79,13.32,2.32,24.2,9.61,28.8,19.17A59.74,59.74,0,0,1,99.43,484.83Z"/><path class="cls-5" d="M213.56,449.85c-2,.26-1.48-1.55-1.68-2.62-.32-1.63.9-1.34,1.81-1.43,4.54-.41,7.6-3.18,8-7.27.49-4.54-1.64-8.22-5.56-9.49-.81-.26-1.71-.21-2.54-.43-1-.29-2.9.93-2.89-1.47,0-1.87-1-4,2-4.93,4.34-1.42,6.26-6.18,4.8-10.74-1.36-4.26-5.78-7-9.88-5.58a143.9,143.9,0,0,1-20.26,5.35,7.35,7.35,0,0,0-3.26,1.55c-1.86,1.46-3.85.87-4.75-1.42-1.33-3.43-3.76-5.34-7.29-5.52s-6.56,1.31-7.67,4.77c-1.31,4.06-4.12,6.38-7.1,8.73-.32.26-.54.72-1.08.42-2.76-1.51-5.75-.93-8.65-1-1.2,0-1.76-.42-1.65-1.73.07-.9,0-1.81,0-2.71,0-4.77-2.24-7.71-6.7-8.93H136c-4.44,1.22-6.68,4.18-6.7,9,0,6.94,0,13.88,0,20.82,0,1,.46,2.24-1.45,2.69,0-4.56,0-9,0-13.43,0-10-7-17.11-16.64-16.83-6.91.2-13.6,5.89-14.52,13-1.06,8.22-.71,16.53-.16,24.79a11.16,11.16,0,0,0,2.16,6c1.21,1.6.78,2.86.06,4.38-1.26,2.66-3.52,4.69-4.28,7.64,0,6,2,9.24,6.23,10.38a7.45,7.45,0,0,0,8.28-2.9c1.3-1.64,2.41-3.44,3.76-5.4a10.71,10.71,0,0,0,8.07,6.11c1.76.35,3.27,2.08,4.89,3.19h4.15c3.56-3.45,8-2.91,12.28-2.85,2.08,0,3.23,2.34,5.3,2.38h0l3.7,0h0c3.62-1,5.59-3.6,6.41-7.53a9.06,9.06,0,0,0,7,2.15c.57-.09.92.19,1.16.78,1.07,2.68,3.3,4,5.67,5.1H175c1.4-1,3.13-1.44,4.23-2.9.5-.65,1-.44,1.53,0,2.54,1.88,5.29,1.72,8.15,1,3.66-1,7.34-1.84,11-2.73.89-.21,1.83-.59,2.61.39,1.76,2.22,4.3,3.14,6.69,4.31h4.15c5.57-2.09,7.65-6.88,8.8-12.38.13-.59,0-1.28.54-1.7V455.3C220.77,451.43,217.94,449.29,213.56,449.85Zm-104,7.29a31.72,31.72,0,0,1-5.54,10c-.3.37-.89.48-1.17.62a2.35,2.35,0,0,1-1.93-3.61,61,61,0,0,0,4.65-8.37,2.13,2.13,0,0,1,4,1.4Zm2.28-4.28a9.92,9.92,0,0,1-9.43-9.89c-.09-3.25,0-6.49,0-9.74,0-3.06-.05-6.12,0-9.19.1-5.65,4.14-9.91,9.47-10.06a9.53,9.53,0,0,1,9.86,9.3c.27,6.74.25,13.52,0,20.26A9.62,9.62,0,0,1,111.82,452.86Zm10.9,10.95a2,2,0,0,1-3.62.13,64.14,64.14,0,0,1-3.58-6.24,2.14,2.14,0,0,1,1.79-3.28c2.11.66,2.8,3,3.91,4.83C122,460.59,123.65,461.84,122.72,463.81Zm28.66,1.31c0,1.39-.38,2.59-1.76,2.95a2,2,0,0,1-2.56-1.68c-.29-1-1-.83-1.64-.83h-14c-.82,0-1.45,0-1.62,1.19a1.78,1.78,0,0,1-2.33,1.53,2.13,2.13,0,0,1-1.75-2.33c0-2.16,0-4.33,0-7,.15-2.28-.31-5.08.47-7.84,1.19-4.14,3.52-7.24,7.41-8.77,1.59-.62,2-1.49,2-3.15-.09-8.12,0-16.24-.05-24.36,0-1.45.09-2.87,1.72-3.16s2.53.73,2.53,2.5c0,2.89.1,5.78,0,8.66-.09,1.83.55,2.33,2.21,2.26,3-.12,6,0,9.08,0,1.59,0,3.16.19,3.13,2.27,0,1.91-1.51,2.07-3,2.05-3.2-.05-6.4,0-9.59,0-1.35,0-1.9.46-1.79,1.87a20.74,20.74,0,0,1,0,3.25c-.37,4-.3,7,4.64,8.49,4.58,1.38,6.73,6,7,11.08C151.48,457.72,151.36,461.42,151.38,465.12Zm4.85-28.79a9.5,9.5,0,0,0-1.15,8.07,23.63,23.63,0,0,0-9.4-8.25c3.77-.82,7.07.24,10.19-1.13C157,434.55,156.63,435.71,156.23,436.33Zm8.85,24.86a1.73,1.73,0,0,1-2.2,1.34,1.88,1.88,0,0,1-1.43-2.48c1.14-3.78,2-7.64,2.74-11.51a1.75,1.75,0,0,1,2.26-1.3c1.15.22,1.44,1.13,1.49,2.06A57.19,57.19,0,0,1,165.08,461.19Zm10-16.72c0,6.4,0,12.8,0,19.21,0,.63,0,1.26,0,1.89,0,1.35-.2,2.63-1.85,2.7s-2.17-1.2-2.17-2.69c0-6.31,0-12.63,0-18.94,0-4.2,0-4.18-4-3.64-1.28.17-2.57.3-3.86.36s-2.22-.46-2.28-1.95a1.93,1.93,0,0,1,2-2.27c3.64.15,4-3.42,5.85-5.33.54-.58-.13-.66-.38-.94-1.9-2.09-3.78-4.2-5.67-6.29-.67-.74-1.32-1.48-.91-2.61a1.72,1.72,0,0,1,2.29-1.19c1.22.38,1.52-.51,1.89-1.29,1.14-2.42,2.23-4.87,3.37-7.29.64-1.36,1.42-2.69,3.15-1.73s1.3,2.28.53,3.68a75.6,75.6,0,0,1-4,7.25c-1.37,1.93-1.15,3.25.39,4.71.57.53,1.06,1.16,1.69,1.86a71,71,0,0,0,5.1-8.52c.75-1.36,1.63-2.89,3.4-1.76s.94,2.5.08,3.91c-3.07,5-6.34,9.8-9.91,14.75,3.15.48,5.91-.21,8.81-.42-.05-1.32-.93-2.13-1.38-3.14s-.54-2.09.61-2.8,1.85-.15,2.43.73a54.39,54.39,0,0,1,4.85,8.91c.45,1.06.46,2.22-.76,2.76a2,2,0,0,1-2.71-.9c-.44-.68-.41-1.89-1.65-1.72a30.47,30.47,0,0,0-4.59.72C174.8,442.69,175.13,443.78,175.12,444.47Zm5.71,13.28c-1.05-2.82-1.9-5.71-2.76-8.33,0-1.26.22-2.07,1.27-2.28a1.67,1.67,0,0,1,2.12,1.05c1,2.66,1.92,5.34,2.78,8a1.71,1.71,0,0,1-.93,2.24C182.36,458.86,181.23,458.81,180.83,457.75Zm33.95,7.8c-1.33,2.91-3.51,3.51-6.17,1.88s-3.67-4.22-4.57-7c-2-6.1-2.5-12.49-3-18.85-.13-1.59-.45-2.29-2.08-2.12-2.38.25-5.42-1-7,.5s-.42,4.61-.48,7c-.08,3.79.11,7.58-.06,11.36-.11,2.41.76,2.75,2.72,2.17s3.85-.94,5.79-1.36c1.32-.28,2.55,0,2.86,1.52s-.62,2.33-2,2.66c-4.78,1.17-9.56,2.3-14.33,3.52-1.53.39-2.66-.07-3.06-1.57a2.11,2.11,0,0,1,1.91-2.89c1.89-.16,1.62-1.46,1.62-2.7V422.09c0-4.11,0-4.16,3.72-5a114.51,114.51,0,0,0,17.7-4.86c1.54-.6,2.82-.34,3.34,1.39s-.5,2.5-1.91,2.93a1,1,0,0,0-.24.1c-1.74.73-4.28.44-5.13,2-.75,1.38,0,3.65.08,5.52.07,2.89.11,5.77.13,8.66,0,1.45.58,2.1,2.05,2,1.89-.1,3.8,0,5.7,0,1.65,0,3.37.26,3.32,2.44-.06,2-1.64,2.24-3.24,2.2-2,0-4,0-6,0-1.15,0-1.55.43-1.41,1.59.71,6,.92,12,2.88,17.79.09.26.14.53.24.77.68,1.55,1.22,3.81,3,3.62s1.29-2.59,1.61-4.06c.24-1,.14-2.2,1.23-2.79,1.4-.76,2.48.18,2.42,2.58A20.53,20.53,0,0,1,214.78,465.55Z"/><path class="cls-5" d="M200.41,427.45h0c-.11-2.15-.23-4.3-.34-6.46,0-.7,0-1.6-1-1.41-2.28.42-4.55.91-6.81,1.43-.9.21-.76,1.09-.76,1.78,0,2.16,0,4.32,0,6.48,0,5.6,0,5.61,5.4,5.6,4.49,0,3.57.19,3.58-3.64Z"/><path class="cls-5" d="M142.46,446.6a7.79,7.79,0,0,0-8.8.51c-3.23,2.22-5.53,9.16-3.56,13.19,1.15,2.37,4.37.48,6.62.94a8,8,0,0,0,1.55,0h2.33c6.62,0,6.64,0,6.36-7A8.61,8.61,0,0,0,142.46,446.6Zm-4.09,8.25c-.67-.49-2.12.67-2.12-1a1.91,1.91,0,0,1,2.12-1.87c1.28,0,2.36.61,2.28,2C140.55,455.51,139.13,454.38,138.37,454.85Z"/><path class="cls-5" d="M111.88,437.29c2.14.08,4.25,0,5.25-2.46a3.75,3.75,0,0,0-1.15-4.58c-1.67-1.4-6.57-1.33-8.08.16a3.77,3.77,0,0,0-.87,4.64C108.05,437.2,109.93,437.35,111.88,437.29Zm-.67-4.15c0-.6.31-1,.92-1s.6.71.65,1.22-.16,1.09-.88.94S111.17,433.71,111.21,433.14Z"/><path class="cls-5" d="M108.46,425a8.82,8.82,0,0,0,7,.1,3.4,3.4,0,0,0,1.93-4,3.63,3.63,0,0,0-3.07-3.17,12.87,12.87,0,0,0-2.06,0h0a15.74,15.74,0,0,0-2.57,0,3.65,3.65,0,0,0-3,3.24A3.36,3.36,0,0,0,108.46,425ZM112,420.6c.67,0,.71.6.72,1.15s-.08,1.1-.78,1.05-.78-.56-.77-1.13S111.43,420.59,112,420.6Z"/><path class="cls-5" d="M115.83,441.71c-1.64-1.33-6.71-1-8.06.47a3.76,3.76,0,0,0-.36,5.12c1.09,1.64,2.75,1.65,4.52,1.56,2,.17,4,.09,5.06-2.14A3.83,3.83,0,0,0,115.83,441.71ZM112,446.22c-.75,0-.84-.72-.84-1.39s.31-1,.92-1,.63.69.66,1.2S112.7,446.26,112,446.22Z"/><rect class="cls-4" x="193.87" y="175.12" width="260.24" height="175.12" rx="87.56"/><path class="cls-5" d="M403,238.26q-.15,0-.27-.36c-1.92-5.66-5.1-8-11-8-2.1,0-4.21-.1-6.3,0-4,.24-6.83.1-9.06-4.69-3.38-7.29-14.26-6.84-18.13.29-1.37,2.53-2,1.77-3.52.38-2.74-2.45-5.1-5.62-9.23-6-.28-.06-.42-.13-.43-.23H339l0,0-.53.16a9.49,9.49,0,0,0-7.08,5.46,51.82,51.82,0,0,1-10.25,13.79c-5,4.83-5,11.28.12,16a4.13,4.13,0,0,1,1.51,3.41c0,7.2-.13,14.4,0,21.59.06,2.81-2.34,3.67-3.91,5.49V269.09c0-8.1-2-10.9-9.82-13.5,3.67-5,5.45-10.43,4.26-16.67a19.39,19.39,0,0,0-18.52-15.64c-8.66-.06-17.33-.11-26,0-8.22.12-14.26,4.07-17.53,11.51s-2.22,14.8,3.42,20.92c1.95,2.11,1.56,2.77-.56,4.2a19.85,19.85,0,0,0-8.95,14.47c-.07.28-.16.41-.27.41V290.5a2.44,2.44,0,0,0,0,.27q.18,0,.27.42c1.42,5.41,6,8.89,11.1,8.46a10.94,10.94,0,0,0,10.08-10.47c.16-2.64,0-5.3.06-7.94a4.11,4.11,0,0,1,.93-3.08,2.68,2.68,0,0,1,2.37-1c1.35.24.8,1.39.81,2.15.06,4.41,0,8.82,0,13.24,0,7,2.35,10.28,9,12.42.43.14.85.2,1,.69H282c4-1.53,8.1-2.89,9.75-7.48.4-1.12,1.22-.56,1.93-.33,4.8,1.55,9.65.81,14.45.15a12.89,12.89,0,0,0,10-7.18c2.07,9,7.12,12,15.71,9.65,1.6-.44,3.21-.84,4.79-1.32,3.76-1.12,7-2.16,11,.8,4.51,3.35,10.9.8,13.88-4.27.45-.76.4-2.25,1.81-1.94,1.22.28.52,1.48.68,2.25,1.07,5.14,4.3,8,9.33,9.12,7.06-.4,9.82-2.59,11.56-9.49.37-1.49,1.06-1.8,2.48-1.94,7.92-.82,12-5.14,12.09-13,.13-8.29,0-16.59.07-24.88,0-2.69-2.1-4.92-1.89-7.15s3.07-3.92,3.13-6.68c.05-.26.12-.4.21-.41Zm-91.79,47.42a3.92,3.92,0,0,1-2.2,3.85,22.7,22.7,0,0,1-11.74,1.23c-1.38-.17-2-1.33-1.86-2.73a2.17,2.17,0,0,1,2.35-2.25c1.66,0,3.33-.07,5,0,2,.09,2.72-.8,2.66-2.79-.12-3.87-.12-7.75,0-11.62.06-1.77-.54-2.28-2.27-2.25-5.33.1-10.67.15-16,0-2.21-.06-2.54.82-2.51,2.71.09,7,0,14,0,20.93,0,2.29-.27,4.46-3.19,4.38-2.76-.07-2.84-2.23-2.84-4.34,0-6.87-.11-13.74.08-20.6.07-2.57-.76-3.3-3.2-3.06-2.86.28-5.76-.28-8.6.57a11.11,11.11,0,0,0-8.22,10.46c-.08,2.54-.05,5.09,0,7.64,0,2.12-.54,3.9-3,3.87-2.23,0-2.94-1.69-2.89-3.68.13-4.31-.55-8.67.33-12.92,1.48-7.08,6.75-11.22,14-11.28,3,0,6-.07,9,0,1.75.05,2.54-.35,2.61-2.35.25-7,.33-7-6.78-7-8,0-12.33-2.82-14-9.06-1.77-6.59,3-13.64,9.82-14.11,4.64-.31,9.32-.06,14-.06v-.1c4,0,8,0,12,0,7.05.07,12.11,4.74,12.27,11.27s-5,11.76-12,12c-2.44.09-4.89.06-7.33,0-1.33,0-2.16.31-2,1.84a3.75,3.75,0,0,1,0,.67c-.21,6.85-.21,6.84,6.64,6.85,5.43,0,10.87.12,16.3,0,2.42-.05,3.6,1,3.63,3.26Q311.29,276.38,311.17,285.68Zm44.17,7.38a2.63,2.63,0,0,1-4-1.74c-.92-3.16-2.64-3.25-5.44-2.34-5,1.65-10.24,2.81-15.32,4.32-1.93.58-3.35.29-4.07-1.59-.8-2,.51-3.34,2.26-3.63,2.16-.35,1.9-1.69,1.9-3.11q0-16.1,0-32.21c0-1.43.13-2.87.21-4.3h0a12.82,12.82,0,0,1-3,1.28c-1,.17-1.83-.62-2.3-1.59a2.39,2.39,0,0,1,.66-3,62.08,62.08,0,0,0,12.11-16.09c1.24-2.28,5.23-2.49,7.59-.47a74,74,0,0,1,9.46,9.76c1.2,1.49,1.76,3,0,4.3s-3.34.61-4.55-1a54.15,54.15,0,0,0-8.14-9,83.55,83.55,0,0,1-10.56,14c-.22.22-.07.8-.09,1.21,1.92-.74,3.93-.48,5.88-.42s3-.45,2.63-2.57a8.83,8.83,0,0,1,0-2,2.36,2.36,0,0,1,2.58-2.44,2.13,2.13,0,0,1,2.29,2.34c-.54,3.55,1.33,5,4.16,6.69,4.89,2.85,5.3,8.44,3.89,15.66-.9,4.62-5.41,7.25-11,7.31-6.64.07-6.65.07-6.65,6.81,0,7.14,0,7.13,6.86,5.42,1.39-.34,2.8-.66,4.22-1-.12-1.58-1.26-2.58-1.92-3.82-.75-1.4-.94-2.87.52-3.83s2.74-.36,3.7,1a70.49,70.49,0,0,1,6.94,12.06C357,290.57,357.16,292.21,355.34,293.06Zm35.35-50c-3.11,0-6.22.06-9.32,0-1.55,0-2.06.49-2.15,2.08-.46,7.48-.51,7.52,6.92,7.57,1.53,0,3,.47,4.58.25,2-.29,3,1.32,3,3.16,0,8.42.15,16.83-.1,25.23-.12,3.71-5.29,6.15-8.66,4.46a2.07,2.07,0,0,1-1.21-2.16c.07-1.2.67-2.39,1.92-2.32,2.63.13,2.41-1.48,2.4-3.2,0-5.76-.11-11.52,0-17.27.06-2.33-.65-3-3-3-5.87.09-5.87,0-5.87,5.67v13.61c0,5.2,0,10.41,0,15.61,0,2,.05,4.31-2.83,4.3s-2.5-2.26-2.5-4.14c0-10.4,0-20.8,0-31.21,0-.8.5-1.89-.5-2.39s-1.7.33-2.39.8a12.39,12.39,0,0,0-5.67,10.32c-.1,4,0,8,0,12,0,1.84-.3,3.43-2.57,3.45S360,284.36,360,282.5c.23-6-.71-12,.51-17.87s5.17-9.7,11-11.23c2-.51,2.63-1.23,2.4-3.08a15.32,15.32,0,0,1,0-1.66c0-5.73-1.26-6.7-6.94-5.62-1.28.24-1.47,1.14-2,2-1.39,2.39-2.82,4.76-4.19,7.15-.91,1.6-2.19,2.3-3.84,1.3s-2.25-2.55-1.07-4.23c4.05-5.78,6.6-12.22,8.63-18.91.58-1.9,1.9-2.78,3.8-2.21s1.95,2.07,1.69,3.78-2.26,3.91-1,5.19,4,.45,6.1.48c5.21.08,10.43,0,15.65,0,2,0,4.19.24,4.23,2.65C395.09,242.88,392.82,243.1,390.69,243.07Z"/><path class="cls-5" d="M330.93,248.46l1.25-.65C331.43,247.37,331.15,247.87,330.93,248.46Z"/><path class="cls-5" d="M299.56,242.79c.05-3.6-2.42-6.11-6.29-6.2s-7.75,0-11.63,0-7.75-.06-11.62,0-6.5,2.56-6.59,6,2.57,6.07,6.4,6.12q11.79.12,23.58,0C297.16,248.68,299.52,246.28,299.56,242.79Z"/><path class="cls-5" d="M342.19,257.81h-2.65c-3.43,0-4.52-1.5-3.56-4.85a1.37,1.37,0,0,1,.69-1c3-1.52,9.52.65,11.25,3.68,1,1.74.49,2.33-1.43,2.19C345.06,257.73,343.62,257.81,342.19,257.81Z"/><path class="cls-5" d="M348.48,261.84c-1.39,4.79-8.07,8.07-11.79,5.86-1.59-.94-.45-2.85-.69-4.29-.18-1.11.38-1.64,1.53-1.57.66,0,1.33,0,2,0Z"/><path class="cls-5" d="M478.11,350.25,319.52,700.5H562.4c34.81,0,58-36,43.65-67.68Z"/><polygon class="cls-4" points="478.11 344.91 420.43 478.1 535.78 478.1 478.11 344.91"/><path class="cls-5" d="M302.08,593.79v-5.38c-1.89-4.3-5.05-6.32-9.7-6-2.59.19-5.2,0-7.8.06-1.24,0-1.79-.36-2.15-1.63a8,8,0,0,0-7.54-6.3,7.82,7.82,0,0,0-8.05,4.78c-.93,2-1.42,1-2.27.17-2.2-2.12-4.13-4.65-7.39-5.16h-5.33a8,8,0,0,0-6,5,35.22,35.22,0,0,1-6.71,9.6c-.84-2.14-1.81-3.95-3.65-5-.82-.47-.88-1.27-1.14-2-1.65-4.52-5.11-6.55-9.63-5.59-.8.17-1.54.38-2.18-.29-1.27-1.31-3.19-1.15-4.6-2.15h-.52a20.51,20.51,0,0,1-12.55,2.77,8.78,8.78,0,0,0-6.48,1.48c-.93.71-1.35.12-1.92-.49-2.65-2.83-5.85-3.55-9.29-1.95a8,8,0,0,0-4.83,8.16c.09,1.83-.17,3.06-2.08,4a7.08,7.08,0,0,0-3.74,6.08,38,38,0,0,1-2.07,9.92c-1.8,4.9.52,9.49,5.43,10.89,1.46.42,1.47,1,1.17,2.28a33.14,33.14,0,0,1-5.49,11.75,8.67,8.67,0,0,0,1.81,11.75,7.91,7.91,0,0,0,11.21-1.26c1-1.19,1.92-2.51,3-3.89,1.65,4.84,4.94,6.65,9.67,6.59,9.84-.13,19.68-.06,29.52,0,2.7,0,5.23-.41,7.12-2.61a1.26,1.26,0,0,1,2-.27c2.54,1.72,5.24,1.61,8,.68,1.24-.42,2.52-.68,3.76-1.08,3-1,5.71-1.78,8.9.66,3.41,2.61,8.41.54,10.72-3.46.37-.63.37-1.82,1.4-1.64s.55,1.32.67,2c.58,3.53,3,5.46,5.78,7h4.7c3.14-1.66,5.66-3.81,5.88-7.78.07-1.29.94-1.23,1.83-1.34,6.54-.78,9.57-4.25,9.58-11,0-6.08,0-12.16,0-18.24,0-2.26,0-4.48-1.38-6.4a1.12,1.12,0,0,1,.07-1.61C300.61,596,301.32,594.85,302.08,593.79ZM203.48,583c2.78,0,5.56,0,8.35,0,2.33.06,3.19,1.34,2.35,3.8A35.34,35.34,0,0,1,209.05,597h0c1.58,1,3.33.41,5,.48,3,.13,6.08.08,9.12.1a1.15,1.15,0,0,1,.46-.16,48.91,48.91,0,0,1-7.3-13.22c-.46-1.24-.91-2.54.59-3.23s2.36.47,2.89,1.82c0,.08.06.16.1.25,1.55,3.65,1.55,3.65,4.44.8a8.21,8.21,0,0,1,1-.9c1-.69,2-.84,2.75.23a1.78,1.78,0,0,1-.41,2.6c-.89.72-1.77,1.45-2.67,2.14-1.94,1.5-1.94,2.88-.08,4.54.65.58,1,.3,1.53-.13,1.14-1,2.28-1.94,3.45-2.87a1.75,1.75,0,0,1,2.74.32c.78,1,.37,1.86-.47,2.54a17.11,17.11,0,0,1-2.78,2c-1.91,1-1.62,1.89-.16,3,1.26,1,2.44,2,3.72,2.94s2.07,2.31,1.05,3.85-2.28.79-3.37-.09c-2-1.59-3.92-3.19-5.87-4.79-.1,1.71-1.11,2.26-2.62,2.25-4,0-8-.12-12,.06-1.63.07-2.11-1.34-3.22-1.87a27.39,27.39,0,0,1-6.9,6.43c-1,.69-2,1-2.72-.18a2,2,0,0,1,.52-3,43,43,0,0,0,6.09-5.44c1.1-1.14,1-1.88-.15-2.77a17.23,17.23,0,0,1-2-1.75,1.69,1.69,0,0,1-.12-2.42,1.59,1.59,0,0,1,2.32-.34c1.14.75,2.18,1.66,3.34,2.36.28.17,1.89-3.24,2.59-5.73-2.2,0-4.33,0-6.46,0-1.29,0-2.32-.39-2.33-1.88S202.18,583,203.48,583Zm19.11,37.07c-2.17.12-4.35,0-6.53,0-2,0-4,.06-6,0a6.81,6.81,0,0,1-6.76-6.73c-.11-4,2.47-7.14,6.4-7.29,4.34-.16,8.7-.17,13,0,3.69.15,6.21,3.12,6.21,6.9A6.76,6.76,0,0,1,222.59,620.11Zm3.18,3.35a18.74,18.74,0,0,1-3,7c-.21.31-.73.39-1,.55-1.6-.16-2.43-1-2-2.51a47.59,47.59,0,0,1,2.14-6,1.92,1.92,0,0,1,2.37-1.17A1.87,1.87,0,0,1,225.77,623.46ZM211,630.65a1.81,1.81,0,0,1-2.39-1.08,46.81,46.81,0,0,1-2.08-5.74,1.79,1.79,0,0,1,1.19-2.14,1.67,1.67,0,0,1,2.28.69,19.77,19.77,0,0,1,2.27,5.78C212.42,629.66,211.89,630.31,211,630.65ZM193.23,599.2c1.07-2.43,2-4.92,3.05-7.38.51-1.23,1.39-1.91,2.67-1.3s1.42,1.67.79,2.92c-1.2,2.37-2.36,4.77-3.55,7.15a2,2,0,0,1-1.74,1.21C193.51,601.25,192.55,600.76,193.23,599.2Zm-12.94,6.54a29.56,29.56,0,0,0,2.21-10.34c0-1.24.43-2.46,1.87-2.38s1.69,1.29,1.54,2.57c-.41,3.88-.68,7.79-2.38,11.39-.47,1-1,2.1-2.26,1.61S179.77,607,180.29,605.74Zm15,21.18c-1.33-2-2.72-3.9-4.3-6.15-1.39,4.43-2.77,8.46-5.27,12-.46.64-.92,1.29-1.4,1.92-.84,1.11-1.9,1.78-3.11.76s-1.08-2.5-.08-3.78A34,34,0,0,0,187.53,616c1-5.76.87-11.6.86-17.42,0-4.66,0-9.32,0-14,0-1.55.06-3.29,2.24-3.16s1.83,1.82,1.8,3.22c-.19,9.94.55,19.9-.58,29.81a3,3,0,0,0,.89,2.38c2,2.49,3.94,5,5.9,7.52.92,1.19,1.7,2.55.22,3.75S196.19,628.3,195.25,626.92Zm35.5,8.77c-5.05,0-10.11,0-15.16,0s-9.92,0-14.89,0c-1.54,0-3-.35-3-2.18s1.48-2,2.88-2h30.31c1.5,0,3,.26,3,2.15S232.25,635.7,230.75,635.69Zm8.58-11.93c0,2.28-1.87,3.24-4,2.28-1.54-.7-4.08-.28-3.36-3.43a6.45,6.45,0,0,1,1-2.1,10.78,10.78,0,0,0,2.06-6.23c-.13-2.42.49-4,2.65-5,.45-.21.77-.71,1.6-1.51C239.36,613.45,239.42,618.6,239.33,623.76Zm25.42,10a1.9,1.9,0,0,1-2.78-1.18c-.87-3.29-2.75-2.84-5.15-2-3.79,1.27-7.67,2.24-11.5,3.39-1.53.46-2.66,0-3.09-1.52a2.07,2.07,0,0,1,1.8-2.74c1.7-.3,1.62-1.4,1.62-2.68q0-13.19,0-26.35c0-1.06.16-2.13.25-3.19h0a13.58,13.58,0,0,0-1.34.76,1.71,1.71,0,0,1-2.55-.3,2,2,0,0,1,0-2.88,51.37,51.37,0,0,0,9.77-13.44c.75-1.43,3.77-1.62,5.4-.35a47.9,47.9,0,0,1,8.15,8.61,2,2,0,0,1-.33,3,2.18,2.18,0,0,1-3.23-.49q-2.79-3.36-5.56-6.73c-.75-.91-1.27-.93-1.89.22-2.14,3.9-5.06,7.21-7.79,10.66,1.88.6,3.76-.13,5.64,0,1.08.1,1.3-.59,1.26-1.52,0-.72,0-1.44,0-2.15A1.77,1.77,0,0,1,255.3,591c1.12,0,2,.59,1.86,1.74-.43,3,1,4.31,3.41,5.57,2.23,1.16,3.3,3.6,3.35,6.3,0,1.08,0,2.15,0,3.23,0,5.42-3.34,8.91-8.56,9-5.63.11-5.63.11-5.63,5.9v5.37l8.88-2.23c-.74-1.29-1.41-2.33-1.95-3.44a1.93,1.93,0,0,1,.56-2.63,1.87,1.87,0,0,1,2.77.53,52.07,52.07,0,0,1,5.8,10.46A2,2,0,0,1,264.75,633.72ZM293,593.18c-2.53,0-5.05.06-7.57,0-1.4,0-1.73.52-1.79,1.87-.25,5.91-.29,5.91,5.35,6,5.93.12,5.93.12,5.93,6.23,0,5.1-.09,10.21,0,15.31s-1.91,5.1-5.56,5.44a1.9,1.9,0,0,1-2.24-1.76,1.82,1.82,0,0,1,1.8-2.18c1.7,0,1.7-1,1.69-2.23,0-4.84-.08-9.67,0-14.51,0-1.63-.44-2.18-2.06-2.14-6,.16-4.81-.69-4.91,4.85-.06,3.58,0,7.17,0,10.75v12.9c0,1.63-.18,3.23-2.26,3.18-1.92,0-2-1.61-2-3.11,0-8.42,0-16.84,0-25.26,0-.75.38-1.78-.47-2.16s-1.45.43-2,.9a9.8,9.8,0,0,0-4,8q0,4.43,0,8.87c0,1.62.19,3.55-2,3.63s-2.12-1.84-2.11-3.48c0-3.49,0-7,0-10.48,0-6.06,3.08-10.57,8.67-12.19,1.78-.51,2.22-1.33,2-3,0-.35,0-.71,0-1.07-.15-5,1-4.32-4.5-4.45a2.34,2.34,0,0,0-2.39,1.58c-1.05,2-2.23,4-3.37,6a2,2,0,0,1-2.92.83,2.24,2.24,0,0,1-.9-3.24,58.23,58.23,0,0,0,7-15.79,2.06,2.06,0,0,1,2.65-1.57c1.42.4,1.83,1.52,1.59,2.94l-.09.53c-.28,1.37-1.66,3-.83,4s2.79.34,4.24.35c4.44.06,8.88,0,13.32,0,1.51,0,3,.21,2.9,2.17C295.9,592.77,294.52,593.19,293,593.18Z"/><path class="cls-5" d="M250.61,613.12c3.63,1.21,7.4-.69,9.1-4.8h-2.56c-2,0-4,0-6,0-1.2,0-1.61.57-1.4,1.62S248.93,612.57,250.61,613.12Z"/><path class="cls-5" d="M249.76,603.49c-.21,1,.18,1.64,1.38,1.62,2.76-.07,5.51,0,8.53,0-1.59-3.94-5.55-5.94-9.06-4.79C248.93,600.85,250,602.41,249.76,603.49Z"/><path class="cls-5" d="M221.46,609.86c-3.55,0-7.11,0-10.66,0-2.08,0-3.31,1-3.36,3.19s1.2,3.25,3.23,3.34c1.73.08,3.47,0,5.2,0,1.91,0,3.82.07,5.72,0a3,3,0,0,0,3.12-3.21A2.94,2.94,0,0,0,221.46,609.86Z"/><circle class="cls-5" cx="557.4" cy="87.56" r="77.36"/><polygon class="cls-4" points="398.81 40.88 444.89 16.66 436.09 67.97 473.37 104.3 421.85 111.79 398.81 158.47 375.78 111.79 324.26 104.3 361.54 67.97 352.74 16.66 398.81 40.88"/></g></g></svg>