<svg id="圖層_1" data-name="圖層 1" xmlns="http://www.w3.org/2000/svg" viewBox="0 0 226.52 224.8"><defs><style>.cls-1{fill:#fe7676;}.cls-2{fill:#fbe28a;}.cls-3{fill:#fbe289;}.cls-4{fill:#fefcf6;}.cls-5{fill:#e0e393;}.cls-6{fill:#b6e4a1;}.cls-7{fill:#fef6f6;}.cls-8{fill:#474d8e;}.cls-9{fill:#21e9d5;}.cls-10{fill:#fda07e;}.cls-11{fill:#fdf1c7;}.cls-12{fill:#fcedb6;}.cls-13{fill:#feefef;}.cls-14{fill:#fcefc0;}.cls-15{fill:#fefbf1;}.cls-16{fill:#fe897e;}.cls-17{fill:#fdd5b1;}.cls-18{fill:#fceebb;}.cls-19{fill:#febbbb;}.cls-20{fill:#80dcb2;}.cls-21{fill:#feb2b2;}.cls-22{fill:#fec1c1;}.cls-23{fill:#fceebc;}.cls-24{fill:#fea9a9;}.cls-25{fill:#fdf0c5;}.cls-26{fill:#feb5b5;}.cls-27{fill:#94e5ad;}.cls-28{fill:#fea3a3;}.cls-29{fill:#92e5ae;}.cls-30{fill:#89e6b1;}.cls-31{fill:#fec6c6;}.cls-32{fill:#9de5aa;}.cls-33{fill:#fdf2ce;}.cls-34{fill:#fcebaf;}.cls-35{fill:#8eb2a6;}.cls-36{fill:#feafaf;}.cls-37{fill:#99e5ab;}.cls-38{fill:#feb9b9;}.cls-39{fill:#a1e5a9;}.cls-40{fill:#fe9f9f;}.cls-41{fill:#a6e5a7;}.cls-42{fill:#f99c7e;}.cls-43{fill:#fa977d;}.cls-44{fill:#fb8d7b;}.cls-45{fill:#fb927c;}.cls-46{fill:#f0e18d;}.cls-47{fill:#f5e18b;}.cls-48{fill:#b4bed4;}.cls-49{fill:#474e8e;}.cls-50{fill:#f7e28b;}.cls-51{fill:#28e8d2;}.cls-52{fill:#7d8cae;}.cls-53{fill:#6481ca;}.cls-54{fill:#9aafe3;}.cls-55{fill:#fd9a7c;}.cls-56{fill:#fc9e7d;}.cls-57{fill:#f6e28c;}.cls-58{fill:#e3d68f;}.cls-59{fill:#e3db90;}.cls-60{fill:#e4de90;}.cls-61{fill:#e7d48e;}.cls-62{fill:#f3ae83;}.cls-63{fill:#f6a681;}.cls-64{fill:#f1b585;}.cls-65{fill:#efbc87;}.cls-66{fill:#f8a280;}.cls-67{fill:#f0b085;}.cls-68{fill:#ecc089;}.cls-69{fill:#78dbb5;}.cls-70{fill:#7889af;}.cls-71{fill:#ead28c;}.cls-72{fill:#ecd78c;}.cls-73{fill:#a6a89c;}.cls-74{fill:#798aaf;}.cls-75{fill:#ded0ee;}.cls-76{fill:#b7a296;}.cls-77{fill:#e8cf8c;}.cls-78{fill:#84b8ab;}.cls-79{fill:#f7b583;}.cls-80{fill:#f9a780;}.cls-81{fill:#f9ac80;}.cls-82{fill:#fccc8f;}.cls-83{fill:#eee290;}.cls-84{fill:#eace8c;}.cls-85{fill:#eec488;}.cls-86{fill:#ecc98a;}.cls-87{fill:#f3bf86;}.cls-88{fill:#ebdf8e;}.cls-89{fill:#88ddb0;}.cls-90{fill:#9daca0;}.cls-91{fill:#9cd9a8;}.cls-92{fill:#bb94ce;}.cls-93{fill:#91dbac;}.cls-94{fill:#96afa3;}.cls-95{fill:#6281b5;}.cls-96{fill:#c3b7e0;}.cls-97{fill:#baafda;}.cls-98{fill:#b2a8d6;}.cls-99{fill:#a8a0d0;}.cls-100{fill:#decdf0;}.cls-101{fill:#d6c7eb;}.cls-102{fill:#cfc1e7;}.cls-103{fill:#c9bce3;}.cls-104{fill:#f0dcfa;}.cls-105{fill:#e9d6f6;}.cls-106{fill:#e3d1f3;}.cls-107{fill:#efde8c;}.cls-108{fill:#ecdc8d;}.cls-109{fill:#e7d68e;}.cls-110{fill:#ead98e;}.cls-111{fill:#9bb0e5;}.cls-112{fill:#6681c7;}.cls-113{fill:#bcc5f5;}.cls-114{fill:#9cb1e5;}.cls-115{fill:#e7de8f;}.cls-116{fill:#eddf8e;}.cls-117{fill:#f2e08c;}.cls-118{fill:#778aaf;}.cls-119{fill:#b2bdd5;}.cls-120{fill:#b4bed5;}.cls-121{fill:#9bb0e6;}.cls-122{fill:#bac4f7;}.cls-123{fill:#fba57f;}.cls-124{fill:#e4d28e;}.cls-125{fill:#e4da8f;}.cls-126{fill:#ba93cf;}.cls-127{fill:#dfd1ef;}.cls-128{fill:#464d8e;}.cls-129{fill:#eeb786;}.cls-130{fill:#a19acb;}.cls-131{fill:#eac38a;}.cls-132{fill:#edc489;}.cls-133{fill:#e8cb8c;}.cls-134{fill:#e5cf8e;}.cls-135{fill:#ded0ed;}.cls-136{fill:#ddcfe6;}.cls-137{fill:#ebcd8b;}.cls-138{fill:#f5bb85;}.cls-139{fill:#eac78a;}.cls-140{fill:#e6cc8d;}.cls-141{fill:#e9c78b;}.cls-142{fill:#a099cb;}.cls-143{fill:#c0b4de;}.cls-144{fill:#b3a9d6;}.cls-145{fill:#a79fcf;}.cls-146{fill:#cdbfe5;}.cls-147{fill:#b7add9;}.cls-148{fill:#e2d1f2;}.cls-149{fill:#cabce4;}.cls-150{fill:#ba93d0;}.cls-151{fill:#bc96cd;}.cls-152{fill:#e5d88f;}.cls-153{fill:#8885bd;}.cls-154{fill:#807eb8;}.cls-155{fill:#7776b2;}.cls-156{fill:#6d6eac;}.cls-157{fill:#948fc4;}.cls-158{fill:#8f8bc1;}.cls-159{fill:#e4d38f;}.cls-160{fill:#7884ae;}.cls-161{fill:#e5ce8d;}.cls-162{fill:#e7c88c;}.cls-163{fill:#ecb887;}.cls-164{fill:#e9c38a;}.cls-165{fill:#7885ae;}.cls-166{fill:#e9c089;}.cls-167{fill:#8f8ac1;}.cls-168{fill:#6264a4;}.cls-169{fill:#b1b9d4;}.cls-170{fill:#8784bc;}.cls-171{fill:#ba93ce;}.cls-172{fill:#ddd0f0;}.cls-173{fill:#dcceec;}.cls-174{fill:#7a88b0;}.cls-175{fill:#818caf;}.cls-176{fill:#9ba4c6;}.cls-177{fill:#c5b9a2;}.cls-178{fill:#9a94c8;}.cls-179{fill:#bc95cd;}.cls-180{fill:#9993c7;}.cls-181{fill:#928dc3;}.cls-182{fill:#9aaee8;}.cls-183{fill:#9aaded;}.cls-184{fill:#bbc4f8;}.cls-185{fill:#6480c9;}.cls-186{fill:#9aadeb;}.cls-187{fill:#6681c8;}.cls-188{fill:#585c9c;}.cls-189{fill:#dcceed;}.cls-190{fill:#d7cae9;}.cls-191{fill:#e6c98c;}.cls-192{fill:#7985ae;}.cls-193{fill:#7280c9;}.cls-194{fill:#dbcdec;}.cls-195{fill:#bac3f7;}.cls-196{fill:#ded0eb;}.cls-197{fill:#b2b6d3;}.cls-198{fill:#e7b98b;}.cls-199{fill:#aeb1ee;}.cls-200{fill:#9bafe5;}.cls-201{fill:#7a84ae;}.cls-202{fill:#b2b7d4;}.cls-203{fill:#9baee5;}.cls-204{fill:#b2b7d2;}.cls-205{fill:#8d92b2;}</style></defs><title>logo</title><path class="cls-1" d="M122.5,9.16c7.29-2.74,14.65-5.3,22.59-5a44.51,44.51,0,0,1,33.84,16.46c.54.64,1.12,1.26,1.68,1.88,3,2.61,4,6.46,5.78,9.8.36.67.59,1.41.9,2.11.84,2.5,1.66,5,2.53,7.51.29,1.24,1,2.38.81,3.73-.84,1.34-1.74.36-2.47,0-3.34-1.87-6.81-3.5-10.15-5.38-4.45-2.47-9-4.82-13.49-7.17-4.15-2.38-8.42-4.52-12.64-6.75-4.72-2.62-9.49-5.16-14.32-7.58-4.29-2.53-8.8-4.64-13.17-7a7.78,7.78,0,0,1-2-1.19C122,10,121.72,9.55,122.5,9.16Z" transform="translate(-0.28 -0.21)"/><path class="cls-2" d="M168.5,208.58a48.54,48.54,0,0,1-14,11.27A44.81,44.81,0,0,1,132.27,225a46.42,46.42,0,0,1-22.12-6.57c-1.69-1-3.49-1.77-5.24-2.65a23.83,23.83,0,0,1-5.71-2.62c-3.25-1.8-6.64-3.33-9.78-5.33-.5-.32-2-.69-.43-1.69a13.22,13.22,0,0,1,4.16-.2c8,.53,16,.49,24,.91,1.5.18,1.76,1.42,2.14,2.54a34,34,0,0,0,6.17,11.4,2.1,2.1,0,0,0,3.25.45c1.29-.89,1.3-1.59.26-2.65a25.52,25.52,0,0,1-4.72-7.42,4.16,4.16,0,0,1-.48-2.64c.24-.91.94-1.16,1.75-1.25a8.88,8.88,0,0,1,2.52,0,24.75,24.75,0,0,0,12-1,3.07,3.07,0,0,1,3.19.38,3,3,0,0,1-.08,2.41,5.42,5.42,0,0,0-.31,2.19c.22.33-.64,1.6.78.88a3.26,3.26,0,0,0,1.94-2.74c.42-3.39.8-6.78,1-10.19.2-.59.33-1.22,1-1.53,1,0,1.24.95,1.86,1.42,2,1.14,4.09,2.11,6,3.36,1.55,1,2.89,1.14,4.38,0,1-.79,2.44-1.11,2.93-2.52a2.31,2.31,0,0,1,1.87-1.47c3-.84,6-1.68,9-2.5.72-.2,1.5-.45,2.11.29.16,1.71-.73,3.09-1.5,4.47a44.13,44.13,0,0,1-3.13,5.19A10.2,10.2,0,0,1,168.5,208.58Z" transform="translate(-0.28 -0.21)"/><path class="cls-3" d="M22.73,45.27c5.85-15.41,17-24.7,32.9-28.59.81-.19,1.64-.32,2.47-.48,2.88-1.64,6-.93,9-.85,1.62.54,3.31.23,5,.35a2.45,2.45,0,0,1,1,.26c1,1,.08,1.66-.49,2.29a75.38,75.38,0,0,1-6.21,5.64c-1.63,1.43-3.13,3-4.87,4.31a5.81,5.81,0,0,0-1.68,2.39c-2.39,1.46-5.15,2-7.72,3-1.86.75-3.81,1.3-5.71,2-3.53,1.1-7,2.31-10.52,3.49a50.2,50.2,0,0,0-10.7,5.21C24.31,44.51,23.79,45.54,22.73,45.27Z" transform="translate(-0.28 -0.21)"/><path class="cls-4" d="M73.25,16.23h-.8c-1.66-.53-3.41.1-5.07-.34a47.18,47.18,0,0,0-9.28.31c2.68-4.06,6.24-7.74,10.59-9.2C76.89,4.23,85.18,1.31,93.87.33,99-.24,104,1.27,108.76,3.09a23.82,23.82,0,0,1,6.17,3.05,4.6,4.6,0,0,1-2.62,1.23q-14.18,4-28.33,8a15.3,15.3,0,0,0-3.1,1.27C78.31,16.84,75.73,17.47,73.25,16.23Z" transform="translate(-0.28 -0.21)"/><path class="cls-5" d="M17,168.26l-.14-.44a6.32,6.32,0,0,1-1-3A99.47,99.47,0,0,1,16,152.29a33.76,33.76,0,0,0,.24-5c-.37-3.79.76-7.53.43-11.32,0-2.76-.28-5.54.69-8.22,1.46-.86,1.37.61,1.61,1.21,1.38,3.49,2.57,7.05,3.73,10.62.13.4.26.8.41,1.19.63,2.17,1.41,4.3,2.21,6.41,1.74,5.83,4,11.49,5.83,17.27,1.18,3.43,2.41,6.85,3.52,10.31.35,1.11.91,2.22.51,3.45-.91.71-1.6-.06-2.36-.34-2.41-1.68-5.22-2.63-7.7-4.18-1.63-1.09-3.5-1.73-5.12-2.84A14.22,14.22,0,0,1,17,168.26Z" transform="translate(-0.28 -0.21)"/><path class="cls-6" d="M208.9,56.67l.37.83a7.31,7.31,0,0,1,1,3.39A106.35,106.35,0,0,1,210.15,73c-.64,2.18-.13,4.4-.24,6.6a35.09,35.09,0,0,1-.19,4.35c-.61,2.35-.11,4.73-.24,7.09a37.54,37.54,0,0,1-.16,4,9.56,9.56,0,0,1-.75,2.4c-1.08.44-1-.61-1.35-1.07-1.06-3.27-2.13-6.54-3.4-9.74-1.19-3.77-2.5-7.49-3.74-11.24-.16-.5-.3-1-.49-1.5-1-3.23-2.33-6.35-3.35-9.57-1-2.91-1.82-5.86-3-8.69-1.29-2.24-1.24-4.94-2.45-7.21a2.41,2.41,0,0,1-.25-2.15c1.17-.57,1.83.52,2.69.89.68.29,1.27.77,1.94,1.08,3.51,1.76,7,3.62,10.31,5.68A15.39,15.39,0,0,1,208.9,56.67Z" transform="translate(-0.28 -0.21)"/><path class="cls-7" d="M94.3,218.78c-2.15,1.39-4.69,1.26-7,1.57a44.07,44.07,0,0,1-15.51-.79c-3.41-.77-6.29-2.53-9.4-3.87A39.42,39.42,0,0,1,49,206.54a18.26,18.26,0,0,1-2.67-3.46c.87-.6,1.74-.23,2.6,0a45.84,45.84,0,0,0,9.23,1.59,25.74,25.74,0,0,1,3.62.17c1.73.53,3.51.18,5.26.31a4.16,4.16,0,0,1,1,.14c3.18.09,5.59,2.07,8.18,3.47,5.22,2.83,10.62,5.31,15.78,8.26A5.14,5.14,0,0,1,94.3,218.78Z" transform="translate(-0.28 -0.21)"/><path class="cls-8" d="M220.58,152.94c3,2.24,4,5.81,6.08,8.7.27.37.08.6-.24.84-.64.49-1.12.22-1.67-.21a31.7,31.7,0,0,0-5.81-4.09c-1.26-.07-2.18-.92-3.18-1.51a71.87,71.87,0,0,0-9.21-4.49,60.2,60.2,0,0,0-6.56-2.35,140.33,140.33,0,0,0-17.89-4.19c-2.17-.5-3.72-2.18-5.75-3-.71-.27-1.38-.67-2.11-.91a15.4,15.4,0,0,1-2-1c-.95-.58-2.12-.64-3-1.25-1.12-.74-1.15-1.33.28-1.66,2.81-.14,5.52.7,8.31.8a4.83,4.83,0,0,1,1,.15,9.78,9.78,0,0,0,2.53.36,3.19,3.19,0,0,1,.63.12,14,14,0,0,0,2.23.35,124.82,124.82,0,0,1,18.58,4.6c1.28.53,2.62.88,3.92,1.35a92.14,92.14,0,0,1,12,5.73A5,5,0,0,1,220.58,152.94Z" transform="translate(-0.28 -0.21)"/><path class="cls-9" d="M168.5,208.58l2.1-2.85c5.65-4.7,11.08-9.65,16.52-14.59,2.27-2.07,4.8-3.87,6.68-6.35,2.61-1.52,5.33-2.86,7.79-4.63a1.58,1.58,0,0,1,1.5-.18c-4.66,12.55-13.43,21.07-25.71,26.13A40.79,40.79,0,0,1,168.5,208.58Z" transform="translate(-0.28 -0.21)"/><path class="cls-10" d="M22.73,45.27C23.5,45,23.88,44,24.81,44c3.65,2.12,7.18,4.48,11.32,5.6a5.78,5.78,0,0,1,2.24,1.06,1.61,1.61,0,0,1-.18,1.76c-1.65,2.86-3.17,5.8-4.8,8.69a2.19,2.19,0,0,1-.86.58c-3.65.69-7.25-.1-10.87-.35A2.31,2.31,0,0,1,20,60.52a6.86,6.86,0,0,1-.4-3.92c.31-3.75.65-7.53,2.7-10.86Z" transform="translate(-0.28 -0.21)"/><path class="cls-11" d="M.82,136.69c-.85-1.88-.48-3.88-.34-5.77a47.78,47.78,0,0,1,2.06-11.09c2.53-1.18,5.3-1.61,8-2.43a15,15,0,0,0,3.42-1.47,1,1,0,0,1,.9.76c1.08,3.14,2.41,6.2,3,9.5.06.58-.37,1.07-.32,1.63.16,1.54-.76,2.1-2,2.44-3.39.88-6.72,1.94-10.11,2.82C3.24,133.62,1.24,134.15.82,136.69Z" transform="translate(-0.28 -0.21)"/><path class="cls-12" d="M208.4,97.53c.12-.72-.23-1.53.41-2.15,2.16.15,4.1-.78,6.11-1.3,2.84-.74,5.61-1.73,8.48-2.34,1.77-.37,2.08,0,1.85,2a29.7,29.7,0,0,1-2.11,11.78c-3,.81-6,1.68-8.95,2.52a3.6,3.6,0,0,1-2.42.23c-1-.69-1.18-1.86-1.53-2.9-.74-2.19-1.5-4.36-2.17-6.57A1.38,1.38,0,0,1,208.4,97.53Z" transform="translate(-0.28 -0.21)"/><path class="cls-13" d="M94.3,218.78c-7.63-4.11-15.55-7.68-22.93-12.23-1.05-.65-2.26,0-3.18-.76,1.1-1.06,2.5-.81,3.75-.64a65.24,65.24,0,0,0,9.37.33c2,0,4,.58,6,.55a1.57,1.57,0,0,1,1,.55c4.24,2.66,8.77,4.79,13.15,7.19,1.16.63,2.27,1.33,3.4,2C101.22,216.22,97.94,218.14,94.3,218.78Z" transform="translate(-0.28 -0.21)"/><path class="cls-14" d="M.82,136.69c-.36-2.13.37-3.23,2.65-3.72,3.66-.79,7.18-2.19,10.83-3,2.35-.5,3.42-1.45,2.95-3.86a.38.38,0,0,1,.56.07.94.94,0,0,1-.14,1.2,48.48,48.48,0,0,0-.44,8.43,12.52,12.52,0,0,0-.18,3.91c0,.89-.26,1.48-1.14,1.72-4.09,1.14-8.15,2.36-12.24,3.46a1.64,1.64,0,0,1-1.58-.26A22.81,22.81,0,0,1,.82,136.69Z" transform="translate(-0.28 -0.21)"/><path class="cls-15" d="M81.24,16.24c.88-1.75,2.77-1.38,4.18-1.8C95,11.6,104.53,8.93,114.1,6.22a4.49,4.49,0,0,1,.83-.08c2.3,1,4.31,2.61,6.85,3-.25,1-1.21,1.06-2,1.34-6.45,2.44-13.06,4.41-19.57,6.68a8.48,8.48,0,0,1-2.11.47c-4.57-.36-9.15-.31-13.73-.41C83.32,17,82.15,17.07,81.24,16.24Z" transform="translate(-0.28 -0.21)"/><path class="cls-16" d="M100.22,16.75l19.64-6.81c.65-.23,1.28-.52,1.92-.78h.72c-.6,1.2.56,1.22,1.12,1.52,3.93,2.08,7.9,4.09,11.83,6.16a23.45,23.45,0,0,1,2.22,1.51c-2.3,1.3-4.79.69-7.17.57-6.27-.3-12.54-.71-18.81-.71-3.23,0-6.41-.35-9.62-.5C101.36,17.67,100.46,17.79,100.22,16.75Z" transform="translate(-0.28 -0.21)"/><path class="cls-17" d="M17.64,126.15h-.39A59.09,59.09,0,0,0,13.88,116c-1.67-3.66-3.37-7.31-3.83-11.38v-.81c.27-1.91,1.38-3.48,2.27-5.11,1.17-2.14,2.28-4.3,3.4-6.46.8-1.14,1.31-2.46,2.06-3.63.32-.5.67-1.46,1.5-.42a20.14,20.14,0,0,1,.24,5.14,71.91,71.91,0,0,0-.41,8.8c.25,3.51-.59,7-.42,10.49.29,4-.51,8-.46,12.08A1.83,1.83,0,0,1,17.64,126.15Z" transform="translate(-0.28 -0.21)"/><path class="cls-18" d="M225.25,93.74c.09-1.34-.25-1.94-1.81-1.48-4.33,1.3-8.71,2.45-13.07,3.68-.7.2-1.39.59-1.56-.56,0-3.13,0-6.26,0-9.39,0-.67-.2-1.41.38-2,.66,1.27,1.58,1.41,2.92,1,3.39-1.07,6.83-2,10.25-3,.64-.18,1.28-.64,2-.09.38,2.86.78,5.73,1.14,8.59C225.64,91.61,226,92.72,225.25,93.74Z" transform="translate(-0.28 -0.21)"/><path class="cls-19" d="M5,76.88a29,29,0,0,1,2.52-11c3.64,1.8,7.15,3.86,10.81,5.61A2.86,2.86,0,0,1,20,74.41c-.07,3.35.29,6.7-.21,10a1.16,1.16,0,0,1-.42.53c-3.85-2.9-8.25-4.86-12.51-7A5,5,0,0,1,5,76.88Z" transform="translate(-0.28 -0.21)"/><path class="cls-20" d="M58.11,205.23a38.36,38.36,0,0,1-9.57-1.62c-.72-.21-1.47-.35-2.21-.52L43,201.47c-.17-1,.2-1.5,1.24-1.43a3.57,3.57,0,0,0,3.49.78c6-2.23,12.33-3.7,18.4-5.87,2.26.07,4,1.45,5.8,2.54,1.11.67,2.74.76,3.15,2.39-.62,1.12-1.79,1.21-2.85,1.51C67.5,202.71,62.74,203.72,58.11,205.23Z" transform="translate(-0.28 -0.21)"/><path class="cls-21" d="M206.73,151.78a51,51,0,0,1,12.21,6.4,38.85,38.85,0,0,1-5.08,10.06c-1.68.26-2.82-1-4.2-1.54-1.22-.5-2.4-1.61-3.49.22-.15.26-.44-.15-.61-.36a6.83,6.83,0,0,1-.09-3.56c.52-2.93,0-5.88.2-8.8C205.74,153.31,205.37,152.14,206.73,151.78Z" transform="translate(-0.28 -0.21)"/><path class="cls-14" d="M224.37,81.94c-4.45,1.32-8.92,2.59-13.35,4-2.15.67-1.72-.79-1.79-1.91,0-3,0-6,0-9,0-.67-.19-1.41.38-2,1.13,2.29,1.13,2.3,3.8,1.54,1.8-.5,3.59-1,5.39-1.53.85-.23,1.73-.62,2.59,0A46.32,46.32,0,0,1,224.37,81.94Z" transform="translate(-0.28 -0.21)"/><path class="cls-22" d="M5,76.88c3.14.63,5.68,2.6,8.54,3.87C15,81.4,16.33,82.4,17.81,83a1.59,1.59,0,0,1,1.12,1.91,2.19,2.19,0,0,1,0,2.93c-1.3,1.34-1.38,3.45-2.93,4.63-.13.07-.29.15-.4.09-3.48-1.9-7.13-3.5-10.52-5.57C4.61,83.62,4.2,80.25,5,76.88Z" transform="translate(-0.28 -0.21)"/><path class="cls-23" d="M2.09,144.67c4.62-1.27,9.23-2.55,13.86-3.78.86-.22.81-.77.88-1.41.15-1.21-.43-2.51.4-3.64l-.42,11.36c.41,3.31-1.77,4.09-4.37,4.71-2.27.53-4.63.94-6.56,2.44A30.39,30.39,0,0,1,2.09,144.67Z" transform="translate(-0.28 -0.21)"/><path class="cls-24" d="M220.58,152.94A124.34,124.34,0,0,0,206.66,146c-1-1.72-.58-3.54-.37-5.33a20.56,20.56,0,0,0,.27-2.07,2,2,0,0,1,.63-1.57c3.12.84,5.77,2.7,8.63,4.11,1,.49,2,1.05,3,1.59,1.24.69,1.81.43,1.77-1a1.47,1.47,0,0,1,.52-1.32c1,3.31,0,6.58-.17,9.87C220.85,151.16,220.69,152.05,220.58,152.94Z" transform="translate(-0.28 -0.21)"/><path class="cls-25" d="M221.43,73.1c-2.88.74-5.76,1.46-8.62,2.24-3.13.85-3.12.88-3.16-2.28-.05-5.19.24-10.38-.38-15.56C214.79,61.55,218.45,67.06,221.43,73.1Z" transform="translate(-0.28 -0.21)"/><path class="cls-26" d="M19.36,74A1.66,1.66,0,0,0,18.23,72c-3.21-1.52-6.32-3.23-9.47-4.87-.55-.29-1.2-.49-1.22-1.28a26.42,26.42,0,0,1,4.17-8.46c2.9.65,5.2,2.52,7.74,3.88a2.13,2.13,0,0,1,.9,1.79c.14,2.88.1,5.76,0,8.63C20.37,72.56,20.61,73.63,19.36,74Z" transform="translate(-0.28 -0.21)"/><path class="cls-27" d="M32.83,177.46l2.1.85a.77.77,0,0,1,.8.41A38.07,38.07,0,0,1,38.51,187a31,31,0,0,0-5.92,4.72,4.65,4.65,0,0,1-1.93,1.5c-2.76-1.82-4.46-4.57-6.3-7.21-.24-1.12.65-1.65,1.3-2.18C28.15,181.8,30.34,179.46,32.83,177.46Z" transform="translate(-0.28 -0.21)"/><path class="cls-28" d="M221.06,140.4c-.09,4-.1,4.07-3.77,2.18-2.84-1.46-5.66-3-8.49-4.45-.5-.26-1-.47-1.24-1-.6-1,.14-1.73.64-2.49.48-.34.93-.08,1.49.13-.12-.7-.73-1.21-.59-1.91.67-1.08.89-2.48,2.2-3.11,2.13.32,3.81,1.69,5.72,2.51.9.4,1.75.93,2.79.59A20.13,20.13,0,0,1,221.06,140.4Z" transform="translate(-0.28 -0.21)"/><path class="cls-12" d="M5.88,154.35c.13-1,.78-1.48,1.78-1.72A60.67,60.67,0,0,1,13.88,151c2.46-.32,2.42-2.18,2.93-3.79.13,4.18-.61,8.32-.44,12.51a68.65,68.65,0,0,0,.45,8.11A40.91,40.91,0,0,1,5.88,154.35Z" transform="translate(-0.28 -0.21)"/><path class="cls-29" d="M194.94,48.65l-4.17-2.5c-.3,0-.34-.26-.43-.46L189.41,42a76.42,76.42,0,0,1,7.72-6.89,1.09,1.09,0,0,1,1.15-.28,18.12,18.12,0,0,1,4.65,6.31c-.92,1.81-2.75,2.71-4.11,4.08S196.23,47.49,194.94,48.65Z" transform="translate(-0.28 -0.21)"/><path class="cls-30" d="M194.94,48.65a2.83,2.83,0,0,1,1.53-2.1c2.29-1.67,4-4,6.46-5.46a35.27,35.27,0,0,1,6,15.58c-3.06-1.58-5.67-3.88-8.84-5.29C198.3,50.6,196.64,49.57,194.94,48.65Z" transform="translate(-0.28 -0.21)"/><path class="cls-31" d="M5.07,87A47,47,0,0,1,16,92.46c-1.55,4-3.84,7.65-5.93,11.38C8.05,98.32,5.71,92.9,5.07,87Z" transform="translate(-0.28 -0.21)"/><path class="cls-32" d="M32.83,177.46c-1.32,2.6-3.93,3.92-5.88,5.89A18.46,18.46,0,0,0,24.36,186a28.25,28.25,0,0,1-4.59-8.48c1.62-1.66,2.75-4,5.47-4.21C27.77,174.7,30.56,175.61,32.83,177.46Z" transform="translate(-0.28 -0.21)"/><path class="cls-30" d="M30.66,193.2c1.64-2.49,4.28-4,6.29-6.09.46-.48.91-.09,1.35.09a2.26,2.26,0,0,1,.88,1.22,54.68,54.68,0,0,0,2.8,6.65c.48,1.84,2.29,3.11,2.21,5.18-.8,0-.94.69-1.24,1.22A35.28,35.28,0,0,1,30.66,193.2Z" transform="translate(-0.28 -0.21)"/><path class="cls-33" d="M10.05,104.65c1.32,3.78,3,7.44,3.83,11.38,0,.52-.2,1-.73,1.15-3.54.87-6.91,2.45-10.61,2.65,1.47-5.11,4.35-9.56,6.7-14.27A4.94,4.94,0,0,1,10.05,104.65Z" transform="translate(-0.28 -0.21)"/><path class="cls-34" d="M211.79,108c3.28-.89,6.57-1.76,9.85-2.66.54-.15,1.05-.48,1.5.14a65.26,65.26,0,0,1-6,13.28,5.66,5.66,0,0,0-.88,2.33.5.5,0,0,1-.57-.21c-1.54-3.63-2.51-7.46-4-11.12A1.57,1.57,0,0,1,211.79,108Z" transform="translate(-0.28 -0.21)"/><path class="cls-35" d="M203.09,180l-1.39.57c-2.34-.19-4.63-.76-7-.8a1.81,1.81,0,0,1-1.86-1.06,15.61,15.61,0,0,1,.19-7,1.86,1.86,0,0,1,1.71-.61c3.38.44,6.83.46,10.12,1.51,1.33,1.56.13,3-.16,4.54a6.8,6.8,0,0,1-1.28,2.38Z" transform="translate(-0.28 -0.21)"/><path class="cls-36" d="M19.78,62.57c-1.08-1.9-3.35-2-4.88-3.25-1-.77-2.32-.92-3.19-1.89a35.24,35.24,0,0,1,10.6-11.69c-1.24,4.83-2.56,9.65-2.12,14.72C20.62,61.28,21.13,62.11,19.78,62.57Z" transform="translate(-0.28 -0.21)"/><path class="cls-37" d="M198.28,34.78c-2.54,1.71-4.58,4-6.95,5.94A8.83,8.83,0,0,1,189.41,42a50.27,50.27,0,0,1-2.58-7.56c1.35-2.3,3.58-3.66,5.63-5.21A19,19,0,0,1,198.28,34.78Z" transform="translate(-0.28 -0.21)"/><path class="cls-38" d="M203.42,179.51c.48-2.22,1.58-4.3,1.62-6.63a5.21,5.21,0,0,1,0-2.77,8.06,8.06,0,0,0,.33-2.07,1.78,1.78,0,0,1,.3-.86A2.2,2.2,0,0,1,206,167c.74-2.36.74-2.36,3.08-1.19l4.83,2.42A38.21,38.21,0,0,1,203.42,179.51Z" transform="translate(-0.28 -0.21)"/><path class="cls-39" d="M192.46,29.18c-1.43,2.22-3.78,3.45-5.63,5.21a83.82,83.82,0,0,0-6.22-11.92A34.59,34.59,0,0,1,192.46,29.18Z" transform="translate(-0.28 -0.21)"/><path class="cls-40" d="M216,121.11l.3,0c1.09,3.92,2.77,7.66,3.54,11.67-.23,1.31-1,.86-1.7.51l-6.75-3.38A18,18,0,0,1,216,121.11Z" transform="translate(-0.28 -0.21)"/><path class="cls-41" d="M25.24,173.3c-1.32.16-1.92,1.29-2.69,2.12s-1.94,1.29-2.78,2.09A35.21,35.21,0,0,1,17,168.26Z" transform="translate(-0.28 -0.21)"/><path class="cls-42" d="M190.34,45.69l.43.46.45,2.08c-1.8,1.21-3.83.76-5.71.56-8.63-.95-17.32-1-25.94-2-6.81-.82-13.7-.51-20.51-1.34-1.31-.2-1.72-1.36-2.36-2.27a14.71,14.71,0,0,0-1.39-1.95,11.08,11.08,0,0,0-2-2.57c-.43-.71-.93-1.43.07-2.09,3.72-.24,7.38.53,11.08.7,5.31.24,10.62.57,15.91,1.1,5,.5,10,.81,15.09.88a7,7,0,0,1,2.64.61l9.87,5C188.71,45.24,189.31,46.09,190.34,45.69Z" transform="translate(-0.28 -0.21)"/><path class="cls-43" d="M178.09,39.83a193.35,193.35,0,0,1-25.56-1.64c-2.7-.33-5.41.08-8.15-.33-3.78-.56-7.62-.65-11.44-.94a.68.68,0,0,1-.78.1c-.66-.63-1.17-1.4-1.87-2a13.48,13.48,0,0,0-2.2-2c-.64-.43-1.22-1-1.84-1.41a7.21,7.21,0,0,1-1.5-1.47c-.3-.47-.4-.91.33-1.1,8.63-.39,17.07,1.59,25.63,2.05,2.73.15,5.42.69,8.16.54,2-.11,3.82.76,5.75,1A122.29,122.29,0,0,1,178.09,39.83Z" transform="translate(-0.28 -0.21)"/><path class="cls-44" d="M100.22,16.75a66.85,66.85,0,0,0,7.81.71c6.63-.16,13.23.45,19.85.59,3.25.06,6.52.22,9.79.3A114.57,114.57,0,0,1,152,25.93a2.06,2.06,0,0,1-2.08.72c-9.67-1.58-19.53-1-29.21-2.52a45.6,45.6,0,0,0-6.08-.17c-1.87-.34-3.53-1.32-5.33-1.9a39,39,0,0,0-13.4-2.28,4.1,4.1,0,0,1-2.26-.35c-.63-1.07.42-1.08.91-1.34,1.23-.66,2.67-.53,4-1Z" transform="translate(-0.28 -0.21)"/><path class="cls-45" d="M114.53,23.4c8.56,0,17,1.47,25.59,1.67a76.62,76.62,0,0,1,10,1.13,6.37,6.37,0,0,0,1.85-.27,106.11,106.11,0,0,1,12.63,6.73c-.24.14-.51.43-.7.38-4.74-1.28-9.67-.76-14.48-1.52a78.73,78.73,0,0,0-10.17-.9c-3.08-.08-6-1.17-9.09-1.11a4.85,4.85,0,0,0-1.82,0,5.31,5.31,0,0,1-3.8-.19,1,1,0,0,1-.51.27c-1,0-1.45-.89-2.18-1.33-1.76-1.17-3.41-2.53-5.51-3.13C115.56,24.77,114.41,24.75,114.53,23.4Z" transform="translate(-0.28 -0.21)"/><path class="cls-46" d="M88.36,206.58l-.87-.09c-2.69-.63-4.83-2.39-7.28-3.5a1.17,1.17,0,0,1-.8-1.31c1-1.45,2.74-1.67,4.23-2.09,9.27-2.65,18.65-4.93,27.74-8.18a4.26,4.26,0,0,1,4.22.32,2.71,2.71,0,0,1,.75,2.11c0,3.73.9,7.32,1.61,10.94.17.87.6,1.75,0,2.61-6.94.2-13.85-.48-20.78-.52C94.24,206.85,91.29,206.65,88.36,206.58Z" transform="translate(-0.28 -0.21)"/><path class="cls-47" d="M175.6,196.58c-.29-.54-.72-.52-1.24-.37-3.32.94-6.65,1.84-10,2.78-.63.18-1.48.27-1.08,1.32a.94.94,0,0,1-1.16-.08c-3.35-2.79-6.82-5.48-9-9.39-.56-1.61.34-2.36,1.69-2.8a68.77,68.77,0,0,1,6.9-1.84c6.46-1.44,12.62-3.79,18.85-5.9,1.18-.4,2.36-1,3.66-.5.88.84.12,1.53-.22,2.24-1.35,2.76-2.86,5.44-4.3,8.16-.93,1.64-1.62,3.42-2.69,5C176.66,195.74,176.46,196.5,175.6,196.58Z" transform="translate(-0.28 -0.21)"/><path class="cls-48" d="M153.65,191a39.16,39.16,0,0,0,9.66,9.3c-1.27,1.77-3.37,2.36-5.07,3.51-.77.53-1.46-.13-2.11-.48-2.36-1.28-4.71-2.6-7.06-3.91-.44-1.8-2.16-3-2.34-4.93-.41-3.55-1-7.07-1.42-10.62.23-.62.59-.75,1.05-.23a10.48,10.48,0,0,1,1.41,2.11c-.81-2.2-3-3.57-4.21-5.65-1-2.84-2.91-5.16-4.73-7.51-1.3-4.35-1.55-8.87-2.17-13.34-.54-5.77-1.09-11.54-1.27-17.34,0-1.21.11-2.19,1.73-1.64.83.71.84,1.74,1,2.68,1.08,5.42,1.9,10.88,2.86,16.32.58,3.22,1.22,6.44,2.06,9.62a52.06,52.06,0,0,0,4.14,11.3,41.78,41.78,0,0,0,4,6.7A45.48,45.48,0,0,1,153.65,191Z" transform="translate(-0.28 -0.21)"/><path class="cls-49" d="M117.93,207.39a95.43,95.43,0,0,1-2.54-15.56c-1.16-1.76-.59-3.68-.53-5.56a9.83,9.83,0,0,0,.3-3.78,4.35,4.35,0,0,1,.23-2.69c.49-2.48.38-5.08,1.45-7.45a4.47,4.47,0,0,1,5.6,1,14.49,14.49,0,0,1-.35,4.15c-.85,6.36-1.39,12.73-.47,19.14a51.14,51.14,0,0,0,1.65,8.4,22.79,22.79,0,0,1,.9,4.09,22.57,22.57,0,0,0,5.66,9.64c1.06,1.09,1.26,1.67-.29,2.54-3,1.72-3,1.78-5.22-1.07C121.28,216.42,119.64,211.89,117.93,207.39Z" transform="translate(-0.28 -0.21)"/><path class="cls-50" d="M124.17,209.15a9.45,9.45,0,0,1-1.26-3.79c-.34-2.38-.16-2.89,2-3.62,5.53-1.83,11.09-3.56,16.7-5.13,2.33-.66,2.92.07,2.84,3.08a20.23,20.23,0,0,1-.33,5.76c-.15.63,0,1.45-1,1.58a2,2,0,0,0-2.34-.38c-4.84,1.89-9.83,1.62-14.84,1.18C125,207.75,124.08,207.75,124.17,209.15Z" transform="translate(-0.28 -0.21)"/><path class="cls-51" d="M175.6,196.58l3.72-6.48c.21-.19-.1,0,.14-.15,4.51-2.39,9.4-3.72,14.27-5.07.11,0,.25.11.35.2-1,2.09-3,3.21-4.61,4.72-3.36,3.21-6.93,6.21-10.43,9.28q-3.28,2.88-6.59,5.74a3.63,3.63,0,0,1-1.85.91A80.31,80.31,0,0,0,175.6,196.58Z" transform="translate(-0.28 -0.21)"/><path class="cls-52" d="M143.16,207a21.52,21.52,0,0,0,.82-7.23c.65-1.32-.2-2.73.25-4.07,2.2,0,3,1,2.78,3.24.14,3.79-.65,7.51-.94,11.27-.1,1.29-.42,1.49-3.92,3.23l.17-2.21c.48-.66-.12-1.54.43-2.18Z" transform="translate(-0.28 -0.21)"/><path class="cls-53" d="M137.21,159.42c.67,4.5,1,9,2.16,13.46,1,1.45,1,3.24,1.58,4.86.1.3.19.61.26.92,1.37,5.64,3.89,10.84,6.09,16.16a11.16,11.16,0,0,0,1.44,2.89c.27.5,1.12,1,.33,1.72l-1.31-1.6c-1.75-1.48-2.37-3.67-3.48-5.54a15.8,15.8,0,0,0-1.18-1.93c-.65-1.44-1-3-1.61-4.44a85.29,85.29,0,0,1-2.51-8.3c-.14-.53-.3-1.05-.46-1.57-.46-2.1-.79-4.22-1.3-6.3-.39-2.86-1.08-5.68-1-8.59C136.41,160.5,136.12,159.57,137.21,159.42Z" transform="translate(-0.28 -0.21)"/><path class="cls-54" d="M143.55,190.15c1.68,2.41,2.78,5.13,4.21,7.68-.58.16-.38.84-.75,1.14.2-2-1.56-2.39-2.62-3.36a1.42,1.42,0,0,1-.86-1.05C143.59,193.09,142.63,191.62,143.55,190.15Z" transform="translate(-0.28 -0.21)"/><path class="cls-50" d="M142.75,209.08a3.21,3.21,0,0,1-.43,2.18C142.39,210.52,142,209.68,142.75,209.08Z" transform="translate(-0.28 -0.21)"/><path class="cls-55" d="M38.3,50.78c-4.79-.82-8.75-3.52-12.95-5.68A1.2,1.2,0,0,1,24.81,44a35,35,0,0,1,9.58-5,123.67,123.67,0,0,1,11.87-3.88c1.12.33.42,1,.24,1.51-.49,1.29-1.38,2.37-2,3.63-1.71,3.28-3.43,6.54-5.34,9.71A1.5,1.5,0,0,1,38.3,50.78Z" transform="translate(-0.28 -0.21)"/><path class="cls-56" d="M44.19,40.25c.08-1.24,1.17-2,1.53-3.08.21-.65,1.06-1.15.54-2L57.73,31a5.41,5.41,0,0,0,2.07-.87A16.37,16.37,0,0,1,68,27.39c.75.84,0,1.32-.52,1.67a44.75,44.75,0,0,0-10.22,11,3.28,3.28,0,0,1-1.43,1.2C51.9,41.52,48,41.68,44.19,40.25Z" transform="translate(-0.28 -0.21)"/><path class="cls-57" d="M68.31,27.63c-3,.36-5.62,1.87-8.51,2.53,0-1.28.89-2,1.74-2.77L72.32,17.8a2.07,2.07,0,0,0,.93-1.57h8l3,.41c.57.82-.07,1.28-.59,1.69-1.38,1.13-2.54,2.48-3.86,3.68-3.44,1.67-6.81,3.48-10.07,5.48C69.26,27.76,68.8,28,68.31,27.63Z" transform="translate(-0.28 -0.21)"/><path class="cls-57" d="M67.38,15.89c1.69.07,3.42-.38,5.07.34C70.76,16.08,69,16.63,67.38,15.89Z" transform="translate(-0.28 -0.21)"/><path class="cls-58" d="M24.82,147.2a23.85,23.85,0,0,1-2.1-6.32,2.45,2.45,0,0,1,2.85-1.27c2.68.62,5.14-.24,7.62-.86,2-.49,4-.91,5.9-1.48a2.75,2.75,0,0,1,1.44-.24c2.87.9,5.77.43,8.67.25a41.57,41.57,0,0,1,13.72.21,7.26,7.26,0,0,0,2.5.1,2.77,2.77,0,0,1,1.65-.08c2.54,1.31,5.35.85,8,1.14s5.06.89,7.64.58a2.28,2.28,0,0,1,1,0c4.27,1.58,8.8.8,13.16,1.51a3.32,3.32,0,0,0,3.84-1.64c1.47,1.6.92,3.66,1.29,5.52-.32,3.14.81,6.2.59,9.34a11,11,0,0,1-6,.51c-2.18-.3-3.85.05-5.24,1.73-2.53.49-4.31-1.18-6.3-2.21-.84-.43-1.48-1.2-2.61-1.74a17.67,17.67,0,0,1,.52,6.39c0,.65.15,1.62-1.05,1.57-.8-1.28-.25-2.72-.47-4.22a8.57,8.57,0,0,1-6.56-.13,3.06,3.06,0,0,0-1.87,0c-.55.1-1.17.35-1.65.09-2.5-1.34-5.42-.6-7.95-1.73-.72-.32-1.57,0-2.28-.22-3.46-.86-7.06-.78-10.52-1.78-2.89-.83-6-.42-8.9-1.68a1.77,1.77,0,0,0-1.23.2,6.08,6.08,0,0,1-6-.54,4,4,0,0,0-2.83-.53C29,150,26.8,148.91,24.82,147.2Z" transform="translate(-0.28 -0.21)"/><path class="cls-59" d="M24.82,147.2a11.12,11.12,0,0,1,2.88,1.23c1.36.56,2.66,1.21,4.23.56,1.07-.45,2.06.18,3,.73,1.63,1,3.23,1.56,5.09.52.59-.33,1.61-.7,2-.43,3,2.11,6.71.49,9.72,2.18.43.24,1.05.71,1.32.57,3.23-1.65,6,1.07,9.24,1a18,18,0,0,1,8.26,1.56c.25.12.57.4.75.33,3.14-1.27,6.16,1.61,9.31.24,1.06-.46,1.67-.08,1.54,1.24a31.55,31.55,0,0,0,0,3.37,4.8,4.8,0,0,0,2.58,1.93,19.46,19.46,0,0,1,7.4,4.46,4,4,0,0,0,3,1.38c1.29.11,2.9.29,3.38,2a27.83,27.83,0,0,1-8.4,2.9c-2.93.42-5.75-.73-8.69-.63-1.14,0-2.32-.35-3.49,0a1.45,1.45,0,0,1-.83.11c-2.63-1-5.52-.47-8.14-1.37a5.29,5.29,0,0,0-3.48-.23,10.91,10.91,0,0,1-5.56,0c-2.94-.56-6,.1-9,.29-1.48.09-2.91.37-4.33-.24a3.23,3.23,0,0,0-1.87-.16,6.44,6.44,0,0,1-4.43-.9,5.92,5.92,0,0,0-3.79-1,4.09,4.09,0,0,1-4.72-2.62,18.27,18.27,0,0,0-1.1-1.79C28.54,158.78,26.44,153.07,24.82,147.2Z" transform="translate(-0.28 -0.21)"/><path class="cls-60" d="M30.72,164.46c.52.46,1.33.82,1.52,1.39.88,2.58,2.76,2.81,5,2.41a3.45,3.45,0,0,1,2.2.56c.93.48,1.87,1.28,2.83,1.32,2.38.09,4.78.79,7.06.55a57.41,57.41,0,0,1,9.09-.51c3,.19,5.95.48,9-.15.79-.16,1.91,1.14,2.67.95,3.07-.77,5.78,1.09,8.89.82,2.56-.22,5.52-.74,8.07.64,1.09.6,2-.22,3.06,0-.3,1.37-1.57,1.77-2.56,2.18-4.58,1.88-8.9,4.36-13.68,5.81-2.48.74-4.53,2.48-7,3.41a12.72,12.72,0,0,1-2.77.93c-.48.06-1.15.13-1.22.64-.28,2.14-2,2.23-3.54,2.69a18.25,18.25,0,0,0-3.28,1.39c-1.59.27-2.74-.77-4-1.42-1.4-.74-2.77-1.55-4.2-2.22-3.65-2.06-7.41-3.92-11-6a5.57,5.57,0,0,1-1.49-1.14l-.43-.44c-.61-3.79-2.23-7.26-3.37-10.87A10,10,0,0,1,30.72,164.46Z" transform="translate(-0.28 -0.21)"/><path class="cls-61" d="M49.24,137.93a3.36,3.36,0,0,0-2.62.09,3.47,3.47,0,0,1-2.87.26c-3.16-1.66-6,.13-8.93.63-3.09.52-6,2.24-9.32,1.19-.9-.29-1.88.4-2.78.78q-2.09-5.69-4.16-11.38a5,5,0,0,0-.89-2.09l0-1.26c0-.42,0-.85,0-1.27a3.25,3.25,0,0,1,3.78-1.11c3.34,1,6.67-.14,10,.26,1.55.18,3.17-.07,4.74.46a10.1,10.1,0,0,0,3.34.12c3.53,1.09,4.77,3.91,2.46,6.2a2.47,2.47,0,0,1,3.17.79c.73.93.54,1.77-.41,2.78a6.29,6.29,0,0,1,3.87,1.46C49.31,136.39,50,137,49.24,137.93Z" transform="translate(-0.28 -0.21)"/><path class="cls-62" d="M196.65,64.21A66.65,66.65,0,0,1,200,73.92c-.45,1.81-1.87,1.42-3,1.22-6.29-1.09-12.64-1.77-19-2.67-6.72-1-13.53-1.36-20.28-2.18-3.13-.38-6.24-1-9.34-1.47a43.14,43.14,0,0,0-8.79-.24,10.07,10.07,0,0,1-6.12-1.73c-.39-.61-.07-1.08.37-1.46a27.17,27.17,0,0,0,4.49-5.2,1.29,1.29,0,0,1,1.4-.7c5.15.36,10.31.63,15.44,1.22,6.73.77,13.53.69,20.21,1.89,3.87.7,7.81.07,11.69.62C190.24,63.67,193.48,63.58,196.65,64.21Z" transform="translate(-0.28 -0.21)"/><path class="cls-63" d="M196.65,64.21a1.58,1.58,0,0,1-1.74.43,75.45,75.45,0,0,0-11-1.07c-3.45-.16-6.91-.12-10.34-.6-4.93-.69-9.91-.74-14.83-1.22-3.72-.37-7.47-.84-11.19-1.1-2.19-.15-4.46-1-6.73-.24a1.22,1.22,0,0,1-1.51-.84,1,1,0,0,1-.31-1c.67-2.34.66-4.83,1.54-7.13a4.77,4.77,0,0,1,3.27-.4c7.08.79,14.23.77,21.29,1.66,8.11,1,16.32.89,24.38,2.33,1.38.25,2.8,0,4.18.32A54.44,54.44,0,0,1,196.65,64.21Z" transform="translate(-0.28 -0.21)"/><path class="cls-64" d="M200.42,75.18a85.42,85.42,0,0,1,3.8,11.35c-.1,1.13-1,1-1.73,1a16,16,0,0,1-4.37-.13c-1.57-1-3.47-.41-5.1-1-6.71-2.45-13.88-2.36-20.74-3.92-5-1.14-10.09-1.34-15.17-1.69a19.92,19.92,0,0,1-3.6-1.07,32.33,32.33,0,0,0-6-.7c-3.65-.24-7.09-1.51-10.67-2.08a1.38,1.38,0,0,1-.36-1c.35-1.65,1.64-1.74,2.94-1.69,4.88.18,9.75.71,14.63.74,4,0,8,0,11.92.2,5.71.24,11.41,0,17.12,0S194.63,75.58,200.42,75.18Z" transform="translate(-0.28 -0.21)"/><path class="cls-65" d="M197.88,87c2.1-.27,4.29.55,6.34-.46a48.4,48.4,0,0,1,3.35,9.7c.56,1.43-.35,1.9-1.44,1.76-3.26-.43-6.59-.08-9.81-.88a18.48,18.48,0,0,0-5.23-.36c-3.84.17-7.46-1.16-11.24-1.34-5.46-.25-10.82-1.32-16.24-2-1.32-.16-2.67-.29-3.56-1.51-.49-1-1.45-1.22-2.36-1.6-1.2-.51-2.53-.87-3.26-2.12-.41-1.17.15-1.51,1.23-1.51,5.15,0,10.3-.19,15.47-.08,4.93.11,9.89,0,14.84-.07C189.93,86.46,193.94,86.11,197.88,87Z" transform="translate(-0.28 -0.21)"/><path class="cls-66" d="M193.68,55.39c-1.12.88-2.47.55-3.63.37-3-.46-6.09-.38-9.08-1.15a18.22,18.22,0,0,0-6.37-.43c-3.81.4-7.44-.8-11.18-1-2.65-.12-5.31-.28-7.93-.49-3.51-.29-7.05-.38-10.53-.91a43.05,43.05,0,0,0-4.38-.2c-1.54-.7-.85-2.38-1.51-3.46-.13-.37-.26-.73-.4-1.1s-.31-.91-.42-1.37a.87.87,0,0,1,.21-.8c3.39.2,6.79.6,10.19.56,3.61,0,7.17.38,10.75.67,7.19.6,14.39,1.17,21.59,1.66a69.8,69.8,0,0,0,10.22.44C192.67,50.4,192.42,53.15,193.68,55.39Z" transform="translate(-0.28 -0.21)"/><path class="cls-67" d="M200.42,75.18c-2.61,1.31-5.43.72-8.15.8-3.58.11-7.2-.49-10.76-.23a32.61,32.61,0,0,1-6.15.12c-2.76-.36-5.41.67-8.19-.05a22.62,22.62,0,0,0-4.7-.18c-3.5-.08-7,.2-10.49-.09-2.65-.23-5.31-.12-8-.54a37.56,37.56,0,0,0-5.75-.17,1.35,1.35,0,0,0-1.44,1.26c-.15,0-.35,0-.39-.08-1.45-3.08-3-6.14-3.52-9.56a.38.38,0,0,1,.56-.11c3.25,2,6.74,1.83,10.34,1.35,2.1-.28,4.25.38,6.31.73,5.33.92,10.69,1.56,16.06,2.16,6.34.71,12.69,1.27,19,2.32,4.16.68,8.39,1.11,12.56,1.83a2.31,2.31,0,0,0,2.26-.82C200.45,74.23,200.4,74.72,200.42,75.18Z" transform="translate(-0.28 -0.21)"/><path class="cls-68" d="M160.39,91.18c.47,1.91,2.19,1.61,3.4,1.64,3.85.1,7.49,1.44,11.34,1.57,4.51.15,9,1.46,13.4,1.66,5.77.26,11.47,1.07,17.21,1.44.93.06,1.92.18,1.83-1.26l.83,1.3c0,.41,0,.82,0,1.23.18.86.56,1.7.1,2.59-1.37.72-2.9.4-4.31.44-9,.26-18,1-27,.93a7.46,7.46,0,0,1-1.05-.1c-4.68-.52-9.4-.56-14.07-1.14a4.68,4.68,0,0,1-1.43-.3c-1.74-2.05-2.2-7.56-.82-9.79C160,91.18,160.19,91.21,160.39,91.18Z" transform="translate(-0.28 -0.21)"/><path class="cls-69" d="M79.55,201.94l7.94,4.55-17-.72c-.77,0-1.54,0-2.31,0l-.86-.13c-1.82-.44-3.7.16-5.51-.33l-3.71-.1a11.37,11.37,0,0,1,4.91-2A87.13,87.13,0,0,0,75,199.82,7.77,7.77,0,0,1,79.55,201.94Z" transform="translate(-0.28 -0.21)"/><path class="cls-20" d="M61.82,205.33c1.83.14,3.71-.45,5.51.33C65.49,205.61,63.62,206,61.82,205.33Z" transform="translate(-0.28 -0.21)"/><path class="cls-70" d="M169.26,138.28c-.39.15-.82.19-.13.66,1.08.75,2.55.48,3.51,1.47,2.11,2.41,4.8,4.19,7,6.53a73.23,73.23,0,0,1,12.44,17.88,4.29,4.29,0,0,1,.5,1.39,1.16,1.16,0,0,1-.15.57c-.92,1.27-1.62,2.68-2.45,4-.35.58-.56,1.27-1.33,1.47a1.22,1.22,0,0,1-.59-.11c-1.13-1.21-1.44-2.87-2.26-4.25a44,44,0,0,0-5.09-8.24,70.92,70.92,0,0,0-7.9-9c-1.77-1.48-3.28-3.24-5.07-4.72-1.51-1.24-2.9-2.66-5.08-2.63a.71.71,0,0,1-.67-.69c.08-.41,1.57-.41.25-1.28-2-1.31-3.8-2.81-5.82-4.05a150.43,150.43,0,0,0-14.81-9.07,7.77,7.77,0,0,1-2.12-1.32c-.9-1.36-2.4-2.16-3.27-3.55.44-2,.46-4.21,1.53-6.1a84.08,84.08,0,0,0,8.09,6.48,11.72,11.72,0,0,0,2.54,1.42c1.37.47,2.15,1.75,3.37,2.43,4.19,3.65,9.08,6.23,13.86,9a5.25,5.25,0,0,0,2.35.82,2.58,2.58,0,0,1,1.18.33.42.42,0,0,1,.17.34C169.31,138.21,169.29,138.28,169.26,138.28Z" transform="translate(-0.28 -0.21)"/><path class="cls-71" d="M169.18,138,168,137.9c-1.16-1.24,0-1.51.78-1.47a9.63,9.63,0,0,0,5.63-1.87c1.72-1.07,3.81-.49,5.73-.73.54-.07,1.18.22,1.65-.05,3-1.69,6.37-1.84,9.67-2.31,1.2-.17,2.12-1,3.23-1.45,2.93.17,5.87-.72,8.8,0a1,1,0,0,1,.57.69c.14.59-.48,1.47.66,1.68,1.35.55,3.13.33,3.73,2.16l-.86,2.55c-.48.3-.42.8-.46,1.26a23.68,23.68,0,0,1-2.69,5.31c-.36.56-.66,1.25-1.54,1.09-6.19-2-12.54-3.32-18.88-4.7-.68-.52-1.54,0-2.24-.39l-.15.05-.14-.07c-.81-.57-1.81.05-2.64-.41l-.75-.07C175.13,138.58,172.15,138.35,169.18,138Z" transform="translate(-0.28 -0.21)"/><path class="cls-72" d="M182,145.16a106.3,106.3,0,0,1,18.39,4.21c.74.83.16,1.58-.17,2.32-1,2.38-2.44,4.56-3.61,6.87-1.26,2-1.85,4.48-3.87,6a.58.58,0,0,1-.52-.24c-.35-.64-.3-1.38-.58-2a51.42,51.42,0,0,0-2.61-7.74,26,26,0,0,0-5.79-7.63C182.69,146.45,181.83,146.13,182,145.16Z" transform="translate(-0.28 -0.21)"/><path class="cls-73" d="M196.15,158.55c1.19-2.35,2.39-4.69,3.57-7a3.16,3.16,0,0,0,.64-2.14,37.4,37.4,0,0,1,6.37,2.41c-.83,1.64-.24,3.4-.42,5.1-.23,2.11.38,4.28-.41,6.36-.48-2.64-2.54-2.85-4.65-3.21C199.52,159.73,197.55,160.06,196.15,158.55Z" transform="translate(-0.28 -0.21)"/><path class="cls-74" d="M182,145.16c5.64,4.38,8.76,10.23,10.05,17.16.23.43.21.79-.31,1-.9-.21-1-1.09-1.38-1.72a66.89,66.89,0,0,0-15.19-18.69c-.48-.4-1-.78-.91-1.53a19.83,19.83,0,0,1,5.74,2.74C180.62,144.5,181.3,144.81,182,145.16Z" transform="translate(-0.28 -0.21)"/><path class="cls-75" d="M174.23,141.37a75.43,75.43,0,0,1,14.24,16.37c1.09,1.79,2.11,3.62,3.17,5.43.55.26.45.91.77,1.31l0,0a1.58,1.58,0,0,1,.62,2,.38.38,0,0,1-.55.13,72.23,72.23,0,0,0-15.68-21.66c-1.39-1.28-2.86-2.48-4.33-3.67-.57-.47-.64-.72.19-.82Z" transform="translate(-0.28 -0.21)"/><path class="cls-76" d="M202.87,144.75c1.36-1.13,1.89-2.79,2.76-4.24.46-.74.6-1.7,1.47-2.16-.14,2.56-.29,5.11-.44,7.67Z" transform="translate(-0.28 -0.21)"/><path class="cls-77" d="M169.18,138a28.45,28.45,0,0,1,8.89,1.2l-8.81-.88A1.87,1.87,0,0,0,169.18,138Z" transform="translate(-0.28 -0.21)"/><path class="cls-77" d="M178.82,139.23c.89.09,1.87-.39,2.64.41A5.22,5.22,0,0,1,178.82,139.23Z" transform="translate(-0.28 -0.21)"/><path class="cls-77" d="M181.75,139.66c.76.05,1.6-.34,2.24.39A3.55,3.55,0,0,1,181.75,139.66Z" transform="translate(-0.28 -0.21)"/><path class="cls-78" d="M188.25,172h.36a22.85,22.85,0,0,1,2.25,7.92c.13.87,0,1.81.76,2.6.74-.55.53-1.36.67-2s-.17-1.61,1-1.76c2,.84,4.2.34,6.28.82.82.2,1.65.2,2.18,1-2.24,2-5,3.12-7.62,4.53l-14.76,5,5.1-10.06a6.6,6.6,0,0,1,1.38-3.44C186.69,175.11,187.27,173.47,188.25,172Z" transform="translate(-0.28 -0.21)"/><path class="cls-79" d="M32.82,61.3l.42-.42a1.81,1.81,0,0,1,2-.15,10.24,10.24,0,0,0,5.35.3,18.24,18.24,0,0,1,7,.53c.89,1.37.05,2.74,0,4.1a8.62,8.62,0,0,0-.34,2.62,3.74,3.74,0,0,1-.1.67c-.14.56-.35,1.1-.51,1.65-.57,2.41-2.65,4-6,3.33-3.53-.68-7,0-10.43-.23a6.63,6.63,0,0,1-3-.64,1.29,1.29,0,0,1-.27-1.85C28.59,68.1,30.22,65,32,62,32.2,61.65,32.55,61.51,32.82,61.3Z" transform="translate(-0.28 -0.21)"/><path class="cls-80" d="M32.82,61.3c-1.79,3.88-4.29,7.39-5.89,11.37-.77,2.94-2.72,5.31-3.93,8-.22.5-.57,1-.83,1.46-.61,1.09-1.07,2.26-1.76,3.31-.22.33-.49.84-.94.62s-.39-.78-.13-1.23c0-3.64,0-7.28,0-10.92.83-1.58.31-3.27.38-4.9.11-2.15,0-4.32,0-6.48.67-.59.3-1.4.41-2.11A60.08,60.08,0,0,0,32.82,61.3Z" transform="translate(-0.28 -0.21)"/><path class="cls-81" d="M47.55,61.72c-3.23.15-6.44-.44-9.71.23-1.4.29-3.06-.68-4.6-1.07.95-3,2.83-5.49,4.25-8.23a4.8,4.8,0,0,0,.81-1.87l.42-.84c4.07-1.11,8.1.16,12.16.22a1.86,1.86,0,0,1,.17,2.15,58.53,58.53,0,0,0-2.45,8A1.74,1.74,0,0,1,47.55,61.72Z" transform="translate(-0.28 -0.21)"/><path class="cls-82" d="M208.4,101.3c0-.84,0-1.69,0-2.54q1.68,4.63,3.37,9.28c1.2,3.55,2.42,7.1,3.6,10.66a5.74,5.74,0,0,1,.58,2.41q-2.31,4.41-4.61,8.82c-1,.79-.91,2.31-2.08,3-1.58-.6-1.87-2-2.25-3.44a86.21,86.21,0,0,1,.33-14.19c-.05-1.3,0-2.6,0-3.89-.24-2.87.53-5.68.44-8.54A2.17,2.17,0,0,1,208.4,101.3Z" transform="translate(-0.28 -0.21)"/><path class="cls-83" d="M79.56,21.71A18.66,18.66,0,0,1,83.34,18a1.57,1.57,0,0,0,.85-1.31,139.43,139.43,0,0,1,14.31.46l-5,2c-.4.61-1,.61-1.67.69a55.29,55.29,0,0,0-10,2A2.22,2.22,0,0,1,79.56,21.71Z" transform="translate(-0.28 -0.21)"/><path class="cls-84" d="M40,124.88a2.66,2.66,0,0,1-2,.4c-2.8-.71-5.67-.58-8.51-.75a10,10,0,0,0-3.52.17,4.72,4.72,0,0,1-3.27-.07c-1.74-.77-3.36-.33-5,.25l.42-12.21a3.58,3.58,0,0,1,2.55-.8c3.25.09,6.48-.64,9.73-.31a4.06,4.06,0,0,0,1.87,0c3.36-1.25,7-.33,10.35-1.17a6,6,0,0,1,3,.54,6.73,6.73,0,0,0,2.68.23,4.16,4.16,0,0,1,4,1.77c-.88,2.2-2.74,3.09-4.66,3.65a4,4,0,0,1,1.83.33c1.38.63,1.75,3,.44,3.55a2.58,2.58,0,0,0-1.66,3.46.81.81,0,0,1-.48.85C45.18,124.37,42.6,126,40,124.88Z" transform="translate(-0.28 -0.21)"/><path class="cls-85" d="M18.52,102.14a50.26,50.26,0,0,1,.41-8.84c2.38-.75,4.72-1.75,7.26-1.77a7.46,7.46,0,0,0,3.28-.5,3.61,3.61,0,0,1,2.27-.24,9.44,9.44,0,0,0,5-.27,2,2,0,0,1,1.23-.16c3.23,1.18,6.34-.79,9.54-.32a2.63,2.63,0,0,0,1-.22c1.75.06,1.76,1.83,2.68,2.72a18.32,18.32,0,0,0,2.46,3.1,5.44,5.44,0,0,0,1.89,2,3.82,3.82,0,0,1,1.29,1.3c.32,1-.37,1.42-1.13,1.62-2.06.53-4.06,1.45-6.28,1.06-2,.68-4.15.42-6.19.65-5.77.66-11.55-.47-17.32.47A19.74,19.74,0,0,1,18.52,102.14Z" transform="translate(-0.28 -0.21)"/><path class="cls-86" d="M18.52,102.14c2.36-.66,4.81.46,7,.08a39.24,39.24,0,0,1,10-.39c3.4.27,6.73-.82,10.1-.12,1.45.3,2.71-.58,4.08-.83.11,1.3-.25,2.62.22,3.91a1.22,1.22,0,0,1-.7,1.57c-.42.24-.8.57-1.22.8-1.75.92-2.77,2.15-2.09,4.25a36.12,36.12,0,0,0-12.94.72,2.57,2.57,0,0,1-1.25.1c-3-.87-6,.64-9,.09-1.45-.26-3,.21-4.56.35C17.81,109.14,18.73,105.67,18.52,102.14Z" transform="translate(-0.28 -0.21)"/><path class="cls-87" d="M48.85,89.88a1.33,1.33,0,0,1-1.71.86c-1.74-.62-3.28.13-4.88.48A4.85,4.85,0,0,1,38.82,91a2.55,2.55,0,0,0-2.22.11,7.37,7.37,0,0,1-4.73.23c-.4-.11-.94-.3-1.22-.13-2.79,1.67-6.22.17-9,1.87-.68.42-1.77.15-2.68.19,0-1.82,0-3.65,0-5.47,0-1,0-2,0-2.93l.41,0,.09,1.21,2.44-4.15c.06,0,.12-.12.17-.11,3.45.57,6.82-1.06,10.27-.3A4.49,4.49,0,0,0,35,81.3,2.69,2.69,0,0,1,36.39,81c3.32.72,6.61-.81,9.93-.12,1.52,1,1,2.79,1.58,4.18s.61,2.84,1.07,4.21A.89.89,0,0,1,48.85,89.88Z" transform="translate(-0.28 -0.21)"/><path class="cls-88" d="M79.55,201.94A19.51,19.51,0,0,1,75,199.82a59.33,59.33,0,0,0-8.86-4.65,1.06,1.06,0,0,1-1.16-1c.16-1.44,1.37-1.6,2.42-1.94,8.57-2.82,17.39-4.75,26-7.47,6.06-1.92,12.15-3.73,18.06-6.07a3.54,3.54,0,0,1,4.26.72.65.65,0,0,1,.14.76c0,.68-.55,1.33-.13,2-.34,1.24,0,2.54-.28,3.79,0,1.95,0,3.91,0,5.87-1.84-.58-3.56-.06-5.27.53a142.39,142.39,0,0,1-16.16,5c-4.3.94-8.43,2.29-12.59,3.61A3.24,3.24,0,0,0,79.55,201.94Z" transform="translate(-0.28 -0.21)"/><path class="cls-89" d="M65.23,194.39l.87.78c-.47,1.17-1.67.92-2.53,1.2-5.43,1.75-10.91,3.34-16.33,5.11a2.22,2.22,0,0,1-3.05-1.23c-.82-1.7-2.13-3.14-2.52-5.05a34.53,34.53,0,0,1,6.41-1.67c3.52-.82,7.11-1.38,10.55-2.53A11.37,11.37,0,0,1,65.23,194.39Z" transform="translate(-0.28 -0.21)"/><path class="cls-90" d="M192.82,166.56c-.14-.71-.28-1.41-.43-2.11,1.85-1.59,2.32-4,3.76-5.9,2.25.42,4.49.89,6.75,1.25,2.94.47,2.94.43,3,3.44,0,1.25,0,2.51,0,3.77l-.12,0a2.47,2.47,0,0,1-2.35.42c-2-.35-4-.54-6-.87A12.8,12.8,0,0,0,192.82,166.56Z" transform="translate(-0.28 -0.21)"/><path class="cls-91" d="M35.36,178.75A123.56,123.56,0,0,1,48,185.49c0,.13-.06.31-.16.37a16.41,16.41,0,0,1-9.13,2.6l-.42-1.26Z" transform="translate(-0.28 -0.21)"/><path class="cls-92" d="M207.56,129.93l1.72,3c.38.84,1.23,1.48,1.15,2.72l-2-1.07a7.68,7.68,0,0,0-4.19-1.67,1.1,1.1,0,0,1-.48-1.66l.06-.85a15,15,0,0,1-.13-4.12c0-.54.06-1.23.71-1.36s.82.42,1.1.81A13.38,13.38,0,0,1,207.56,129.93Z" transform="translate(-0.28 -0.21)"/><path class="cls-93" d="M38.72,188.46c3.06-1.11,6.4-1.34,9.29-3,2.85.88,5.09,3,8,3.85,1.32.22,2.67.39,3,2a88.45,88.45,0,0,1-17.32,3.83A24.55,24.55,0,0,1,38.72,188.46Z" transform="translate(-0.28 -0.21)"/><path class="cls-94" d="M192.82,166.56c1.22-1.9,3-.74,4.43-.66,2.88.16,5.68,1,8.58,1.07,0,.29,0,.59,0,.88-.4.66.09,1.46-.35,2.12a5.48,5.48,0,0,1-.43,2.91l-11.81-1.26c-1.65-1.44-.92-3.29-.89-5l.12,0Z" transform="translate(-0.28 -0.21)"/><path class="cls-95" d="M192.34,166.59c1.08,1.54,0,3.46.89,5,0,2.38,0,4.76,0,7.14-.76.93-.34,2-.37,3a1.64,1.64,0,0,1-1.42,1.8c-1.24.15-.74-1-.78-1.52-.32-3.43-1.54-6.66-2.06-10l2.53-4.22C191.44,167.33,191.53,166.61,192.34,166.59Z" transform="translate(-0.28 -0.21)"/><path class="cls-90" d="M205.47,170c.07-.72-.27-1.5.35-2.12C205.82,168.57,206.06,169.34,205.47,170Z" transform="translate(-0.28 -0.21)"/><path class="cls-96" d="M132.22,36.78l.72.14.93,1.68c.52.74-.12.95-.56,1.26-4,2.79-8.22,5.23-12.27,7.92-4.54,3-9.32,5.61-13.75,8.78a4.15,4.15,0,0,1-1.25.76,19.5,19.5,0,0,0-5.83,3.19A124.81,124.81,0,0,1,89.5,67.08,14,14,0,0,0,86.79,69c-.27.07.1.46,0,.21,0-.07,0-.11.13-.14,1.34-.26,1.34-.26,1.89.79a1.48,1.48,0,0,1-1,.34,6.25,6.25,0,0,0-5.8,3,2.61,2.61,0,0,0-2.63.58c-1.34,1.18-3.08,1.78-4.51,2.86a11.4,11.4,0,0,1-3-1.32,1.12,1.12,0,0,1,.57-1.59c4.67-2.64,8.68-6.34,13.75-8.37,2-.8,3.62-2.5,5.52-3.68,5.87-3.64,11.63-7.47,17.57-11,4.06-2.4,8.07-4.92,12.27-7.13a40.66,40.66,0,0,0,8.45-5.4C130.73,37.51,132,38,132.22,36.78Z" transform="translate(-0.28 -0.21)"/><path class="cls-97" d="M88.83,69.71c-.67-.77-1.62-.19-2.38-.49,1-1.83,1.93-2.22,6-4.51,3-1.72,6.22-3.24,8.81-5.68A6.61,6.61,0,0,1,103,57.92c5.9-2.61,11.14-6.29,16.45-9.9,3.25-2.2,6.79-4,10.12-6.08a53,53,0,0,0,4.32-3.34,4.39,4.39,0,0,1,1.74,2.4c.3,1-.34,1.43-1.08,1.75a16,16,0,0,0-5.82,3.61c-.8.86-2.23,1-3.34,1.62-6.4,3.64-12.45,7.86-18.81,11.59-4.73,2.77-9.22,5.92-14,8.64a35,35,0,0,1-3.18,1.6A.63.63,0,0,1,88.83,69.71Z" transform="translate(-0.28 -0.21)"/><path class="cls-98" d="M89.23,69.77c.19-1.38,1.56-.89,2.31-1.42,3.12-2.21,6.82-3.69,9.71-6,2.12-1.73,4.54-2.92,6.73-4.43,2.85-2,6.21-3.33,9-5.45a62.27,62.27,0,0,1,8.18-4.8c3.08-1.64,5.64-4.16,9-5.3A2.07,2.07,0,0,0,135.61,41a2.52,2.52,0,0,1,1.23,1.73c.51.83-.12,1.26-.68,1.43-3.36,1-5.35,4-8.33,5.54-2.15,1.14-4.07,2.68-6.38,3.59a8.76,8.76,0,0,0-3.19,2c-2,2.06-4.86,2.71-7.22,4.21-1.59,1-3,2.22-4.67,3.17-3.47,2-7,3.93-10.44,6-1.57.92-2.82,2.32-4.59,2.93A2.25,2.25,0,0,1,89.23,69.77Z" transform="translate(-0.28 -0.21)"/><path class="cls-99" d="M91.36,71.38c2.13-2.24,5-3.49,7.49-5.12,3.56-2.29,7.54-3.87,10.86-6.64,2.31-1.92,5.48-2.47,7.89-4.4,3.8-3,8.74-4.35,12.32-7.63,2.14-2,4.92-2.82,6.92-4.86.88.47.92,1.56,1.62,2.17,0,.27,0,.55.07.82A3.87,3.87,0,0,0,136,46.9a11,11,0,0,1-4.3,2.63,9.94,9.94,0,0,0-3.44,1.94c-1.84,1.81-4.21,2.7-6.3,4.05-2.4,1.55-5,2.8-7.18,4.66S110,63,107.63,64.5c-1.57,1-3.37,1.75-4.73,3.08-.82.82-2.07.44-2.84,1.2-2.18,2.14-5.47,2.79-7.27,5.45a.51.51,0,0,1-.74.09C91.62,73.38,91,72.49,91.36,71.38Z" transform="translate(-0.28 -0.21)"/><path class="cls-100" d="M124.19,29.4a2.41,2.41,0,0,1,.37-.07l2.15,2.13c.54.81-.17,1.16-.62,1.51-3.54,2.7-7,5.48-11.12,7.35-2.91,1.33-5.31,3.59-8.13,5.1-4.24,2.28-8,5.3-12.18,7.67C89.45,56,84.07,58.74,79.29,62.43c-1.76,1.36-3.9,2.15-5.78,3.31-4.8,3-9.77,5.68-14.13,9.32A4.14,4.14,0,0,0,56,77.54a.9.9,0,0,1-.92.7c-.88-.59-1.57-.11-2.26.4a17.86,17.86,0,0,1-3.17,2c-2,.93-3.55.63-3.77-1.74A2.58,2.58,0,0,1,46.08,77c4.37-.73,7.84-3.24,11.35-5.71a37.63,37.63,0,0,1,7-4.46,38.35,38.35,0,0,0,7.62-4.77,10.92,10.92,0,0,1,1.58-1,99.13,99.13,0,0,0,13.22-8.41c7.33-3.59,13.67-8.84,20.85-12.61,4.29-2.26,7.91-5.5,12.31-7.5A12.74,12.74,0,0,0,124.19,29.4Z" transform="translate(-0.28 -0.21)"/><path class="cls-101" d="M59.35,74.77c1.41-2.18,3.74-3.33,5.84-4.49,3.55-1.93,6.57-4.67,10.43-6.17,2.53-1,4.51-3.31,6.95-4.64,4.75-2.59,9.16-5.78,14.12-8a12.77,12.77,0,0,0,2.92-2c2.65-2.27,5.9-3.58,8.77-5.49a56.53,56.53,0,0,1,5.54-3.67,16.6,16.6,0,0,0,2.1-.85c3.56-2.66,7.77-4.45,10.69-8l1.69,1.28c1,1.71.61,2.8-1.48,3.86a45.24,45.24,0,0,0-9.22,5.73,6.33,6.33,0,0,1-1.63,1c-4.42,1.88-8,5.09-12.17,7.41a89,89,0,0,0-8.28,4.88c-4.92,3.54-10.4,6.13-15.43,9.49-4,2.71-8.2,5.3-12.44,7.73-2.19,1.24-4.41,2.34-6.67,3.41C60.2,76.1,59.39,75.9,59.35,74.77Z" transform="translate(-0.28 -0.21)"/><path class="cls-102" d="M61,76.05a21.66,21.66,0,0,1,4.56-2.51,16.26,16.26,0,0,0,3.66-2.08c3.43-2.37,7-4.39,10.55-6.62,3-1.89,6-3.62,8.94-5.45,2.64-1.63,5.35-3.31,7.89-5.18,1.51-1.12,3.4-2,5.1-3,2.73-1.62,5.52-3.15,8.14-4.93a22.49,22.49,0,0,1,4.41-2.66c2.8-1.09,4.81-3.4,7.44-4.8,2-1,3.76-2.53,5.79-3.44,1.55-.69,1.27-1.55.89-2.65a6.36,6.36,0,0,1,2.1,2.06c.8,1.29.52,2.38-.88,2.86-2.26.77-3.81,2.57-5.83,3.68A55.94,55.94,0,0,1,118,44.55a13.77,13.77,0,0,0-2.71,1.85c-2.57,1.85-5.69,2.82-8.11,4.7-4.48,3.48-9.95,5.36-14.15,9.2a2.26,2.26,0,0,1-.75.36c-3,.89-5.22,3.1-7.82,4.66a3.18,3.18,0,0,1-.75.45c-2.19.43-3.88,1.77-5.59,3a1.47,1.47,0,0,1-.46.36A28.3,28.3,0,0,0,71,73.67a2.83,2.83,0,0,1-.54.23,20.29,20.29,0,0,0-6,3.17,5.1,5.1,0,0,1-1.89,1.24C61.52,78,60.54,77.52,61,76.05Z" transform="translate(-0.28 -0.21)"/><path class="cls-103" d="M83.77,65.51l.42-.42c1.87-.31,3.13-1.72,4.63-2.68,1.1-.7,2.21-1.36,3.37-1.95a72.24,72.24,0,0,1,7.53-5.19c2.37-1.35,5.3-2.15,7.1-4.71.56-.81,2.27-1.43,3.38-1.66,2.43-.5,4-2.37,5.83-3.51,3-1.85,6.21-3.34,9-5.42,1.54-1.14,2.91-2.39,4.85-2.92,1-.26.51-1.45.59-2.25a3.4,3.4,0,0,1,1.72,2c-.51,1.58-2,2.2-3.23,2.85-4.45,2.38-8.71,5.13-13.08,7.64-3.73,2.14-7.53,4.37-11.12,6.88-2.44,1.71-5.27,3.05-7.72,4.78a47.58,47.58,0,0,1-5.18,3.24c-3,1.57-5.32,4.39-8.84,5.09-.9.18-1.43,1-2.16,1.51-2.8,1.88-5.57,3.81-8.49,5.49-.24.14-.28.6-.41.92a1.38,1.38,0,0,1-1.23.44c-1.79-.66-1-1.38,0-2.11,2.34-1.61,5.08-2.61,7.16-4.63C79.74,67.57,81.84,66.7,83.77,65.51Z" transform="translate(-0.28 -0.21)"/><path class="cls-104" d="M79.56,21.71a58.23,58.23,0,0,1,13.9-2.61,47.35,47.35,0,0,1,21.07,4.3,3,3,0,0,0,2.09,1.32c1.11.57,1.2,1.25.24,2.06a12.55,12.55,0,0,1-2.81,2.13,35.59,35.59,0,0,0-6.65,4.25,3,3,0,0,1-2.66.85,7.55,7.55,0,0,0-5.61-3.61c-1.79-.32-3.5-1-5.31-1.27-.67-.09-1.54-.4-1.88.41s.39,1.28.91,1.73a29.73,29.73,0,0,0,4.83,3.35,5,5,0,0,1,2.22,1.86c-.3,1.68-1.82,2.33-3,3-2.74,1.66-5.58,3.18-8.24,5a3.07,3.07,0,0,1-2.35.73c-.83-.21-1.2-.9-1.64-1.53a28,28,0,0,0-4.39-5.09c-.55-.48-1.16-1.31-2-.76s-.28,1.31-.09,2c.58,2,1.46,4,2.21,5.91a4.51,4.51,0,0,1,.64,2.61C80,50.1,78,50.7,76.38,51.67,74.16,53,72.32,54.8,70,56s-3,.85-3.18-1.66a7.26,7.26,0,0,0-.26-1.86,27.05,27.05,0,0,0-1.13-5.33c-.17-.45-.35-1-1-1s-.75.42-.86.81c-1.13,4.14-3.15,8.21-1.16,12.64a1.33,1.33,0,0,1-.68,1.22,147.49,147.49,0,0,1-13.14,8.09c-.63.32-1.3.6-1.94,0l0-.42c.53-.8-.08-1.77.4-2.58.14-1.39.29-2.77.43-4.16Q49.25,56,51,50.36a.75.75,0,0,1-.18-1c1.69-2.94,2.83-6.21,5.25-8.72,2.33-2.87,4.34-6,7.07-8.52,1.7-1.56,3.48-3,5.22-4.53C72,25.62,75.56,23.21,79.56,21.71Z" transform="translate(-0.28 -0.21)"/><path class="cls-105" d="M86.22,44.92a3.57,3.57,0,0,0,2.6-1.13c3.26-2.48,7.17-3.9,10.33-6.53a4.57,4.57,0,0,0,.62-.81,1,1,0,0,1,.69-.4c1.86.13,3.13-.94,4.36-2.12,1.87-.51,3.21-1.87,4.68-3,2.21-1.68,4.91-2.52,7-4.43.92-.84.55-1.17.12-1.79A16.56,16.56,0,0,1,122.13,28c.3.89-.37,1.32-.94,1.66-4.28,2.53-8.28,5.49-12.57,8-4.76,2.79-9.32,6-14.12,8.65s-9.35,5.91-14.22,8.54A53.74,53.74,0,0,0,75,58.17c-2.8,2-6.18,3-8.59,5.6a7.91,7.91,0,0,1-2.56,1.42c-5.07,2.31-9.57,5.56-14.26,8.49C47.54,75,46.92,74.94,46,73.16c.29-1-.09-2,.33-3,.13-.42.27-.85.41-1.27a14.5,14.5,0,0,0,5.15-2.35c3-2,6.13-3.93,9.21-5.87.47-.29,1-.47,1.24-1a2,2,0,0,1,1.09-.55c2.15-.61,2.75-1.38,3-3.66.09-1-.24-2.11.62-2.95.65.63.3,1.45.39,2.19.07.52-.2,1.18.48,1.48s1-.18,1.53-.39C71.47,54.87,73,53.16,74.9,52s4.17-2.2,5.94-3.78c.72-.2,1.14.37,1.67.64,1.85,1,3.26.16,3.43-2C86,46.23,85.67,45.51,86.22,44.92Z" transform="translate(-0.28 -0.21)"/><path class="cls-106" d="M46.31,73.51c.79,1.15,1.75.64,2.53.11C54.25,70,59.9,66.74,65.59,63.55c2.23-1.25,4.55-2.78,6.76-4.27,4.4-3,9-5.62,13.46-8.49,5.2-3.34,10.73-6.13,15.84-9.63,4.09-2.8,8.55-5,12.66-7.83a42.19,42.19,0,0,1,6.16-3.85A3.05,3.05,0,0,0,122.13,28c.89.18,1.08,1.38,2.06,1.44-.42,2.44-2.67,3.06-4.37,3.84-3.38,1.54-6,4.18-9.26,5.84s-6.36,3.78-9.5,5.75S94.45,48.35,91.71,51c-1.24,1.21-3.14,1-4.57,1.87A14.28,14.28,0,0,0,83,55.19C76.58,59.6,69.77,63.3,63.2,67.39c-4.5,2.81-9.12,5.44-13.62,8.27-1.11.7-2.37,1.78-3.63.11A2.12,2.12,0,0,1,46.31,73.51Z" transform="translate(-0.28 -0.21)"/><path class="cls-107" d="M188.25,172c-.41,3.08-2.47,5.38-3.83,8-3.08.13-5.8,1.55-8.6,2.56-6.71,2.43-13.64,4.05-20.53,5.84-1.45.38-2.32.93-1.64,2.57a40.92,40.92,0,0,1-6.75-10.51c0-1.64,1.43-1.9,2.53-2.33,3.11-1.22,6.39-1.85,9.6-2.77a2.28,2.28,0,0,1,1.7.82c.14.08.44.34.44.18,0-1.78,1.28-2.27,2.58-2.87,4.2-1.91,8.78-2.84,12.94-4.87a23.85,23.85,0,0,1,5.21-2.16,3.84,3.84,0,0,1,4.29,1.3A23.06,23.06,0,0,1,188.25,172Z" transform="translate(-0.28 -0.21)"/><path class="cls-108" d="M159.18,175.81c-3.13.93-6.26,1.85-9.38,2.79a5,5,0,0,0-2.9,1.9,34.51,34.51,0,0,1-4.2-11.37c-.48-1,.31-1.19.94-1.47a32.18,32.18,0,0,1,12.48-3.16,16,16,0,0,0,6.3-1.41c5-2.29,10.4-2.59,15.58-4a3.33,3.33,0,0,1,3,.27,30.74,30.74,0,0,1,5.17,8.39c-2.76-1.68-5.24-.74-7.8.65-3.69,2-7.79,3.06-11.72,4.5a30,30,0,0,1-2.91,1.17c-1.91.48-2.61,1.48-1.57,3.49-1,0-1.5-.27-1.77-1,.35-1.44.72-3-.09-4.27s-2.43-1.26-3.24-2.41C157.64,171.93,157.12,174.34,159.18,175.81Z" transform="translate(-0.28 -0.21)"/><path class="cls-109" d="M162.07,142.6c5.13.62,7.75,4.77,11.08,7.91-1.89,1.15-4.06.73-6.08.89a9.73,9.73,0,0,0-5.3,1.64,14.47,14.47,0,0,1-8.64,2.7,12.89,12.89,0,0,0-5.42,1.36,21.77,21.77,0,0,1-7.12,2.34c-1.25-4.43-1.54-9-2.49-13.53-.38-1.78-.63-3.58-.94-5.37.09-.09.17-.19.26-.29a2.48,2.48,0,0,1,1.62-.31c7,.8,14.08,1.24,21.11,2A2.54,2.54,0,0,1,162.07,142.6Z" transform="translate(-0.28 -0.21)"/><path class="cls-110" d="M140.59,159.44c1.36-1.48,3.48-1,5.08-2.05,3.4-2.15,7.32-2.36,11.2-2.62a4.9,4.9,0,0,0,2.86-1.19c3.45-3,7.6-2.93,11.75-3l1.67-.05a44.15,44.15,0,0,1,7.87,8.9c-3.12-.11-6,1.29-9,1.56-5.26.46-9.82,3.44-15,4.13-1.56.21-3.15.4-4.68.46-3.47.16-6.27,2-9.41,3-.12,0-.14.37-.2.57A39.56,39.56,0,0,1,140.59,159.44Z" transform="translate(-0.28 -0.21)"/><path class="cls-111" d="M147.3,194.82c-2.19-2.85-3.22-6.27-4.54-9.53-.85-2.11-1.37-4.36-2-6.55a.64.64,0,0,1,.78-.09c1.65,1.35,3.48,2.56,4.16,4.76A110,110,0,0,1,147.3,194.82Z" transform="translate(-0.28 -0.21)"/><path class="cls-112" d="M137.21,159.42c-.58.47-.32,1.14-.41,1.73-.74-.08-.88-.68-.93-1.22-.53-6.6-1.59-13.18-1.27-19.84.94-.63,1.85-1.07,2.57.29v.16c-.94-.22-1.33-.09-1.25,1.11.32,5.44.63,10.88,1.28,16.3C137.24,158.44,137.2,158.93,137.21,159.42Z" transform="translate(-0.28 -0.21)"/><path class="cls-113" d="M145.66,183.41c-1.54-1.67-2.86-3.58-4.95-4.67l-.15-.77c-.1-.77.42-.55.77-.44a5.63,5.63,0,0,1,2.65,2.52c4.6,5.7,4.6,5.7,4.52,7.53C147.18,186.31,147,184.46,145.66,183.41Z" transform="translate(-0.28 -0.21)"/><path class="cls-114" d="M144,180.05c-1.22-.56-1.76-2.25-3.42-2.08a19.94,19.94,0,0,1-1.19-5.09A16.22,16.22,0,0,1,144,180.05Z" transform="translate(-0.28 -0.21)"/><path class="cls-115" d="M59,191.37c-.74-1.08-2.18-1.12-3-2,1.07-1.55,2.9-1.53,4.43-2.09,1-.35,2.18-.25,1.69-1.92-.21-.73.61-1,1.08-1,2.69-.18,4.86-1.57,7.11-2.81,3.86-2.12,8.22-3.06,12.1-5.16,2.53-1.38,5.36-2.18,7.72-3.91,2.93-.43,5.54-1.91,8.42-2.53A1.48,1.48,0,0,1,100,169c2.33.08,4.64-.75,7,0,1.39.42,2.89-.2,4.34,0,1.83.26,3.33,1.34,5,2,.59.24,1.09.66.76,1.46l-1.29,7.68c-2.06-2.62-4.49-1.09-6.43-.16-7,3.36-14.69,4.67-22,7.11-6.71,2.25-13.63,3.88-20.45,5.8-.79.22-1.71.36-1.72,1.5Z" transform="translate(-0.28 -0.21)"/><path class="cls-116" d="M121.2,197c-1.07-5.33-.69-10.68-.19-16,.24-2.56.72-5.1,1.1-7.65a1.81,1.81,0,0,1,2-.29,37.45,37.45,0,0,1,8.08,2.83,4.17,4.17,0,0,1,1.17,1.16,60.07,60.07,0,0,0,5,10.29c.33.51.69,1.1.08,1.7-5,.62-9.79,2.22-14.63,3.59a2.62,2.62,0,0,0-2,2.47C121.77,195.75,121.84,196.49,121.2,197Z" transform="translate(-0.28 -0.21)"/><path class="cls-117" d="M121.2,197c.16-4.27.91-5.12,5.46-6a52,52,0,0,0,8.44-2.18,3.93,3.93,0,0,1,3.43,0c2.42,1.41,3.77,3.82,5.44,5.92l.42.81c-.22,1.39.32,2.85-.41,4.19,0-3.39,0-3.37-3.24-2.35q-7.76,2.45-15.53,4.78c-1.61.49-2.56,1.33-2.3,3.13A26.34,26.34,0,0,1,121.2,197Z" transform="translate(-0.28 -0.21)"/><path class="cls-118" d="M132.19,176.34c-3.28-1.25-6.51-2.71-10.08-3-1.62-.58-3.16-1.6-5-.87-1.34-1.86-3.68-1.89-5.44-3-4.19-1.79-6.29-5.44-8-9.31-.79-1.8-1.8-3.67-1.41-5.81-.29-3.22-1-6.41-.79-9.67.89,0,1,.73,1.12,1.27,3.66,12.31,12.33,19.76,23.79,24.47,1.55.63,3.06,1.36,4.57,2.1a3.9,3.9,0,0,1,1,.74C132.43,174.26,133.41,175.23,132.19,176.34Z" transform="translate(-0.28 -0.21)"/><path class="cls-115" d="M115.41,186a6.81,6.81,0,0,1,.28-3.79A10.53,10.53,0,0,1,115.41,186Z" transform="translate(-0.28 -0.21)"/><path class="cls-119" d="M134.7,140.07c.82,2.77.41,5.66.78,8.48.52,3.93.66,7.9,1,11.85a2.39,2.39,0,0,0,.34.75c-.15,3,.85,5.81.91,8.75-.3,1.08-.44,1.18-1.26.49-1.17-1-2.36-2-3.47-3s-2.34-1.53-3.2-2.66a2.23,2.23,0,0,1-.22-.66c-.48-5.07-1.37-10.13-.54-15.25a2.63,2.63,0,0,0-.12-1c.14-2.62,1.23-5,2.18-7.34C131.7,138.91,132.71,138.9,134.7,140.07Z" transform="translate(-0.28 -0.21)"/><path class="cls-120" d="M144,194.8c-2.23-1.6-3.65-3.93-5.44-5.92-2.05-3.83-4.45-7.5-5.52-11.78.88-.37,1.44.25,2,.67a19.61,19.61,0,0,1,6.85,8.16c1,1.24,1,2.86,1.65,4.22C143.57,191.71,144.25,193.21,144,194.8Z" transform="translate(-0.28 -0.21)"/><path class="cls-121" d="M130.14,164.88c2.55,1.09,4.31,3.19,6.37,4.91.28.24.7,1.43,1.2.11a29,29,0,0,1,1.27,6.32c-.68.4-1.21,0-1.73-.34-1.84-1.13-3.84-2-5.72-3-.42-.16-.77-.38-.83-.88,0-1.75-.76-3.38-.8-5.12C129.89,166.18,129.55,165.47,130.14,164.88Z" transform="translate(-0.28 -0.21)"/><path class="cls-121" d="M141.9,185.93c-1.76-1.85-2.85-4.25-4.86-5.91a19.64,19.64,0,0,0-4-2.92l-.82-.76c.41-1.09-.28-2-.46-3a15.27,15.27,0,0,1,7.62,4.17Z" transform="translate(-0.28 -0.21)"/><path class="cls-122" d="M139.35,177.51a51.17,51.17,0,0,0-7.62-4.17l-.84-.42c.17-.37.65-.14.86-.44l7.23,3.74A1.49,1.49,0,0,1,139.35,177.51Z" transform="translate(-0.28 -0.21)"/><path class="cls-123" d="M56,40.68,51,50.36c-3.55,1-7.08-1.1-10.64,0-.46.13-1.06-.25-1.59-.38l5.47-9.69a30.48,30.48,0,0,1,5.55.58A38.9,38.9,0,0,0,56,40.68Z" transform="translate(-0.28 -0.21)"/><path class="cls-124" d="M40,124.88c2.68.16,5.28-1.28,8-.42a7.81,7.81,0,0,1,4.51-.54c4.59.41,9.19.39,13.77.66,1.65.1,3.18-.52,4.78-.57a9.44,9.44,0,0,1,3.9,1.43c.46.26.92.76,1.41,0a1.49,1.49,0,0,1,1.7-.51c1.49.55,3.08.11,4.49.42,2.4.53,4.86.13,7.2.79a5.24,5.24,0,0,0,3.06-.3,3.23,3.23,0,0,1,2.28.86c2,1.54,4.56,2.37,6.46,4.16.88,2.18.55,4.42.32,6.66a4.17,4.17,0,0,1-1.23,1.59c.16,1.9-.52,2.53-2.56,2.3s-4.14,0-5.91-.39c-2.6-.5-5.46.68-7.82-1.13a1.82,1.82,0,0,0-1.81-.12c-.39.13-.91.34-1.21.19-2.45-1.23-5.22.08-7.68-1a3.43,3.43,0,0,0-2.26-.09c-.41.09-.94.39-1.2.24-2.1-1.26-4.45-.57-6.6-1-3.83-.73-7.66-.52-11.48-.75a12.15,12.15,0,0,0-2.86.52c-.37-2.22-2.09-2.66-3.92-2.94-.51-.08-1.23.21-1.42-.52s.54-.66.92-.89.69-.7.3-1.21c-.54-.69-.92-1.65-2.08-1.4a5.35,5.35,0,0,0-.95.43c-.48.19-1,.37-1.18-.33-.12-.46.17-.78.58-1a2.44,2.44,0,0,0,.32-3.84C41.23,125.76,40.59,125.33,40,124.88Z" transform="translate(-0.28 -0.21)"/><path class="cls-125" d="M102.28,154.35a53.57,53.57,0,0,0,2.7,7.46,23.55,23.55,0,0,0,6.68,7.66c-3.57.49-7.16-.5-10.74,0a5.86,5.86,0,0,0-2.41.44c-1.53-.65-2.84-1.92-4.78-1.3-1.18.38-1.11-1.23-1.94-1.53a11.66,11.66,0,0,1-.45-11c.61-1.7,3-3,4.6-2.29a4,4,0,0,0,3.17.11A4,4,0,0,1,102.28,154.35Z" transform="translate(-0.28 -0.21)"/><path class="cls-126" d="M91.34,156.07a24.06,24.06,0,0,0,.45,11,19.21,19.21,0,0,0-8.23-4.74c-1.15-.32-1.64-.92-1.46-2.08,1-3.06.33-6.08-.61-9.66C84.85,153.19,87.64,155.51,91.34,156.07Z" transform="translate(-0.28 -0.21)"/><path class="cls-127" d="M100.63,139.15c0-.58,0-1.2.82-1.28a3.25,3.25,0,0,1,.91,2.28c1.55,12.35,8.16,21.13,19,26.93,2.6,1.39,5.32,2.49,8,3.76.62.29,1.37.42,1.61,1.21l.81.43a1,1,0,0,1-.86.44c-5.62-2.48-11.37-4.71-16.3-8.51a35.26,35.26,0,0,1-11.93-16.63c-.36-1-.78-2.07-1.17-3.1A29.6,29.6,0,0,0,100.63,139.15Z" transform="translate(-0.28 -0.21)"/><path class="cls-126" d="M133.45,66.35H133c-.87.13-.94-.61-1.23-1.12a3.42,3.42,0,0,1,.51-3.15,17.27,17.27,0,0,0,1.33-2.23c1-1.3,1.47-2.9,2.34-4.28.79-.82,1-2,1.64-2.88a3.91,3.91,0,0,0,.6-1.21c.15-.46.27-.92.39-1.39.3-.74,0-1.68.74-2.29.88,1.12.5,2.64,1.22,3.82.31,2.76-.69,5.32-1.25,7.94A24.33,24.33,0,0,1,133.45,66.35Z" transform="translate(-0.28 -0.21)"/><path class="cls-128" d="M132.21,65.08l.83,1.28q1.88,4.88,3.76,9.74c0,.26,0,.51.08.77.93.49,1,1.45,1.25,2.32a60.71,60.71,0,0,1,2.23,14.3,7,7,0,0,0,.29,1.65,77.52,77.52,0,0,1-1.17,17.54c-.15.88-.39,1.75-.49,2.65a5.3,5.3,0,0,1-.63,1.8l-.24.21-1.65,6.34a1.39,1.39,0,0,1,.48,1.39c-.9,1.81-1.07,3.85-1.82,5.72-.39,1-.58,2-1,3,.58,0,1-.37,1.45.06,1.59,1.13,3.48,1,5.25,1.17,4,.39,7.9.94,11.88,1a8.49,8.49,0,0,1,3.82,1c2.82,1.23,5,3.33,7.76,5.4l-2.26.16-24.9-2.22c-.76-.61-1.64-.24-2.47-.31-2.92-.35-2.92-.35-3.86,2.57-.53,1.66-1,3.32-1.55,5a57.79,57.79,0,0,1-4.11,13.49,5.15,5.15,0,0,1-4.82-3.43c.46-3.28,1.85-6.3,2.73-9.47.65-2.36,1.46-4.68,2.31-7,.58-1.54.09-2.14-1.45-2.41a90.23,90.23,0,0,1-17.35-5c-.72-.28-1.43-.59-2.12-.93a8.25,8.25,0,0,1-3.41-2.16,88.94,88.94,0,0,1-8-4.62c-3.11-1.16-5.19-3.64-7.44-5.86a56.3,56.3,0,0,1-5.53-6.77,45.16,45.16,0,0,1-6.17-13.79,23,23,0,0,1-.75-4.11c0-1.74,1-2.91,2.09-4.1.19-.23.4-.45.61-.66a25.8,25.8,0,0,1,2-1.78.58.58,0,0,1,.79.31c.53,1.51,0,3.12.47,4.63.21.85.13,1.74.41,2.57a30.49,30.49,0,0,0,3.25,9.12,40.81,40.81,0,0,0,12.33,14.86,56,56,0,0,0,5.93,3.94l.75.47c1,.51,2,.86,3,1.35a88.7,88.7,0,0,0,21,6.6c1.53.29,2.43-.11,2.83-1.64.2-.74.44-1.47.63-2.22.64-2,1.2-4.07,1.76-6.11a7.73,7.73,0,0,0,.33-1.5c.12-.72.33-1.42.48-2.13.1-.42.25-.82.31-1.25a60.72,60.72,0,0,0,1.64-9.36,60.74,60.74,0,0,0,0-18.16c-.28-6.06-2-11.77-4.06-17.41a18,18,0,0,1-.86-2.57c-.51-1.48.39-2.64.88-3.9C130.45,66,130.25,63.83,132.21,65.08Z" transform="translate(-0.28 -0.21)"/><path class="cls-129" d="M140.14,95.09c-.62-4.46-.85-9-2-13.38-.43-1.61-.84-3.23-1.25-4.84a4.42,4.42,0,0,1,3.63.16c3.84,1.59,8,1.16,11.88,1.92,2.5.49,4.87,1.41,7.48,1.59a38.09,38.09,0,0,1,4.53,0c5.72,1,11.47,1.91,17.21,2.89a19.28,19.28,0,0,0,3.7.4c4-.12,7.32,2.82,11.35,2.39.37,0,.81.46,1.22.72-1.35.85-2.71-.06-4.07,0l-11.27.23c-2.09,0-4.24-.09-6.35,0s-4.25.6-6.34-.09a10.54,10.54,0,0,0-4.71,0c-2.5.34-5-.52-7.42.18a5.43,5.43,0,0,1-2.26-.1c-1.49-.24-.56.64-.55,1.09-2,.18-2.88-1.37-3.91-2.43a11.46,11.46,0,0,1,.7,3.83c0,.49,0,1,0,1.46-.13,1.82-.68,2.37-2.56,2.06-1.53-.24-3.1-.07-4.55-.36C142.32,92.41,140.86,92.83,140.14,95.09Z" transform="translate(-0.28 -0.21)"/><path class="cls-126" d="M151.14,89.49c.25-1.48-.6-2.78-.84-4.46,1.72,1.12,2.88,2.63,4.61,3.28,1.54,1.51,4,1.36,5.48,2.87a13,13,0,0,0,.4,9.72c.39.64.17.95-.53.81a4.63,4.63,0,0,1-1.75-1.13,16.93,16.93,0,0,0-5.91-3.1c-2.22-.63-2.78-1.67-1.81-3.76A6.21,6.21,0,0,0,151.14,89.49Z" transform="translate(-0.28 -0.21)"/><path class="cls-130" d="M92.24,74.36a5,5,0,0,1,3.7-3.28c1.79-.45,2.32-2.43,4.15-2.87,3-.73,5.51-2.9,8-4.52s5.56-2.55,7.69-5c1.28-1.46,3.36-2.3,5.12-3.25a59.88,59.88,0,0,0,8.24-5.25,4.22,4.22,0,0,1,2.63-1.14c.26,0,.69-.08.76-.25.75-1.69,2.94-1.51,3.82-3,.72-1.17,1.41-.7,2.17-.15.45.3.43.77.45,1.23l-.22.19A55,55,0,0,1,129.68,53c-4.94,2.82-9.49,6.35-14.77,8.59a6.57,6.57,0,0,0-1,.72A31.87,31.87,0,0,1,108,65.81c-2.52,1-4.27,3.23-6.4,4.88a27.49,27.49,0,0,1-7.64,5c-.74.31-1.43,1-2.31.32A1.25,1.25,0,0,1,92.24,74.36Z" transform="translate(-0.28 -0.21)"/><path class="cls-130" d="M139.36,47.81c-.16.85.33,1.8-.42,2.55a2.44,2.44,0,0,1-.55-2,1.7,1.7,0,0,1,.52-1.32l.07,0C139.11,47.24,139.23,47.53,139.36,47.81Z" transform="translate(-0.28 -0.21)"/><path class="cls-131" d="M151.14,89.49c1,1.85.16,3.69-.11,5.5-.14.92-.16,1.45.86,1.7a18.12,18.12,0,0,1,8.32,4.6c.44.42.55,0,.58-.39,4.13.65,8.39,0,12.47,1.14.92.25,1.86-.94,2.72.1.33.4.85.45,1.25.7a2.63,2.63,0,0,1,1.47,2.75c-.27,1.47-1.67,1.12-2.67,1.37.17.75,1.38,1.16.63,2.15-1.92.65-3.88.36-5.82.26-4.82-.25-9.61.48-14.42.2a1.86,1.86,0,0,0-1.3.61c-.64.43-1.19,0-1.77-.26-.21.77.15,1.72-.76,2.22-2.75.72-5.53.07-8.29.08-1.89,0-3.66-.08-5.34.86a133.55,133.55,0,0,0,1.18-18c.43-3.24.42-3.09,4-2.74a37.27,37.27,0,0,1,5.46.41c1.05.25,1.85-.23,1.6-1.6A9.29,9.29,0,0,1,151.14,89.49Z" transform="translate(-0.28 -0.21)"/><path class="cls-132" d="M176.82,108.88,175,106.64c.53-.47,1.1-.23,1.6-.28.67-.06,1.59.15,1.73-.71a2.1,2.1,0,0,0-.91-2.16c-.55-.36-1.36-.45-1.4-1.35,5.7-.3,11.41-.1,17.11-.61,4.26-.39,8.58-.07,12.86-.6a9.22,9.22,0,0,1,2.45.37c.31,3.39-.55,6.73-.42,10.11a15.67,15.67,0,0,1-8,.21,30.5,30.5,0,0,0-7.48-.85,20.83,20.83,0,0,1-6-.83c-2.56-.58-5.16.11-7.71-.39C178.08,109.41,177.34,109.46,176.82,108.88Z" transform="translate(-0.28 -0.21)"/><path class="cls-133" d="M139,113.08c.63-1.79,2.12-1.81,3.6-1.65a93.15,93.15,0,0,0,10.29.39c.55,2,2.07,3.06,3.85,3.87a1.26,1.26,0,0,0,1.35,0c2.27-1.1,4.36.35,6.53.51,1.44.11,2.87.46,4.35.49a30.8,30.8,0,0,1,8.11.77c2.31.65,4.73.2,7.08.53a3.87,3.87,0,0,1,2,.51c.48,1.25-.36,1.6-1.29,1.84a21.53,21.53,0,0,1-2.27.22c-.91.15-1.72.57-1.67,1.55.11,2.5-1.3,3.42-3.48,3.72a3,3,0,0,0-.57.24c-4.8.15-9.61.41-14.4.76a59.56,59.56,0,0,1-8.55.39,4.05,4.05,0,0,0-2.35.77c-1.38-.39-2-1.91-3.3-2.34-1.26-1.17-2.8-2-4.06-3.13-1.37-1.85-3.15-3.33-4.51-5.18a4.25,4.25,0,0,1-1.09-1.74A3.85,3.85,0,0,1,139,113.08Z" transform="translate(-0.28 -0.21)"/><path class="cls-77" d="M151.54,127.94c-.33-.87,0-1.4.9-1.36,4.45.2,8.84-.46,13.26-.73a74.49,74.49,0,0,0,8-.53c1.09-.19,2,.45,3.09.4a2.09,2.09,0,0,1,2.34-.36,48.55,48.55,0,0,1,5.06,2c1.62.92,3.53.61,5.33.56,2.1-.06,3.83.52,5,2.4-1.51,1.77-3.6,2-5.7,2.09-1.27.05-2.64-.13-3.69.58-2.55,1.73-5.41,1.47-8.23,1.53a4.52,4.52,0,0,0-3,1,5.69,5.69,0,0,1-4.86,1.36c-1-.21-1.43-.13-1,1-2.65-.36-4.67-2.08-6.88-3.33C157.71,132.66,154.29,130.77,151.54,127.94Z" transform="translate(-0.28 -0.21)"/><path class="cls-134" d="M156.57,137c-6.44-.58-12.88-1.13-19.3-1.79-.81-.09-2.34.3-2.12-1.49a3.34,3.34,0,0,1-.49-2.89c.78-2,.51-4.32,2.13-6,1.43-.23,1.79,1.38,2.91,1.7,5.12,2.86,10.25,5.73,15.15,9C155.49,136,156.23,136.27,156.57,137Z" transform="translate(-0.28 -0.21)"/><path class="cls-135" d="M144.37,122.3c1.36,1,3.12,1.56,3.87,3.3-3.76-1.59-6.61-4.46-9.75-6.92a1.35,1.35,0,0,1-.37-1.34h0c1-.26,1.46.63,2.05,1.15C141.59,119.75,143.24,120.74,144.37,122.3Z" transform="translate(-0.28 -0.21)"/><path class="cls-136" d="M139.7,126.58c-1.41.17-1.85-1.29-2.91-1.7-.11-.4-.22-.8-.32-1.2A5.89,5.89,0,0,1,139.7,126.58Z" transform="translate(-0.28 -0.21)"/><path class="cls-137" d="M194.51,130.35c-2.39-2.32-5.45-1.85-8.33-1.85a3.24,3.24,0,0,1-2.29-.6c-1.58-1.38-3.83-1.15-5.47-2.39-.5-.37-1,.27-1.6.21,2.48-.71,3.75-2.11,3.74-4.94,0-1,1.93-.94,3.12-1,1,0,2.22.34,2.41-1.25,2.85-1.19,5.89-.58,8.83-.94a84.26,84.26,0,0,1,9.39-.49c1.66,0,2.47-1.26,3.67-1.94-.61,4.89-.39,9.81-.42,14.73L204.4,125c-.57,1.88.27,3.72-.6,5.32C200.71,130,197.61,131.06,194.51,130.35Z" transform="translate(-0.28 -0.21)"/><path class="cls-137" d="M203.75,131.21a2.31,2.31,0,0,0,.48,1.66C203,132.62,203.2,132,203.75,131.21Z" transform="translate(-0.28 -0.21)"/><path class="cls-90" d="M192.41,164.48a2.21,2.21,0,0,1-.77-1.31c.12-.28.25-.57.38-.85C192.61,163,192.37,163.74,192.41,164.48Z" transform="translate(-0.28 -0.21)"/><path class="cls-138" d="M46.31,73.51c0,.84,0,1.69,0,2.53a.59.59,0,0,1,0,.85c0,.7,0,1.4,0,2.1s.54,1.36,0,2.05c-1,1.11-2.14-.17-3.13.11-2.1.61-4.46,0-6.28.57-3.62,1-7.29-.89-10.8.88-1.19.6-2.81-.4-4.24-.67a76.21,76.21,0,0,1,5.06-9.26,23.47,23.47,0,0,0,9.11,0,4.31,4.31,0,0,1,2.66.3,6.64,6.64,0,0,0,4.07.15c1.88-.34,3.38-.79,3.52-3C46.3,71.27,46.3,72.39,46.31,73.51Z" transform="translate(-0.28 -0.21)"/><path class="cls-105" d="M47.12,65.88c-.1.86.36,1.82-.4,2.58C46.77,67.59,46.49,66.66,47.12,65.88Z" transform="translate(-0.28 -0.21)"/><path class="cls-139" d="M208,115.2c-.17,1.92-1.59,2.46-3.11,2.43-2,0-4,.5-6,.17a13.75,13.75,0,0,0-4.46.49c-2.12.35-4.27-.61-6.33.45-.51.26-1.33-.1-2-.17-4-.15-8,0-11.89-1.15-1.43-.41-3-.11-4.59-.13a33.24,33.24,0,0,1-9.53-1.57,2,2,0,0,0-2.22.77.79.79,0,0,1-.85-1,6.33,6.33,0,0,0-2.1-5.31c-.51-1.64.74-1.32,1.55-1.33,6.79,0,13.58,0,20.36,0,4.29.48,8.63-.09,12.92,1.13,2.54.72,5.44-.25,8.06.58,3.35,1,6.79.5,10.18.82Z" transform="translate(-0.28 -0.21)"/><path class="cls-140" d="M80.54,113.48A60.49,60.49,0,0,0,93,126.15a3.13,3.13,0,0,1-3.32.64c-1-.4-2.08-.14-3-.33-2.77-.54-5.63,0-8.34-.91-.77-.25-1.53-.57-1.77.63-.92-.05-.93-.84-.87-1.38.25-2.19-.82-3.41-2.72-4.14a4.11,4.11,0,0,1-.86-.59c.32,1.53.85,3.09-.59,4.39-4.33,1-8.7.64-13.08.38-3.49-.21-7-.26-10.49-.38a2.28,2.28,0,0,0-.34-1.38c-.89-1.34.1-2.09,1-2.66.68-.42,1.66-.07,1.54-1.6s-1.16-1.46-2-1.82a13.44,13.44,0,0,0-1.52-.3,18.45,18.45,0,0,0,5.54-3.61,2.6,2.6,0,0,1,1.82-.93,39.62,39.62,0,0,1,9.49-.25,54.4,54.4,0,0,0,7.66,0,6.31,6.31,0,0,1,3,.39,5.3,5.3,0,0,0,3.67.41A2.58,2.58,0,0,1,80.54,113.48Z" transform="translate(-0.28 -0.21)"/><path class="cls-141" d="M80.54,113.48a3.79,3.79,0,0,0-2.85-.14,2.34,2.34,0,0,1-1.63.13c-2.41-1.2-5-.81-7.48-1a7.56,7.56,0,0,0-3.25.19c-.26.09-.64.33-.77.23-2.37-1.69-5,0-7.45-.61-1.7-.4-3.24.73-4.92.77-1.35-1-2.76-1.78-4.57-1.3a1.56,1.56,0,0,1-1.74-.38c-1.39-2.75-1.43-2.82,2.34-5.1,1-.61,1.63-.77,1-2.23-.33-.76-.71-2.29.47-3.2,2.44.79,4.49-.72,6.73-1.16.39-.07.11-.59,0-.91l.2-.19a1.49,1.49,0,0,1,1.3.33,5.24,5.24,0,0,0,1.48.68c.45.15.89.33,1.34.5l.58.2a14.18,14.18,0,0,0,10.74-.51c.73-.35,1.49-.84,2.34-.23A51,51,0,0,0,80.54,113.48Z" transform="translate(-0.28 -0.21)"/><path class="cls-142" d="M56.41,98.81l-1.27-1c-.58-.72-.21-1.32.31-1.82,1.59-1.54,3.08-3.19,5.36-3.8.73-.2,1.74-.21,1.8-1.38a.92.92,0,0,1,.37-.41c2.42-.43,4.18-2.17,6.29-3.23,3.34-1.7,6.22-4.14,9.66-5.74,2.13-1,3.92-2.81,5.71-4.46,1.64.18,3.34-.17,4.93.54.07,1.57-1.38.85-2,1.34a32.25,32.25,0,0,1-6.83,4.6C77.35,85,74.42,87,71.3,88.8c-2.46,1.4-4.7,3.29-7.12,4.66-2,1.14-3.44,3.35-6,3.54-1,.07-1.17,1.12-1.79,1.66Z" transform="translate(-0.28 -0.21)"/><path class="cls-143" d="M48.85,89.88v-.44a1,1,0,0,1,.06-1.5c1.91-1.33,3.8-2.79,6.33-2.68.2,0,.36.19.51.33a4.64,4.64,0,0,1,.87,3.4,28.93,28.93,0,0,1-5.69,3.92Z" transform="translate(-0.28 -0.21)"/><path class="cls-144" d="M50.92,92.91a13.45,13.45,0,0,1,5.48-3.82A3.59,3.59,0,0,1,59,91.69a15,15,0,0,0-5.52,4.18A7.17,7.17,0,0,1,50.92,92.91Z" transform="translate(-0.28 -0.21)"/><path class="cls-145" d="M53.44,95.87a6.74,6.74,0,0,1,5.5-4.26c1.17-.63,2.34-1.29,3.76-.86.75,1.68-.63,1.65-1.58,2-2.68.91-4.88,2.38-6,5.13A2.82,2.82,0,0,1,53.44,95.87Z" transform="translate(-0.28 -0.21)"/><path class="cls-146" d="M55.56,85.72c-2.63-.1-6.28,1.92-6.72,3.72-1.23-1.11-.8-2.77-1.34-4.11,1.18-3,4.2-3.47,6.65-4.65.9-.44,1.09.79,1.41,1.44C55.76,83.32,56.53,84.53,55.56,85.72Z" transform="translate(-0.28 -0.21)"/><path class="cls-101" d="M55.13,81.94c-.47-.26-.36-1.42-1.48-.7-2.08,1.32-4.49,2.13-6.15,4.09-.39-1.43-.79-2.86-1.18-4.29.37-.68-.81-1.36,0-2.05.55,2,1.7,1.91,3.28,1.13s2.76-1.9,4.2-2.77c.94-.56,1.44-.38,1.36.8A3,3,0,0,1,55.13,81.94Z" transform="translate(-0.28 -0.21)"/><path class="cls-104" d="M55.13,81.94V78.15c.87-1.8,1.68-3.66,4.21-3.38L61,76.05c.11,1.06.91,1.57,1.68,2.1a7.77,7.77,0,0,0,4.79-1.72,7.8,7.8,0,0,1,3.24-1.22l1.25,0c1.27-.26,2,.65,2.94,1.28,1.57,1.4.64,2.77,0,4.15A73.64,73.64,0,0,1,62.7,90.76h0c-1.23.39-2.38,1.15-3.76.86a10.31,10.31,0,0,1-2.54-2.52l-.84-3.37C55.41,84.46,55.27,83.2,55.13,81.94Z" transform="translate(-0.28 -0.21)"/><path class="cls-104" d="M89.67,77.71c-1.84.06-3.7.26-5.48-.46a2.61,2.61,0,0,1-1.75-1.1c-.52-.94-1.63-1.74-.76-3,1.37-3.25,4.13-3.6,7.15-3.4l.4.06,2.13,1.61a5.92,5.92,0,0,1,.88,3L91.74,76C91.37,77,90.89,77.81,89.67,77.71Z" transform="translate(-0.28 -0.21)"/><path class="cls-147" d="M81.68,73.11c-.15,1.21.74,2,1.21,2.94-2,1.54-4.27,2.72-6.3,4.25a1.93,1.93,0,0,1-2.12.36c.47-1.37,1.26-2.7.46-4.2,1.41-2,3.8-2.62,5.75-3.86C81,72.41,81.68,72.28,81.68,73.11Z" transform="translate(-0.28 -0.21)"/><path class="cls-148" d="M46.31,76.89c0-.29,0-.57,0-.85a2.61,2.61,0,0,0,2.57-.47c6.4-3.9,12.67-8,19.2-11.7,4.15-2.34,8.07-5,12.2-7.4a40.12,40.12,0,0,0,5-3.55,1.51,1.51,0,0,1,1.9,0c-.59,1.72-2.45,1.95-3.66,2.83-3.11,2.27-6.61,4-9.89,6-1.87,1.16-3.61,2.51-5.41,3.77a5.2,5.2,0,0,1-1,.72c-4.27,1.53-7.82,4.27-11.38,6.94-2.33,1.76-5.14,2.6-7.45,4.34C47.49,78.13,47,77.17,46.31,76.89Z" transform="translate(-0.28 -0.21)"/><path class="cls-149" d="M70.74,75.21c-1.71,1-3.41,2-5.14,3a2.43,2.43,0,0,1-2.89,0,14,14,0,0,1,8-4.64C70.79,74.08,69.29,74.66,70.74,75.21Z" transform="translate(-0.28 -0.21)"/><path class="cls-149" d="M77.88,68.88a2.25,2.25,0,0,1-1.44,1.91c-1.92.89-3.57,2.33-5.72,2.72,1.37-2.05,3.8-2.77,5.53-4.38C76.69,68.73,77.32,68.91,77.88,68.88Z" transform="translate(-0.28 -0.21)"/><path class="cls-149" d="M92.19,60.46l-6.27,4.6a1.4,1.4,0,0,1-1.73,0c2.34-1.62,4.67-3.26,7-4.85C91.41,60.11,91.86,60.38,92.19,60.46Z" transform="translate(-0.28 -0.21)"/><path class="cls-149" d="M83.77,65.51a11.46,11.46,0,0,1-5.89,3.37c-.32-1.14.78-1.26,1.3-1.43C80.76,66.9,81.72,64.87,83.77,65.51Z" transform="translate(-0.28 -0.21)"/><path class="cls-150" d="M67,52.46c0,1.12,0,2.24,0,3.36-.16,2.83-1.4,3.83-4.61,3.8A3.43,3.43,0,0,1,61,56.46a31.66,31.66,0,0,1,2.24-10.15c.21-.54.42-1.32,1.22-1.25s1,.69,1.26,1.27A17.38,17.38,0,0,1,67,52.46Z" transform="translate(-0.28 -0.21)"/><path class="cls-150" d="M104.82,33.93c-.73,2.76-2.87,2.68-5,2.52a55.31,55.31,0,0,1-7-4.5,6.58,6.58,0,0,1-1.39-1.55c-.81-1.2-.39-1.91,1-1.9a15.43,15.43,0,0,1,3.52.45c1.91.45,3.78,1,5.66,1.56A4.26,4.26,0,0,1,104.82,33.93Z" transform="translate(-0.28 -0.21)"/><path class="cls-150" d="M86.22,44.92a8.91,8.91,0,0,0,.16,1.25,2.86,2.86,0,0,1-1.31,3.44c-1.29.8-2.41.14-3.42-.73-.26-.23-.54-.45-.81-.67-1.06-2.79-2.14-5.57-3.16-8.38-.33-.9-.71-2.13.13-2.73,1-.71,1.93.26,2.71.94A40.87,40.87,0,0,1,86.22,44.92Z" transform="translate(-0.28 -0.21)"/><path class="cls-151" d="M159.18,175.81a3.12,3.12,0,0,0-1.63-.86c-.5-.15-1-.49-.83-1,.61-1.52-.18-3-.06-4.65,1.38.71,2.47,1.68,3.82,2.21s1.09,4.17-.06,5.1A1.42,1.42,0,0,0,159.18,175.81Z" transform="translate(-0.28 -0.21)"/><path class="cls-118" d="M101.07,130.77l3.34,1.6c.3,1.86-.07,3.76.34,5.63a24.65,24.65,0,0,0,6.11,11.31,51.44,51.44,0,0,0,9.89,8.37c.78,1.93,2.79,2.34,4.26,3.41a8.39,8.39,0,0,1,5.06,3.31c0,.16.05.32.07.48.43,1.94.42,4,1.11,5.87a1,1,0,0,1-.31,1.3A114.46,114.46,0,0,1,119,166.36a34.41,34.41,0,0,1-16.87-23.71c-.32-1.57-.45-3.19-.68-4.78C101.34,135.5,101.91,133.1,101.07,130.77Z" transform="translate(-0.28 -0.21)"/><path class="cls-152" d="M130.07,164.4,125,161.09c1.26-4.54,2.66-9,4.28-13.47.91,1.29-.15,2.56,0,3.86C129.59,155.78,129.8,160.09,130.07,164.4Z" transform="translate(-0.28 -0.21)"/><path class="cls-151" d="M71.55,124.46c.68-1.76.42-3.53-.39-5.82a14.79,14.79,0,0,0,4.14,2.64c.79.32.9.9.92,1.67,0,1.08-.38,2.23.38,3.23-.1.58-.33,1-.9.45C74.53,125.46,73,125.08,71.55,124.46Z" transform="translate(-0.28 -0.21)"/><path class="cls-153" d="M138.08,52.86c-.75.88-.69,2.22-1.68,3-3.55,1.62-6.63,4-9.9,6.07-2.8,1.78-5.86,3.2-8.58,5.15-2.09,1.49-4.33,2.75-6.45,4.2s-4.6,2.31-6.67,3.83c-3.36,2.47-7.2,4.18-10.43,6.86-.91.75-2.18.94-3.17,1.6-.73.5.46.24.24.56a.78.78,0,0,1-.53.71,4,4,0,0,1-1.28.23c-1.18,0-2.31.49-3.5.35-2.35-.68-.55-1.6,0-2a66.51,66.51,0,0,1,6.48-4.16c4.23-2,7.75-5.19,11.94-7.22,2.83-1.39,5-3.85,7.93-5,.44-.17.57-.59.77-1A3.69,3.69,0,0,1,116,64.25a9.57,9.57,0,0,0,4.94-2.2c1.57-1.34,3.2-2.89,5.43-3.26a1,1,0,0,0,1-1.11.8.8,0,0,1,.39-.42c.52-.22,1.25.14,1.61-.26,2-2.28,5.46-2.35,7.34-4.83.3-.39.82-.92,1.4-.44A.82.82,0,0,1,138.08,52.86Z" transform="translate(-0.28 -0.21)"/><path class="cls-154" d="M91.38,84.06h-1.3c.08-.73.64-.77,1-.93,2.66-1.18,4.76-3.24,7.42-4.5s4.81-3.39,7.29-5c1.66-1.06,3.58-1.71,5.25-2.76,3.48-2.2,6.82-4.62,10.31-6.8,3.08-1.93,6.68-3.23,9.31-5.62,1.59-1.45,3.69-1.38,5-2.87.19-.22.52-.05.7.22-.93,1.36-1.13,3.15-2.5,4.26a6.87,6.87,0,0,0-4,1.63c-1.54,1.08-3,2.39-4.83,2.89-1.09.29-1.12,1.52-2,2-1.11.66-2.37.68-3.52,1.23-2.73,1.32-4.85,3.5-7.56,4.85-5.93,3-11,7.25-16.84,10.41a3.9,3.9,0,0,0-1.12.94,2.12,2.12,0,0,1-1,.58A1.93,1.93,0,0,1,91.38,84.06Z" transform="translate(-0.28 -0.21)"/><path class="cls-155" d="M93.88,84c-.33-1.25.93-1.24,1.47-1.6,3.39-2.29,7-4.26,10.25-6.74,2.86-2.14,6.48-3.25,9.36-5.5,1.54-1.2,3.4-1.93,4.72-3.42.3-.33.49.13.71.1,1.32-.19,2.81-.12,3.25-1.86a.7.7,0,0,1,.38-.44c3.2-.94,5.35-3.73,8.45-4.83.41-.15,1.22-.87,1.43.33a3.15,3.15,0,0,1-1.25,2.11,62,62,0,0,1-10.51,6.75c-2.32,1.3-4.43,2.91-6.72,4.25-3.47,2-6.79,4.43-10.31,6.22-2.87,1.47-5.24,3.59-8.09,5a4.34,4.34,0,0,1-2.91-.11Z" transform="translate(-0.28 -0.21)"/><path class="cls-156" d="M97.25,84c2.3-1.62,3.92-4.3,7.12-4.47.13,0,.31,0,.37-.12,2-2.43,4.91-3.44,7.41-5,2.18-1.39,4.47-2.67,6.64-4.12,1.27-.84,2.66-1.49,4-2.28,3.26-2,6.5-4,9.76-5.95a1.24,1.24,0,0,1,.13.15c-.23,1-1,1.82-.44,2.89-1.6-.55-1.37,1.19-2.12,1.7-4.27,1.72-7.4,5.29-11.74,7.06-2.33,1-4.5,2.7-6.7,4.13s-3.9,3.43-6.68,3.7c-.32,0-.49.49-.59.82-.29,1-1.1,1.4-1.9,1.86a3.75,3.75,0,0,1-1.33.26C99.83,84.54,98.42,85,97.25,84Z" transform="translate(-0.28 -0.21)"/><path class="cls-157" d="M116.19,64.67a3.22,3.22,0,0,0-2.52,1.68A66.49,66.49,0,0,0,106,70.83a1.42,1.42,0,0,1-2.06-.26,1.91,1.91,0,0,1,1.21-2.23c2.56-1,4.25-3.39,7-4.11,1.42-.37,2.5-1.51,3.68-2.38a5,5,0,0,1,.82-.64c5.38-2.25,9.63-6.3,14.64-9.15,2.35-1.34,5-2.16,7.08-4,.14-.11.4,0,.56.18,0,.7,0,1.41,0,2.11,0,.46.05,1-.43,1.27-.23-.16-.53-.46-.73-.29-2,1.66-4.73,2.23-6.73,3.91a31,31,0,0,1-3.49,2.26c-.12.25-.2.63-.45.68-3.38.65-5.35,3.93-8.73,4.6C117.4,63,116.85,64,116.19,64.67Z" transform="translate(-0.28 -0.21)"/><path class="cls-158" d="M127.56,57.51c2-1.56,3.43-3.79,6.24-4.3a5.87,5.87,0,0,0,2.68-1.79c.32-.32,1.6-2,2,.21,0,.45.07.94-.43,1.23,0-.71,0-1.47-.92-.52-1.44,1.5-2.76,3.12-5.19,3-.48,0-1.22,1-1.34,1.27C129.89,58.28,128.68,57.59,127.56,57.51Z" transform="translate(-0.28 -0.21)"/><path class="cls-159" d="M120.75,157.68c-2.3-.29-3.75-2-5.38-3.35C110.08,150,105.72,145,104.26,138c-.39-1.87-.83-3.81.15-5.67a90.11,90.11,0,0,0,20.44,6c1.57.27,1.86.78,1.34,2.31C124.29,146.35,122.55,152,120.75,157.68Z" transform="translate(-0.28 -0.21)"/><path class="cls-160" d="M134.28,108.86a62.12,62.12,0,0,1-1.75,9.77c-.84.08-1.22-.56-1.65-1.09a92.35,92.35,0,0,1-17.34-32.76c-.22-.74-.6-1.42-.78-2.17a3.68,3.68,0,0,1,3.51-1.37c1.12.77,1,2.1,1.31,3.18.67,2.2,1.41,4.37,2.1,6.56,3.28,8,7.54,15.43,12.65,20.94A69.76,69.76,0,0,1,119.54,90.4c-1.24-3-1.73-6.26-3-9.25a7,7,0,0,1,5.38-3.45,2.75,2.75,0,0,1,.8,1.88,88.31,88.31,0,0,0,2.68,10.13,79.76,79.76,0,0,0,7.23,16A31.17,31.17,0,0,1,134.28,108.86Z" transform="translate(-0.28 -0.21)"/><path class="cls-161" d="M129.64,129.14c-.87,5-.87,5-5.76,4a88.61,88.61,0,0,1-18.29-5.78,11.79,11.79,0,0,1-1.23-.74c-.52-.9,0-1.78.08-2.66.8-4.36.78-4,5-3.72,5.4.35,10.83,1,16.27.32a1.16,1.16,0,0,1,1.16.72C128.2,123.74,129.64,126.19,129.64,129.14Z" transform="translate(-0.28 -0.21)"/><path class="cls-162" d="M101,124.82A40.44,40.44,0,0,1,82.37,106c.85-1.4,2.19-1.16,3.37-.8a7.12,7.12,0,0,0,4.33,0c1.53-.47,3.06.2,4.6.05,1,.24,1.37,1.15,1.73,2a59.38,59.38,0,0,1,4.92,16.64A1.11,1.11,0,0,1,101,124.82Z" transform="translate(-0.28 -0.21)"/><path class="cls-163" d="M125,90c-1.52-3.39-2.13-7-2.92-10.62-.11-.54-.27-1.07-.41-1.61-.55-.73.09-1.12.51-1.5.91-.81,1.7-1.75,2.53-2.64a33.35,33.35,0,0,0,2.61-3.29c.56-.69,1.2-1.38,1.86-.05a81.19,81.19,0,0,1,4.9,17.22c.14,1,.17,1.94.26,2.9C131.18,91.25,128.09,90.5,125,90Z" transform="translate(-0.28 -0.21)"/><path class="cls-164" d="M94.72,105.52c-.72.69-1.56.45-2.35.25a2.78,2.78,0,0,0-1.61-.14c-1.8.62-3.52,1-5.39,0a3.21,3.21,0,0,0-3,.36A25.38,25.38,0,0,1,79,96.59c-.26-1.13.53-1.67,1.29-2.16a21.16,21.16,0,0,1,5.43-2.69,1.66,1.66,0,0,1,.62.11,43.77,43.77,0,0,1,8.2,12A2.43,2.43,0,0,1,94.72,105.52Z" transform="translate(-0.28 -0.21)"/><path class="cls-165" d="M104.85,124c-.16.85-.33,1.71-.49,2.56l-2.9-1.29c-.12-6.65-.31-13.3-2.19-19.76a43.43,43.43,0,0,0-2.6-8.25,4.44,4.44,0,0,1-.59-2.17c.38-1.14,1.14-.79,1.84-.42a23.91,23.91,0,0,1,4,2.61,4.46,4.46,0,0,1,.74,1.09,75.88,75.88,0,0,1,3,8.53,81.18,81.18,0,0,1,0,11.67C105.66,120.39,105,122.18,104.85,124Z" transform="translate(-0.28 -0.21)"/><path class="cls-166" d="M125,90c3.13-.31,6.22.27,9.34.41a62,62,0,0,1-.06,18.5c-2.15-2.06-3.26-4.8-4.58-7.37A52,52,0,0,1,125,90Z" transform="translate(-0.28 -0.21)"/><path class="cls-167" d="M104,70.57c2.27.6,3.56-1.33,5-2.3a17.39,17.39,0,0,1,4.67-1.92c0,.21,0,.55-.14.6C111,68,109,69.8,106.74,71.31c-3.06,2.09-6.56,3.45-9.36,6a10.66,10.66,0,0,1-3,1.74c-3.23,1.37-5.83,3.77-8.83,5.51-.06,0-.09.1-.14.14l.54.24c-.49,1.5-2.11,1.14-3.05,1.88-.43.22-.78.54-1.19.78-1.26.07-1.91,1.17-2.9,1.71a.65.65,0,0,1-.54-.13l-.38.38c-.62.47-1.47.71-1.66,1.63l-.45.45c-.43.14-.88-.58-1.31,0-1.6,2.21-4.19,2.9-6.42,4.12-2.58,1.41-5,3.12-7.39,4.74L59.36,100c-.45-.86-.48-1.59.6-2a13.63,13.63,0,0,0,2.38-1.68,1.89,1.89,0,0,1,.5-.28C64,94.87,65.57,94.54,67,94a5,5,0,0,1,.73-.46c.38-.19.92-.06,1.15-.58a1.25,1.25,0,0,1,.36-.4c.7-.46,1.55-.73,2-1.5.69-.57,1.6-.78,2.3-1.34,1-.29,1.88-.59,2.29-1.64,2.88-1.07,4.91-3.63,7.87-4.56.55-.18.53-.78.77-1.18a2,2,0,0,1,.47-.35c2.85-.48,4.83-2.59,7.26-3.86,3.63-1.9,6.82-4.49,10.47-6.34a4.16,4.16,0,0,0,1-1Z" transform="translate(-0.28 -0.21)"/><path class="cls-168" d="M129.18,70.24c-.63-.72-1-.31-1.41.27A12.89,12.89,0,0,1,125,73.83c-1-1.15-1.68-.12-2.29.38-2.39,2-5.18,3.36-7.69,5.15-1.46,1-3,1.9-4.52,2.93a6.85,6.85,0,0,1-3.26,1.18c-.27.06.12.38,0,.12s0-.18.13-.16c.44,0,1-.27,1.3.34-.14.5-.55.64-1,.75a17.42,17.42,0,0,1-2,.1,6.19,6.19,0,0,1-2.73-.35l-.24-.25c.33-.82,1.3-1.26,1.33-2.28,0-.12.35-.37.49-.33,1.81.41,2.47-1.51,3.86-1.87a4.35,4.35,0,0,0,2.66-1.87,4.55,4.55,0,0,1,2.62-1.6c1.88-.23,2.79-1.6,3.87-2.63.88-.84,2.61.11,2.87-1.58,2.38.1,3.46-2,5.13-3.13a12.14,12.14,0,0,1,4.53-2C130.08,68,128.59,68.85,129.18,70.24Z" transform="translate(-0.28 -0.21)"/><path class="cls-169" d="M129.64,129.14c-1.12-2.88-1.86-5.94-3.76-8.48-1.86-1.85-3-4.26-4.77-6.17.21-1-.49-1.81-.85-2.68s-1-1.56-.38-2.5c1.06-.31,1.28.61,1.69,1.19a42,42,0,0,0,8.62,9.43,3.64,3.64,0,0,1,.71.94,4.08,4.08,0,0,1,.49,1.94A29.74,29.74,0,0,1,129.64,129.14Z" transform="translate(-0.28 -0.21)"/><path class="cls-170" d="M60.61,100.47c0-.2-.17-.55-.12-.58C64,98,66.8,95,70.78,94c1.41-.37,2.35-1.75,3.36-2.84s1.34-.62,1.59.47c-.66,1.3-2.25,2.08-2.1,3.82C72.1,96.6,70.72,98,69.1,99.06a9.73,9.73,0,0,1-8.5,1.43Z" transform="translate(-0.28 -0.21)"/><path class="cls-126" d="M78.71,89.09c.87-.76,1.18-2.5,3-1.68C84.05,88,85,90,85.89,92a47.88,47.88,0,0,0-5.42,2.92c-.63.44-1.26.84-1.43,1.66-.51-.75-.24-1.62-.36-2.42A14.75,14.75,0,0,1,78.71,89.09Z" transform="translate(-0.28 -0.21)"/><path class="cls-171" d="M60.6,100.49c4.63.51,8.35-1.31,11.49-4.57.42-.43.79-1,1.54-.51.25,1.4.5,2.79.76,4.18-1.94.29-3.55,1.51-5.5,1.85A13.47,13.47,0,0,1,60.6,100.49Z" transform="translate(-0.28 -0.21)"/><path class="cls-172" d="M112.83,82.78c1.1.11,1,1.11,1.16,1.76a93.21,93.21,0,0,0,18.09,33.65,6.2,6.2,0,0,0,.45.44c-.11.26-.23.51-.34.77-.69.24-1-.29-1.33-.7a47.35,47.35,0,0,1-3.65-4.68,114,114,0,0,1-9.35-15.6A86.37,86.37,0,0,1,113,86.09a4.91,4.91,0,0,1-.42-3.07Z" transform="translate(-0.28 -0.21)"/><path class="cls-173" d="M99.72,105.11a62.15,62.15,0,0,1,2.21,18.9c0,.48.06,1-.47,1.29l-.46-.48,0-.7q-.81-9-2.19-18C99,105.68,99,105.11,99.72,105.11Z" transform="translate(-0.28 -0.21)"/><path class="cls-174" d="M127.59,113.86q2.29,2.77,4.6,5.54l-.45,2.13c-.55.18-.86-.2-1.22-.5l-.45-.78a20.46,20.46,0,0,1-2.68-4.73C127.15,115,126.55,114.29,127.59,113.86Z" transform="translate(-0.28 -0.21)"/><path class="cls-175" d="M144.37,122.3l-6.24-5a2.51,2.51,0,0,1,.45-1.8C140.62,117.71,142.84,119.7,144.37,122.3Z" transform="translate(-0.28 -0.21)"/><path class="cls-176" d="M134.66,130.87c0,1,.8,1.84.49,2.89-.53.27-.41,1.6-1.38,1-.71-.41-.05-1.11.09-1.65C134.07,132.36,134.39,131.62,134.66,130.87Z" transform="translate(-0.28 -0.21)"/><path class="cls-170" d="M78.71,89.09l0,5.09c-.8-1.63-.12-3.39-.45-5.05Z" transform="translate(-0.28 -0.21)"/><path class="cls-177" d="M130.52,121l1.22.5a1.3,1.3,0,0,1-.35,1.28C130.78,122.37,130.85,121.61,130.52,121Z" transform="translate(-0.28 -0.21)"/><path class="cls-170" d="M76.18,91.14c-.08-1.19.73-1.47,1.66-1.63Z" transform="translate(-0.28 -0.21)"/><path class="cls-178" d="M138.93,48.25c-5.45,3.59-11.51,6.25-16.57,10.4-2.7,2.21-6,3.21-8.82,5.22a32.88,32.88,0,0,1-7.74,4.48A3.87,3.87,0,0,0,104,70.57a2.49,2.49,0,0,1-2.53,0,1.56,1.56,0,0,1,.54-1.25c3.27-2.91,7.34-4.54,10.94-6.91,3-2,6.49-3.43,9.43-5.56,3.11-2.25,6.6-3.79,9.71-6,2-1.4,4.23-2.36,6.07-4,.12-.11.51.09.77.15C138.92,47.42,138.92,47.83,138.93,48.25Z" transform="translate(-0.28 -0.21)"/><path class="cls-157" d="M101.45,70.57c.85-.35,1.69,0,2.53,0,0,.65,0,1.27-.74,1.59-4.33,2-8.1,4.92-12.23,7.25a27.67,27.67,0,0,1-6,2.94c-1.08-.76-.69-1.39.26-1.77a2.76,2.76,0,0,0,1.85-2c.64-.88,1.9.05,2.53-.86L91.74,76c2.56-1.35,5.55-1.9,7.58-4.26A3.17,3.17,0,0,1,101.45,70.57Z" transform="translate(-0.28 -0.21)"/><path class="cls-179" d="M154.91,110.22c2.05.81,3,2.22,2.55,4.5a1.83,1.83,0,0,0,.4,1.77c-1.56.38-2.13-1.42-3.47-1.55-2.15-.22-1.33-1.93-1.54-3.12V109C153.66,109.22,154,110.18,154.91,110.22Z" transform="translate(-0.28 -0.21)"/><path class="cls-180" d="M87.14,78.57c.07.43,1.46.72.12,1.31-.63.27-1.17.72-1.79,1-.8.35-.83.83-.44,1.48h-.42c-3.13,1.87-6.38,3.63-9.37,5.69s-6.8,3.43-9.47,6.23c-1.2.37-2.5.59-3,2-1.67,1-3.54,1.71-5.06,3l-1.28-.57c-.14-1.27.39-2.06,1.68-2.15a4.56,4.56,0,0,0,3.27-2,2.27,2.27,0,0,1,2-1.07c1.06,0,1.87-1.32,2.81-2,4-2.81,8-5.69,12.41-7.58,2.6-1.13,4.07-4,7.11-4C86.42,79.84,86.19,78.48,87.14,78.57Z" transform="translate(-0.28 -0.21)"/><path class="cls-181" d="M57.66,99.23c1.05-2.07,3-2.63,5.06-3a3.07,3.07,0,0,1-2.22,2.1c-1.53.05-.7,1.21-1.14,1.67A2.15,2.15,0,0,1,57.66,99.23Z" transform="translate(-0.28 -0.21)"/><path class="cls-145" d="M74.47,80.66c2-.64,3.52-2.13,5.29-3.17,1-.59,1.82-1.55,3.13-1.44l1.3,1.2a.79.79,0,0,1-.23,1,39.58,39.58,0,0,1-7.2,4.9c-2.46,1.42-4.64,3.36-7.2,4.53-2.26,1-4,3.36-6.86,3l8.8-7.52C72.5,82.39,73.48,81.52,74.47,80.66Z" transform="translate(-0.28 -0.21)"/><path class="cls-182" d="M101.83,97.57c-1.42-.84-2.85-1.66-4.26-2.51-.41-.25-.77-.67-1.22-.08-.85,0-.83-.78-1.17-1.24a66.31,66.31,0,0,0-3.76-7c-.41-.68-1.1-1.34-.51-2.27l.47-.41,1.65.39A11.51,11.51,0,0,1,98.34,89c.7,2.25,2,4.19,3,6.33C101.62,96,102.32,96.66,101.83,97.57Z" transform="translate(-0.28 -0.21)"/><path class="cls-183" d="M82.48,86.57c.89-1.07,2.43-.8,3.42-1.68l3.79-.4c2.13,2.5,4.12,5.08,4.68,8.45-2,.31-3.16-1.36-4.81-1.86a63.16,63.16,0,0,0-5.61-3C83.34,87.71,82.44,87.59,82.48,86.57Z" transform="translate(-0.28 -0.21)"/><path class="cls-158" d="M116.19,64.67a1.88,1.88,0,0,1,1.59-2.14c2.71-.76,4.79-2.46,7-4.08.83-.62,2.08,0,2.82-.94.63,1.05.47,1.62-.89,1.77-2.44.28-4.2,2-5.74,3.56S117.87,64.36,116.19,64.67Z" transform="translate(-0.28 -0.21)"/><path class="cls-184" d="M94.28,92.9c-1-3.11-3.1-5.59-4.59-8.41l1.22,0c.85,2.52,2.73,4.49,3.71,6.94.31.76.64,1.52,1,2.29a.68.68,0,0,1-.58.57A1,1,0,0,1,94.28,92.9Z" transform="translate(-0.28 -0.21)"/><path class="cls-185" d="M98,89.13c-1.39-1.85-3.38-3.07-5-4.68a.9.9,0,0,1,.85-.41l0,0c3,1.53,5,4.19,7.33,6.41.76.72,1.48,1.47,2.23,2.19a92.84,92.84,0,0,1,7.64,9.59c.55.83,1.43,1.6,1,2.8-1.46.27-1.85-1-2.57-1.79a52.4,52.4,0,0,0-5.06-6.71c-1.77-2-3.47-4-5.3-5.92C98.88,90.07,98,89.94,98,89.13Z" transform="translate(-0.28 -0.21)"/><path class="cls-186" d="M103.15,92.87l-9.25-8.8L97.25,84l4.17.07a.49.49,0,0,1,.17.49c-.27,1.52.7,2.67,1.16,4C103,90,104.08,91.34,103.15,92.87Z" transform="translate(-0.28 -0.21)"/><path class="cls-187" d="M101.48,84.44a2.25,2.25,0,0,0-.06-.36l1.31-.06,0,.11c.89.7,1.63,1.56,2.45,2.33a122.29,122.29,0,0,1,11,15.44c1.28,2.44,2.87,4.72,3.67,7.4.18,1.41,1.09,2.52,1.58,3.81.15.41.87,1-.16,1.27-1-.31-1.28-1.25-1.74-2a97.45,97.45,0,0,0-12.08-20,56.17,56.17,0,0,0-4.07-5C102.93,86.21,101.77,85.62,101.48,84.44Z" transform="translate(-0.28 -0.21)"/><path class="cls-188" d="M108.63,83.63H106.5a18.7,18.7,0,0,0,6.92-4.24,6.73,6.73,0,0,1,2.33-1c1.88-.75,2.57-3.39,5.19-3.08.31,0,1.69-1.63,2.64-2.42.38-.31,1-.7,1.5-.23.18.17,0,.76,0,1.16-.78,1.59-2.47,2.39-3.36,3.89L116.59,81c0,.29-.21.35-.37.49a10.77,10.77,0,0,0-3.39,1.27h0c-.76,1-1.93.9-3,1.18A1.39,1.39,0,0,1,108.63,83.63Z" transform="translate(-0.28 -0.21)"/><path class="cls-189" d="M119.91,90.39A82,82,0,0,0,133.4,113.1a59.42,59.42,0,0,1-13.87-21.83C119.38,90.85,119.12,90.39,119.91,90.39Z" transform="translate(-0.28 -0.21)"/><path class="cls-190" d="M119.91,90.39l-.38.88c-1.59-3.09-2-6.57-3.31-9.76l.37-.49c.54.15.71.57.86,1.06C118.26,84.85,119.09,87.62,119.91,90.39Z" transform="translate(-0.28 -0.21)"/><path class="cls-191" d="M120,112.28c.45.7.89,1.4,1.33,2.1a17.55,17.55,0,0,1,4.57,6.28c-.06.35-.2.86-.55.76-1.83-.56-3.67.52-5.51-.15a5.29,5.29,0,0,0-3.29,0,3.77,3.77,0,0,1-2.63-.13,3.76,3.76,0,0,0-3-.14,2.66,2.66,0,0,1-2-.16c-2.64-1-3.36-.54-3.62,2.3a3.51,3.51,0,0,1-.38.93,175.38,175.38,0,0,0,.39-17.61c0-1-.5-1.81-.49-2.76,0-1.17-.67-2.31-.15-3.5,1.09-.9,1.78.15,2.58.55a10.33,10.33,0,0,1,2.63,2.35c.75.63,1.17,1.6,2.14,2,1-.22,1.48.65,2.1,1.13A26.31,26.31,0,0,1,120,112.28Z" transform="translate(-0.28 -0.21)"/><path class="cls-192" d="M94.28,92.9l.83,1.27a29.29,29.29,0,0,1,4.2,11.88c1.12,6,2.12,12,1.72,18.07-.71-2.89-1.29-5.81-2.16-8.65-1.05-3.45-2.08-6.92-4.15-10-1.87-5.08-5.29-9.19-8.45-13.46.79-1.33,2.1-1.33,3.42-1.32C91.39,91.09,92.67,92.36,94.28,92.9Z" transform="translate(-0.28 -0.21)"/><path class="cls-193" d="M89.69,90.74l-3.42,1.32-.38,0c-1.45-1.51-2.46-3.41-4.23-4.61a.76.76,0,0,1,.82-.84c1.63,1.24,3.59,1.87,5.34,2.88C88.48,89.82,89.28,90,89.69,90.74Z" transform="translate(-0.28 -0.21)"/><path class="cls-194" d="M99.31,106.05a113.13,113.13,0,0,0-4.2-11.88l.47-.47c.26.42.52.85.77,1.28a60.19,60.19,0,0,1,3.37,10.13C99.37,105.33,99.35,105.69,99.31,106.05Z" transform="translate(-0.28 -0.21)"/><path class="cls-195" d="M98,89.13l1.29,1.26A15.88,15.88,0,0,1,103,97.77a.9.9,0,0,1-.68.6l-.45-.8c-1.24-2.47-2.48-4.94-3.74-7.4C97.9,89.8,97.55,89.5,98,89.13Z" transform="translate(-0.28 -0.21)"/><path class="cls-196" d="M102.28,98.37l.44-.43c.67.2.91.78,1.18,1.33a36.52,36.52,0,0,1,1.3,4.6c-.24.85.75,1.69,0,2.55C103.94,103.85,103.3,101,102.28,98.37Z" transform="translate(-0.28 -0.21)"/><path class="cls-157" d="M65.67,94.14c.68-2.28,3.1-2.42,4.62-3.66a18.62,18.62,0,0,1,4.17-2.65c2.32-1,4-3,6.26-3.71,1.4-.44,2.27-1.93,3.89-1.76,0,.57.44,1.34-.48,1.53-2.84.6-4.51,3.21-7.15,4.13a9.93,9.93,0,0,1-1.21.23c-.27,1.11-1.46,1-2.1,1.68a3,3,0,0,1-2.11,1.27c-.78.65-1.89.81-2.53,1.68-.28.48-1,.33-1.26.84l-.42.42A1.87,1.87,0,0,1,65.67,94.14Z" transform="translate(-0.28 -0.21)"/><path class="cls-181" d="M65.67,94.14a1.38,1.38,0,0,1,1.68,0c-1.4,1-3.11,1.36-4.63,2.11C62.62,94,64.23,94.22,65.67,94.14Z" transform="translate(-0.28 -0.21)"/><path class="cls-181" d="M69,92.88c.24-1.46,1.38-1.58,2.53-1.68C71.21,92.5,70,92.55,69,92.88Z" transform="translate(-0.28 -0.21)"/><path class="cls-181" d="M73.67,89.93c.45-.86,1.41-1.11,2.1-1.68C76.32,90.37,74.44,89.46,73.67,89.93Z" transform="translate(-0.28 -0.21)"/><path class="cls-181" d="M67.77,93.72c0-.78,0-.78,1.26-.84C69.47,94.45,68.19,93.44,67.77,93.72Z" transform="translate(-0.28 -0.21)"/><path class="cls-197" d="M115.8,102.12a160.33,160.33,0,0,0-11-15.55c.32-.8,1-1.48.88-2.43l2.07-.08A3.19,3.19,0,0,0,109,86.91c1.44,1.19,2.4,2.83,3.71,4.15a3.47,3.47,0,0,1,.58,1.09A81.52,81.52,0,0,0,116,100.1C116.19,100.73,117.11,101.56,115.8,102.12Z" transform="translate(-0.28 -0.21)"/><path class="cls-198" d="M112.35,91.16c-1.63-1.72-3.24-3.46-4.92-5.14-.89-.89.08-1.34.33-2l.87-.43,1.26-.09c.34-.15.81-.16.93.15C111.73,86.09,112.91,88.45,112.35,91.16Z" transform="translate(-0.28 -0.21)"/><path class="cls-199" d="M105.69,84.14c1.44,1.44,0,1.82-.88,2.43a4.83,4.83,0,0,1-2.06-2.44Z" transform="translate(-0.28 -0.21)"/><path class="cls-200" d="M115.8,102.12c0-2.36-1.46-4.28-2.06-6.47a29.73,29.73,0,0,1-.93-3.57c2.19.86,3,3,4.34,4.66.43.51.39,1.37,1.19,1.61a149.07,149.07,0,0,0,9.25,15.52c-.24,1.65,1.13,2.69,1.57,4.08.25.79.61,1.54.91,2.3-3.82-2.42-6.42-6-9-9.6-.36-.5-.5-1.17-1.2-1.35C118.18,107.1,117.28,104.45,115.8,102.12Z" transform="translate(-0.28 -0.21)"/><path class="cls-201" d="M118.34,98.35c-1.66-.57-2-2.39-3.14-3.43a23.46,23.46,0,0,1-2.39-2.84c-.15-.31-.3-.61-.46-.92-.52-2.13-1.07-4.27-1.56-6.41-.13-.57-.23-1.09-.9-1.21l2.94-.76C113.81,88.27,116.18,93.27,118.34,98.35Z" transform="translate(-0.28 -0.21)"/><path class="cls-202" d="M120,112.28c-2.72-2.37-5.07-5.14-8-7.25-1.31-3.39-3.88-5.92-6-8.73-.9-1.17-1.85-2.29-2.77-3.43.08-1.61-.8-3-.87-4.63-.12-1,.55-1.21,1.33-1.31a85.64,85.64,0,0,1,11.78,16.21A46.28,46.28,0,0,1,120,112.28Z" transform="translate(-0.28 -0.21)"/><path class="cls-203" d="M103.47,99.25l-.75-1.31c-.75-2.69-2.32-5-3.39-7.55,2.1,1.7,3.66,3.89,5.47,5.87-.19,1.06.65,2,.3,3.11C104.48,100.32,104,99.2,103.47,99.25Z" transform="translate(-0.28 -0.21)"/><path class="cls-204" d="M104.81,99.59c.18-1.11-1-2.22,0-3.33,1.78,2.18,3.78,4.22,5,6.8-1.79-.77-3-2.44-4.92-3-.13-.08-.18-.17-.16-.27S104.77,99.59,104.81,99.59Z" transform="translate(-0.28 -0.21)"/><path class="cls-199" d="M103.61,86.93l-1.33,1.31c-.91-.82-.92-2.07-1.47-3.07-.28-.52.26-.65.67-.73A5.55,5.55,0,0,1,103.61,86.93Z" transform="translate(-0.28 -0.21)"/><path class="cls-205" d="M104.81,99.59c0,.14,0,.29.07.43.11,1.28.22,2.57.32,3.85l-1.73-4.62C104.11,98.59,104.33,99.6,104.81,99.59Z" transform="translate(-0.28 -0.21)"/></svg>