<svg xmlns="http://www.w3.org/2000/svg" viewBox="0 0 348 348"><defs><style>.cls-1{fill:#1d2041;}.cls-2{fill:#04e762;stroke-width:6px;}.cls-11,.cls-2{stroke:#fcf7f8;}.cls-10,.cls-11,.cls-12,.cls-2,.cls-6,.cls-7,.cls-9{stroke-miterlimit:10;}.cls-3{fill:#fcf7f8;}.cls-10,.cls-4{fill:#dc0073;}.cls-12,.cls-5{fill:#fff;}.cls-13,.cls-6{fill:#89fc00;}.cls-6{stroke:#89fc00;}.cls-7,.cls-8{fill:#f5b700;}.cls-7{stroke:#f5b700;stroke-width:2px;}.cls-9{font-size:37.75px;fill:#1d2087;stroke:#1d2087;stroke-width:1.5px;font-family:MS-UIGothic, MS UI Gothic;letter-spacing:0.06em;}.cls-10{stroke:#fff;stroke-width:4px;}.cls-11{fill:none;stroke-width:3px;}.cls-12{stroke:#1d2041;}.cls-14{fill:#008bf8;}</style></defs><title>資產 1</title><g id="圖層_2" data-name="圖層 2"><g id="圖層_1-2" data-name="圖層 1"><rect class="cls-1" width="348" height="348" rx="32"/><circle class="cls-2" cx="76.73" cy="82.26" r="61.1"/><path class="cls-1" d="M91.57,36.48c.59-2.51-.71-4.95-2.89-5.46s-4.42,1.11-5,3.61L81.58,57.31a.94.94,0,0,0,1.82.43l8.17-21.26Z"/><path class="cls-1" d="M73.83,39.65a3.65,3.65,0,1,0-7.15,1.11l5.85,19.45A.83.83,0,0,0,74.17,60l-.34-20.3Z"/><path class="cls-1" d="M55.61,39c-1.32-2.21-4-3.07-5.87-1.92s-2.41,3.87-1.1,6.08L62.9,60.93a.93.93,0,0,0,1.6-1L55.61,39Z"/><path class="cls-1" d="M44.94,53.74a3.65,3.65,0,1,0-4.37,5.77l17.72,9.93a.84.84,0,0,0,1-1.33L44.94,53.74Z"/><path class="cls-1" d="M31.49,65.8c-2.48-.67-5,.53-5.55,2.7s.95,4.46,3.43,5.13L52,76.51a.93.93,0,0,0,.48-1.8l-21-8.91Z"/><path class="cls-1" d="M34,84a3.66,3.66,0,1,0,.87,7.19L54.46,86a.83.83,0,0,0-.2-1.65L34,84Z"/><path class="cls-1" d="M32.76,101.83c-2.25,1.24-3.2,3.84-2.12,5.8s3.78,2.55,6,1.31L54.93,95.31a.93.93,0,0,0-.9-1.63l-21.27,8.15Z"/><path class="cls-1" d="M47,113.32a3.65,3.65,0,1,0,5.61,4.56l10.54-17.36a.83.83,0,0,0-1.29-1L47,113.32Z"/><path class="cls-1" d="M58.7,126.87c-.76,2.45.36,5,2.5,5.64s4.49-.79,5.25-3.25l3.67-22.48a.93.93,0,0,0-1.78-.55L58.7,126.87Z"/><path class="cls-1" d="M76.84,125.35a3.65,3.65,0,1,0,7.21-.61l-4.47-19.81a.83.83,0,0,0-1.66.14l-1.08,20.28Z"/><path class="cls-1" d="M94.75,126.86c1.16,2.29,3.72,3.33,5.72,2.32s2.68-3.69,1.52-6L89,104.47a.93.93,0,0,0-1.66.85l7.4,21.54Z"/><path class="cls-1" d="M106.64,113.3a3.65,3.65,0,1,0,4.76-5.44l-17-11.15A.83.83,0,0,0,93.33,98l13.31,15.33Z"/><path class="cls-1" d="M120.68,101.81a4.39,4.39,0,0,0,5.73-2.31c.73-2.11-.64-4.51-3.07-5.35L101,89.69a.94.94,0,0,0-.61,1.77l20.29,10.35Z"/><path class="cls-1" d="M119.71,83.94a3.65,3.65,0,1,0-.36-7.23L99.4,80.49a.83.83,0,0,0,.08,1.66l20.23,1.79Z"/><path class="cls-1" d="M121.93,65.78c2.33-1.08,3.46-3.61,2.52-5.64s-3.6-2.8-5.93-1.72L99.36,70.73a.94.94,0,0,0,.78,1.7l21.79-6.65Z"/><path class="cls-1" d="M108.71,53.73a3.65,3.65,0,1,0-5.28-4.95L91.71,65.37a.83.83,0,0,0,1.21,1.13l15.79-12.77Z"/><path class="cls-3" d="M112.88,103.25,93.25,98.66a25.57,25.57,0,0,0,10.31-15.74c2.12-9.1-.07-17-5.17-23.22A37.17,37.17,0,0,0,83.68,49.3L82.91,44a2.14,2.14,0,0,0-3.31-1.48L74,46.27l-.13.1a49.44,49.44,0,0,0-9.92-.94,2.06,2.06,0,0,0-.6-1l-4.9-4.64a2.15,2.15,0,0,0-3.52.9l-2.1,6.42a.19.19,0,0,0,0,.08c-1,.34-2,.72-3,1.15C42.48,51.64,37,57.77,34.87,66.87s.1,16.89,5.23,23,13.17,10.44,22.67,12.66c.5.12,1,.23,1.51.33a5.19,5.19,0,0,0,1.28.48l44.86,10.48a5.41,5.41,0,0,0,6.5-4h0A5.41,5.41,0,0,0,112.88,103.25Z"/><path d="M58.5,50.72A6.06,6.06,0,1,0,63,58,6,6,0,0,0,58.5,50.72Zm-2.33,10a4.17,4.17,0,1,1,5-3.11A4.17,4.17,0,0,1,56.17,60.68Z"/><path d="M75.68,54.73A6.06,6.06,0,1,0,80.19,62,6.05,6.05,0,0,0,75.68,54.73Zm-2.33,10a4.17,4.17,0,1,1,5-3.11A4.16,4.16,0,0,1,73.35,64.69Z"/><path class="cls-4" d="M164,140.84a2,2,0,0,1-1.29-.47A2,2,0,0,1,162,139l-2.16-25.83a2,2,0,0,1,1.14-2c2.44-1.14,4.93-2.21,7.43-3.2a88.06,88.06,0,0,0-.38-12.92,94,94,0,0,0-12-36.91l-3.88.33H152a2,2,0,0,1-1.58-.78,2,2,0,0,1-.3-1.89l7.65-21.62A2,2,0,0,1,159,33a2,2,0,0,1,.64-.1,2,2,0,0,1,1.09.32l28.46,18.6a2,2,0,0,1-.93,3.67l-2.31.19a120.79,120.79,0,0,1,9.86,37c.26,2.61.43,5.29.51,8,2.67-.36,5.34-.64,8-.82s5.3-.27,7.95-.27a122.53,122.53,0,0,1,30.19,3.85l-.2-2.31a2,2,0,0,1,1.19-2,1.93,1.93,0,0,1,.81-.17,2,2,0,0,1,1.47.64l23.06,25a2,2,0,0,1-.5,3.11l-20.05,11.13a2,2,0,0,1-1,.25,2.1,2.1,0,0,1-.94-.23,2,2,0,0,1-1.05-1.6l-.32-3.88a95.14,95.14,0,0,0-32.72-6c-1.89,0-3.8.06-5.68.18a89.69,89.69,0,0,0-12.8,1.77c-.56,2.64-1.2,5.27-1.93,7.86a2,2,0,0,1-1.76,1.46l-25.82,2.15Z"/><path class="cls-5" d="M159.63,34.89l28.46,18.6-5.15.43a119.38,119.38,0,0,1,10.87,39c.34,3.46.51,6.83.55,10.09,3.23-.5,6.57-.89,10-1.13,2.67-.18,5.27-.27,7.82-.27a120.72,120.72,0,0,1,32.42,4.52l-.43-5.14q11.53,12.48,23.06,25l-20,11.13c-.14-1.71-.28-3.43-.43-5.14a97.7,97.7,0,0,0-34.6-6.52c-1.89,0-3.83.06-5.8.19A90.27,90.27,0,0,0,192,127.69c-.64,3.2-1.38,6.21-2.15,9L164,138.84,161.87,113c2.62-1.23,5.46-2.45,8.52-3.61a91.68,91.68,0,0,0-.33-14.53,96.64,96.64,0,0,0-12.94-38.79l-5.15.43q3.83-10.82,7.66-21.62m0-4a4,4,0,0,0-3.77,2.66L152.12,44.1,148.2,55.17A4,4,0,0,0,152,60.51l.34,0,.92-.08,1.67-.14a91.6,91.6,0,0,1,11.18,35,85.24,85.24,0,0,1,.42,11.34c-2.13.86-4.25,1.79-6.33,2.76a4,4,0,0,0-2.28,4L160,139.17a4,4,0,0,0,4,3.67h.33l25.83-2.16a4,4,0,0,0,3.52-2.91c.62-2.21,1.18-4.45,1.68-6.7a87.32,87.32,0,0,1,11.25-1.47c1.84-.12,3.71-.18,5.55-.18a92.94,92.94,0,0,1,30.83,5.4v.05l.21,2.54a4,4,0,0,0,2.1,3.2,4.06,4.06,0,0,0,1.88.47,4.1,4.1,0,0,0,1.95-.5l10.25-5.7,9.79-5.44a4,4,0,0,0,2-2.86,4,4,0,0,0-1-3.35l-11.12-12L247.15,98.24A4,4,0,0,0,244.21,97a4.11,4.11,0,0,0-1.61.33,4,4,0,0,0-2.39,3.55,123.9,123.9,0,0,0-28-3.26c-2.69,0-5.41.1-8.09.28-1.95.13-3.92.32-5.91.55-.09-2-.24-4-.43-5.91a122.53,122.53,0,0,0-8.92-35.09,4,4,0,0,0,1.41-7.27l-14.23-9.3-14.24-9.3a4,4,0,0,0-2.18-.65Z"/><polygon class="cls-6" points="182.59 69.13 172.87 71.49 180.7 65.1 180 63.62 170.09 65.58 178.11 59.59 177.41 58.11 166.53 66.35 167.16 67.69 177.98 65.48 169.37 72.39 170 73.74 183.29 70.61 182.59 69.13"/><path class="cls-6" d="M185.88,83.58a5.23,5.23,0,0,0-2.2-7.24,8.17,8.17,0,0,0-9.75,3,5.24,5.24,0,0,0,2.19,7.24,8.18,8.18,0,0,0,9.76-3ZM181,85.06a5.72,5.72,0,0,1-4.28,0A3.46,3.46,0,0,1,174.88,83a3.4,3.4,0,0,1,.38-2.75,7.23,7.23,0,0,1,7.83-2.37,3.32,3.32,0,0,1,1.46,4.83A5.73,5.73,0,0,1,181,85.06Z"/><path class="cls-6" d="M185,93.89a3.72,3.72,0,0,0-1.58-2.54,4.61,4.61,0,0,0-3.48-.72,4.57,4.57,0,0,0-3.07,1.77,3.82,3.82,0,0,0,.86,5.42,5,5,0,0,0,6.55-1A3.65,3.65,0,0,0,185,93.89Zm-4.05,3a3.3,3.3,0,0,1-2.49-.43,2.05,2.05,0,0,1-.93-1.43,2.08,2.08,0,0,1,.44-1.65,3.3,3.3,0,0,1,2.23-1.18,3.41,3.41,0,0,1,2.58.49,2.11,2.11,0,0,1,.47,2.94A3.44,3.44,0,0,1,181,96.93Z"/><path class="cls-6" d="M185,108.09a3.66,3.66,0,0,0,1.08-2.78,3.58,3.58,0,0,0-1.23-2.71,5,5,0,0,0-6.63.17,3.83,3.83,0,0,0,.14,5.49,5,5,0,0,0,6.64-.17Zm-5.74-1a2.09,2.09,0,0,1-.08-3.12,3.31,3.31,0,0,1,2.37-.88,3.44,3.44,0,0,1,2.49.83,2.11,2.11,0,0,1,.08,3,3.4,3.4,0,0,1-2.45,1A3.28,3.28,0,0,1,179.24,107.05Z"/><polygon class="cls-6" points="188.75 125.1 179.37 121.63 189.43 120.7 189.68 119.08 180.36 115.17 190.35 114.68 190.6 113.07 176.97 113.83 176.75 115.29 186.96 119.49 175.96 120.43 175.73 121.89 188.5 126.71 188.75 125.1"/><path class="cls-7" d="M209.42,113.07a3.56,3.56,0,0,0-1.47-.73,2.78,2.78,0,0,0,1.05-.78,2.9,2.9,0,0,0,.64-2.14,3.39,3.39,0,0,0-1.09-2.39,3.22,3.22,0,0,0-2.52-.8l-5.92.48,1.08,13.16,5.84-.48a3.56,3.56,0,0,0,2.59-1.14,4,4,0,0,0,.88-2.94A3.26,3.26,0,0,0,209.42,113.07Zm-7.49-5,4.14-.34a1.48,1.48,0,0,1,1.15.38,2,2,0,0,1,.71,1.41,2.2,2.2,0,0,1-.45,1.66,1.7,1.7,0,0,1-1.22.64l-4,.33Zm4.61,9.93-3.77.31-.38-4.7,3.77-.31a2.22,2.22,0,0,1,2.56,2.19,2.33,2.33,0,0,1-.53,1.75A2.23,2.23,0,0,1,206.54,118Z"/><polygon class="cls-7" points="221.66 112.26 216.34 111.87 216.65 107.56 223.46 108.05 223.56 106.59 215.05 105.97 214.1 119.14 215.8 119.26 216.23 113.33 221.56 113.72 221.66 112.26"/><polygon class="cls-7" points="233.29 116.03 233.63 114.6 228.43 113.37 229.42 109.17 236.06 110.73 236.4 109.31 228.09 107.35 225.06 120.19 226.72 120.59 228.09 114.8 233.29 116.03"/><path class="cls-8" d="M172.69,145.05a12.7,12.7,0,0,1-20.87-5.62L67.66,116.77l-14.53,54,84.17,22.66A12.69,12.69,0,0,1,158.17,199l84.17,22.65,14.52-54Z"/><text class="cls-9" transform="translate(65.69 159.3) rotate(15.07) scale(0.73 1)">HeLLo,WoRLd</text><rect class="cls-10" x="13.83" y="207.7" width="186.82" height="53.91"/><polygon class="cls-11" points="23.75 235.89 32.55 235.89 32.55 233.43 23.75 233.43 23.75 226.57 33.2 226.57 33.2 224.11 21.25 224.11 21.25 246.24 33.74 246.24 33.74 243.78 23.75 243.78 23.75 235.89"/><path class="cls-11" d="M52.73,235a8.41,8.41,0,0,0,0-9.32A4.48,4.48,0,0,0,49.15,224H40v22.13h2.5v-9.58h5.65l3.91,9.58H54.8l-4.24-10A3.63,3.63,0,0,0,52.73,235Zm-10.21-.91v-7.63H48.6a2.65,2.65,0,0,1,2.07,1,4.31,4.31,0,0,1,.87,2.85,4.42,4.42,0,0,1-.76,2.85,2.35,2.35,0,0,1-1.85.9Z"/><path class="cls-11" d="M72.7,235a8.41,8.41,0,0,0,0-9.32A4.5,4.5,0,0,0,69.11,224H60v22.13h2.5v-9.58h5.64L72,246.11h2.72l-4.24-10A3.66,3.66,0,0,0,72.7,235Zm-10.21-.91v-7.63h6.08a2.65,2.65,0,0,1,2.06,1,4.31,4.31,0,0,1,.87,2.85,4.36,4.36,0,0,1-.76,2.85,2.34,2.34,0,0,1-1.85.9Z"/><path class="cls-11" d="M92.66,235a8.41,8.41,0,0,0,0-9.32A4.48,4.48,0,0,0,89.08,224H80v22.13h2.5v-9.58H88.1L92,246.11h2.71l-4.23-10A3.63,3.63,0,0,0,92.66,235Zm-10.21-.91v-7.63h6.08a2.65,2.65,0,0,1,2.07,1,4.31,4.31,0,0,1,.87,2.85,4.42,4.42,0,0,1-.76,2.85,2.35,2.35,0,0,1-1.85.9Z"/><path class="cls-11" d="M107.41,223.85a7,7,0,0,0-5.54,2.72c-1.74,2.07-2.6,4.92-2.6,8.54s.86,6.47,2.6,8.54a7,7,0,0,0,11.08,0q2.61-3.1,2.61-8.54T113,226.57A7,7,0,0,0,107.41,223.85ZM111.1,242a4.48,4.48,0,0,1-7.38,0c-1.23-1.47-1.85-3.75-1.85-6.86s.62-5.39,1.85-6.86a4.48,4.48,0,0,1,7.38,0c1.23,1.47,1.85,3.75,1.85,6.86S112.33,240.5,111.1,242Z"/><path class="cls-11" d="M134.87,235a8.41,8.41,0,0,0,0-9.32,4.48,4.48,0,0,0-3.58-1.68h-9.13v22.13h2.5v-9.58h5.65l3.91,9.58h2.71l-4.23-10A3.63,3.63,0,0,0,134.87,235Zm-10.21-.91v-7.63h6.08a2.65,2.65,0,0,1,2.07,1,4.31,4.31,0,0,1,.87,2.85,4.42,4.42,0,0,1-.76,2.85,2.35,2.35,0,0,1-1.85.9Z"/><path class="cls-11" d="M150.6,223.85h-2.5L140.82,238v2.58h7.28v5.7h2.5v-5.7h2.28v-2.45H150.6Zm-2.5,14.24h-4.89l4.89-9.45Z"/><path class="cls-11" d="M166.11,223.85a7,7,0,0,0-5.54,2.72q-2.61,3.1-2.61,8.54t2.61,8.54a7,7,0,0,0,11.08,0q2.61-3.1,2.61-8.54t-2.61-8.54A7,7,0,0,0,166.11,223.85ZM169.8,242a4.48,4.48,0,0,1-7.38,0c-1.23-1.47-1.85-3.75-1.85-6.86s.62-5.39,1.85-6.86a4.48,4.48,0,0,1,7.38,0c1.23,1.47,1.85,3.75,1.85,6.86S171,240.5,169.8,242Z"/><path class="cls-11" d="M189.33,238.09V223.85h-2.49L179.56,238v2.58h7.28v5.7h2.49v-5.7h2.28v-2.45Zm-2.49,0H182l4.89-9.45Z"/><rect class="cls-10" x="28.75" y="230.26" width="186.82" height="53.91"/><polygon class="cls-11" points="38.68 258.44 47.47 258.44 47.47 255.98 38.68 255.98 38.68 249.12 48.13 249.12 48.13 246.66 36.18 246.66 36.18 268.79 48.67 268.79 48.67 266.33 38.68 266.33 38.68 258.44"/><path class="cls-11" d="M67.66,257.53a8.39,8.39,0,0,0,0-9.31,4.5,4.5,0,0,0-3.59-1.68H55v22.12h2.5v-9.57h5.64L67,268.66h2.72l-4.24-10A3.55,3.55,0,0,0,67.66,257.53Zm-10.21-.9V249h6.08a2.63,2.63,0,0,1,2.06,1,4.29,4.29,0,0,1,.87,2.85,4.34,4.34,0,0,1-.76,2.84,2.32,2.32,0,0,1-1.85.91Z"/><path class="cls-11" d="M87.62,257.53a8.39,8.39,0,0,0,0-9.31A4.48,4.48,0,0,0,84,246.54H74.91v22.12h2.5v-9.57h5.65L87,268.66h2.71l-4.23-10A3.53,3.53,0,0,0,87.62,257.53Zm-10.21-.9V249h6.08a2.63,2.63,0,0,1,2.07,1,4.29,4.29,0,0,1,.87,2.85,4.4,4.4,0,0,1-.76,2.84,2.33,2.33,0,0,1-1.85.91Z"/><path class="cls-11" d="M107.58,257.53a8.34,8.34,0,0,0,0-9.31,4.47,4.47,0,0,0-3.58-1.68H94.88v22.12h2.5v-9.57H103l3.91,9.57h2.72l-4.24-10A3.5,3.5,0,0,0,107.58,257.53Zm-10.2-.9V249h6.08a2.63,2.63,0,0,1,2.06,1,4.29,4.29,0,0,1,.87,2.85,4.34,4.34,0,0,1-.76,2.84,2.32,2.32,0,0,1-1.85.91Z"/><path class="cls-11" d="M122.34,246.41a7,7,0,0,0-5.54,2.71q-2.61,3.1-2.61,8.54c0,3.63.87,6.47,2.61,8.54a7,7,0,0,0,11.08,0c1.73-2.07,2.6-4.91,2.6-8.54s-.87-6.47-2.6-8.54A7,7,0,0,0,122.34,246.41ZM126,264.52a4.49,4.49,0,0,1-7.39,0q-1.85-2.19-1.84-6.86c0-3.1.61-5.39,1.84-6.85a4.48,4.48,0,0,1,7.39,0c1.23,1.46,1.85,3.75,1.85,6.85S127.26,263.06,126,264.52Z"/><path class="cls-11" d="M149.79,257.53a8.34,8.34,0,0,0,0-9.31,4.47,4.47,0,0,0-3.58-1.68h-9.12v22.12h2.49v-9.57h5.65l3.91,9.57h2.72l-4.24-10A3.5,3.5,0,0,0,149.79,257.53Zm-10.21-.9V249h6.09a2.63,2.63,0,0,1,2.06,1,4.29,4.29,0,0,1,.87,2.85,4.34,4.34,0,0,1-.76,2.84,2.32,2.32,0,0,1-1.85.91Z"/><path class="cls-11" d="M165.52,246.41H163l-7.27,14.1v2.59H163v5.69h2.5V263.1h2.28v-2.46h-2.28ZM163,260.64h-4.88l4.88-9.45Z"/><path class="cls-11" d="M181,246.41a7,7,0,0,0-5.53,2.71q-2.61,3.1-2.61,8.54c0,3.63.87,6.47,2.61,8.54a7,7,0,0,0,11.07,0c1.74-2.07,2.61-4.91,2.61-8.54s-.87-6.47-2.61-8.54A7,7,0,0,0,181,246.41Zm3.7,18.11a4.49,4.49,0,0,1-7.39,0q-1.84-2.19-1.84-6.86c0-3.1.61-5.39,1.84-6.85a4.48,4.48,0,0,1,7.39,0c1.23,1.46,1.84,3.75,1.84,6.85S186,263.06,184.73,264.52Z"/><path class="cls-11" d="M204.26,260.64V246.41h-2.5l-7.28,14.1v2.59h7.28v5.69h2.5V263.1h2.28v-2.46Zm-2.5,0h-4.89l4.89-9.45Z"/><rect class="cls-10" x="43.68" y="252.81" width="186.82" height="53.91"/><polygon class="cls-11" points="53.6 281 62.4 281 62.4 278.54 53.6 278.54 53.6 271.68 63.05 271.68 63.05 269.22 51.1 269.22 51.1 291.35 63.59 291.35 63.59 288.89 53.6 288.89 53.6 281"/><path class="cls-11" d="M82.58,280.09a8.41,8.41,0,0,0,0-9.32A4.48,4.48,0,0,0,79,269.09H69.87v22.13h2.5v-9.58H78l3.91,9.58h2.71l-4.23-10A3.57,3.57,0,0,0,82.58,280.09Zm-10.21-.91v-7.63h6.08a2.62,2.62,0,0,1,2.07,1,4.31,4.31,0,0,1,.87,2.85,4.45,4.45,0,0,1-.76,2.85,2.35,2.35,0,0,1-1.85.9Z"/><path class="cls-11" d="M102.54,280.09a8.36,8.36,0,0,0,0-9.32A4.47,4.47,0,0,0,99,269.09H89.84v22.13h2.49v-9.58H98l3.91,9.58h2.72l-4.24-10A3.54,3.54,0,0,0,102.54,280.09Zm-10.21-.91v-7.63h6.09a2.62,2.62,0,0,1,2.06,1,4.31,4.31,0,0,1,.87,2.85,4.39,4.39,0,0,1-.76,2.85,2.34,2.34,0,0,1-1.85.9Z"/><path class="cls-11" d="M122.51,280.09a8.41,8.41,0,0,0,0-9.32,4.49,4.49,0,0,0-3.59-1.68H109.8v22.13h2.5v-9.58H118l3.91,9.58h2.71l-4.23-10A3.57,3.57,0,0,0,122.51,280.09Zm-10.21-.91v-7.63h6.08a2.64,2.64,0,0,1,2.07,1,5.42,5.42,0,0,1,.1,5.7,2.32,2.32,0,0,1-1.84.9Z"/><path class="cls-11" d="M137.26,269a7,7,0,0,0-5.54,2.72q-2.61,3.1-2.61,8.54t2.61,8.54a7,7,0,0,0,11.08,0q2.61-3.11,2.61-8.54t-2.61-8.54A7,7,0,0,0,137.26,269ZM141,287.08a4.48,4.48,0,0,1-7.38,0c-1.24-1.47-1.85-3.76-1.85-6.86s.61-5.39,1.85-6.86a4.48,4.48,0,0,1,7.38,0c1.23,1.47,1.85,3.75,1.85,6.86S142.18,285.61,141,287.08Z"/><path class="cls-11" d="M164.72,280.09a8.41,8.41,0,0,0,0-9.32,4.49,4.49,0,0,0-3.59-1.68H152v22.13h2.5v-9.58h5.65l3.91,9.58h2.71l-4.23-10A3.57,3.57,0,0,0,164.72,280.09Zm-10.21-.91v-7.63h6.08a2.6,2.6,0,0,1,2.06,1,4.31,4.31,0,0,1,.87,2.85,4.39,4.39,0,0,1-.76,2.85,2.32,2.32,0,0,1-1.84.9Z"/><path class="cls-11" d="M180.45,269H178l-7.28,14.11v2.58H178v5.7h2.5v-5.7h2.28v-2.46h-2.28ZM178,283.19h-4.89l4.89-9.44Z"/><path class="cls-11" d="M196,269a7,7,0,0,0-5.54,2.72q-2.61,3.1-2.61,8.54t2.61,8.54a7,7,0,0,0,11.08,0q2.61-3.11,2.61-8.54t-2.61-8.54A7,7,0,0,0,196,269Zm3.69,18.12a4.48,4.48,0,0,1-7.38,0c-1.24-1.47-1.85-3.76-1.85-6.86s.61-5.39,1.85-6.86a4.48,4.48,0,0,1,7.38,0c1.23,1.47,1.85,3.75,1.85,6.86S200.88,285.61,199.65,287.08Z"/><path class="cls-11" d="M219.18,283.19V269h-2.5l-7.27,14.11v2.58h7.27v5.7h2.5v-5.7h2.28v-2.46Zm-2.5,0H211.8l4.88-9.44Z"/><rect class="cls-10" x="58.6" y="275.37" width="186.82" height="53.91"/><polygon class="cls-11" points="68.52 303.55 77.32 303.55 77.32 301.09 68.52 301.09 68.52 294.23 77.97 294.23 77.97 291.77 66.03 291.77 66.03 313.9 78.52 313.9 78.52 311.44 68.52 311.44 68.52 303.55"/><path class="cls-11" d="M97.5,302.64a8.34,8.34,0,0,0,0-9.31,4.48,4.48,0,0,0-3.58-1.69H84.8v22.13h2.49V304.2h5.65l3.91,9.57h2.72l-4.24-10A3.5,3.5,0,0,0,97.5,302.64Zm-10.21-.9V294.1h6.09a2.63,2.63,0,0,1,2.06,1,4.28,4.28,0,0,1,.87,2.84,4.42,4.42,0,0,1-.76,2.85,2.32,2.32,0,0,1-1.85.91Z"/><path class="cls-11" d="M117.47,302.64a8.39,8.39,0,0,0,0-9.31,4.5,4.5,0,0,0-3.59-1.69h-9.12v22.13h2.5V304.2h5.65l3.91,9.57h2.71l-4.23-10A3.53,3.53,0,0,0,117.47,302.64Zm-10.21-.9V294.1h6.08a2.61,2.61,0,0,1,2.06,1,4.28,4.28,0,0,1,.87,2.84,4.36,4.36,0,0,1-.76,2.85,2.3,2.3,0,0,1-1.84.91Z"/><path class="cls-11" d="M137.43,302.64a8.34,8.34,0,0,0,0-9.31,4.48,4.48,0,0,0-3.58-1.69h-9.12v22.13h2.49V304.2h5.65l3.91,9.57h2.72l-4.24-10A3.5,3.5,0,0,0,137.43,302.64Zm-10.21-.9V294.1h6.09a2.63,2.63,0,0,1,2.06,1,4.28,4.28,0,0,1,.87,2.84,4.42,4.42,0,0,1-.76,2.85,2.33,2.33,0,0,1-1.85.91Z"/><path class="cls-11" d="M152.18,291.51a7,7,0,0,0-5.53,2.72q-2.61,3.11-2.61,8.54c0,3.63.87,6.47,2.61,8.54a7,7,0,0,0,11.07,0c1.74-2.07,2.61-4.91,2.61-8.54s-.87-6.47-2.61-8.54A7,7,0,0,0,152.18,291.51Zm3.7,18.12a4.49,4.49,0,0,1-7.39,0q-1.85-2.19-1.84-6.86t1.84-6.86a4.49,4.49,0,0,1,7.39,0q1.85,2.2,1.84,6.86T155.88,309.63Z"/><path class="cls-11" d="M179.64,302.64a8.39,8.39,0,0,0,0-9.31,4.48,4.48,0,0,0-3.58-1.69h-9.13v22.13h2.5V304.2h5.65l3.91,9.57h2.72l-4.24-10A3.5,3.5,0,0,0,179.64,302.64Zm-10.21-.9V294.1h6.09a2.63,2.63,0,0,1,2.06,1,4.28,4.28,0,0,1,.87,2.84,4.42,4.42,0,0,1-.76,2.85,2.33,2.33,0,0,1-1.85.91Z"/><path class="cls-11" d="M195.37,291.51h-2.5l-7.27,14.11v2.59h7.27v5.69h2.5v-5.69h2.28v-2.46h-2.28Zm-2.5,14.24H188l4.88-9.45Z"/><path class="cls-11" d="M210.88,291.51a7,7,0,0,0-5.54,2.72q-2.59,3.11-2.6,8.54c0,3.63.87,6.47,2.6,8.54a7,7,0,0,0,11.08,0c1.74-2.07,2.61-4.91,2.61-8.54s-.87-6.47-2.61-8.54A7,7,0,0,0,210.88,291.51Zm3.7,18.12a4.49,4.49,0,0,1-7.39,0q-1.84-2.19-1.85-6.86t1.85-6.86a4.49,4.49,0,0,1,7.39,0q1.84,2.2,1.84,6.86T214.58,309.63Z"/><path class="cls-11" d="M234.11,305.75V291.51h-2.5l-7.28,14.11v2.59h7.28v5.69h2.5v-5.69h2.28v-2.46Zm-2.5,0h-4.89l4.89-9.45Z"/><circle class="cls-12" cx="273.04" cy="232.89" r="9.76"/><circle class="cls-12" cx="275.84" cy="236.67" r="11.03"/><circle class="cls-12" cx="278.65" cy="240.44" r="12.29"/><circle class="cls-12" cx="281.45" cy="244.22" r="13.56"/><circle class="cls-12" cx="282.99" cy="247.99" r="15.03"/><circle class="cls-12" cx="284.52" cy="251.75" r="16.49"/><circle class="cls-12" cx="286.05" cy="255.52" r="17.96"/><circle class="cls-12" cx="287.58" cy="259.29" r="19.43"/><circle class="cls-12" cx="283.85" cy="261.87" r="20.58"/><circle class="cls-12" cx="280.13" cy="264.46" r="21.72"/><circle class="cls-12" cx="276.4" cy="267.05" r="22.87"/><circle class="cls-12" cx="272.67" cy="269.64" r="24.01"/><circle class="cls-12" cx="268.94" cy="272.23" r="25.16"/><circle class="cls-12" cx="265.22" cy="274.82" r="26.3"/><circle class="cls-12" cx="261.49" cy="277.4" r="27.45"/><circle class="cls-12" cx="257.76" cy="279.99" r="28.6"/><circle class="cls-1" cx="244.61" cy="279.77" r="15.16"/><circle class="cls-12" cx="285.25" cy="227.78" r="9.76"/><circle class="cls-12" cx="289.27" cy="230.89" r="10.39"/><circle class="cls-12" cx="293.29" cy="234" r="11.03"/><circle class="cls-12" cx="297.31" cy="237.12" r="11.66"/><circle class="cls-12" cx="301.33" cy="240.23" r="12.29"/><circle class="cls-12" cx="305.35" cy="243.34" r="12.92"/><circle class="cls-12" cx="309.37" cy="246.45" r="13.56"/><circle class="cls-12" cx="311.92" cy="249.28" r="15.03"/><circle class="cls-12" cx="314.46" cy="252.11" r="16.49"/><circle class="cls-12" cx="317.01" cy="254.95" r="17.96"/><circle class="cls-12" cx="319.56" cy="257.78" r="19.43"/><circle class="cls-12" cx="318.71" cy="262.22" r="21.26"/><circle class="cls-12" cx="317.85" cy="266.66" r="23.1"/><circle class="cls-12" cx="317" cy="271.11" r="24.93"/><circle class="cls-12" cx="316.15" cy="275.55" r="26.76"/><circle class="cls-12" cx="315.29" cy="279.99" r="28.6"/><circle class="cls-1" cx="302.69" cy="280.15" r="15.16"/><path class="cls-13" d="M312.37,93.58a32.35,32.35,0,0,1-45.75-45.75c12.64-12.63,28.58-17.17,58.12-12.36C313.73,62,325,81,312.37,93.58Z"/><polygon class="cls-14" points="303.82 173.88 305.85 217.96 292.95 177.07 264.91 203.59 293.18 166.08 250.62 162.62 290.47 161.75 273.75 125.91 294.65 154.31 316.87 121.09 302.48 159.65 347.51 151.81 307.36 167.44 342.61 194.92 303.82 173.88"/></g></g></svg>